%TF.GenerationSoftware,KiCad,Pcbnew,9.0.0*%
%TF.CreationDate,2025-04-11T09:44:11+02:00*%
%TF.ProjectId,Panzer_PCB,50616e7a-6572-45f5-9043-422e6b696361,rev?*%
%TF.SameCoordinates,Original*%
%TF.FileFunction,Copper,L2,Bot*%
%TF.FilePolarity,Positive*%
%FSLAX46Y46*%
G04 Gerber Fmt 4.6, Leading zero omitted, Abs format (unit mm)*
G04 Created by KiCad (PCBNEW 9.0.0) date 2025-04-11 09:44:11*
%MOMM*%
%LPD*%
G01*
G04 APERTURE LIST*
%TA.AperFunction,ComponentPad*%
%ADD10R,1.700000X1.700000*%
%TD*%
%TA.AperFunction,ComponentPad*%
%ADD11O,1.700000X1.700000*%
%TD*%
%TA.AperFunction,ComponentPad*%
%ADD12R,2.400000X2.400000*%
%TD*%
%TA.AperFunction,ComponentPad*%
%ADD13O,1.500000X2.500000*%
%TD*%
%TA.AperFunction,WasherPad*%
%ADD14C,3.200000*%
%TD*%
%TA.AperFunction,ComponentPad*%
%ADD15R,1.600000X2.600000*%
%TD*%
%TA.AperFunction,ComponentPad*%
%ADD16O,1.600000X2.600000*%
%TD*%
%TA.AperFunction,ComponentPad*%
%ADD17R,2.600000X1.600000*%
%TD*%
%TA.AperFunction,ComponentPad*%
%ADD18O,2.600000X1.600000*%
%TD*%
%TA.AperFunction,ComponentPad*%
%ADD19R,1.500000X1.500000*%
%TD*%
%TA.AperFunction,ComponentPad*%
%ADD20C,1.600000*%
%TD*%
%TA.AperFunction,ComponentPad*%
%ADD21R,1.600000X1.600000*%
%TD*%
%TA.AperFunction,Conductor*%
%ADD22C,0.500000*%
%TD*%
%TA.AperFunction,Conductor*%
%ADD23C,0.200000*%
%TD*%
G04 APERTURE END LIST*
D10*
%TO.P,J5,1,Pin_1*%
%TO.N,unconnected-(J5-Pin_1-Pad1)*%
X148230000Y-111890000D03*
D11*
%TO.P,J5,2,Pin_2*%
%TO.N,unconnected-(J5-Pin_2-Pad2)*%
X145690000Y-111890000D03*
%TO.P,J5,3,Pin_3*%
%TO.N,unconnected-(J5-Pin_3-Pad3)*%
X143150000Y-111890000D03*
%TO.P,J5,4,Pin_4*%
%TO.N,unconnected-(J5-Pin_4-Pad4)*%
X140610000Y-111890000D03*
%TO.P,J5,5,Pin_5*%
%TO.N,unconnected-(J5-Pin_5-Pad5)*%
X138070000Y-111890000D03*
D10*
%TO.P,J5,6,Pin_6*%
%TO.N,/XSHUT_R*%
X135530000Y-111890000D03*
%TD*%
D12*
%TO.P,R2,1*%
%TO.N,/SCL1*%
X180570000Y-60800000D03*
%TO.P,R2,2*%
%TO.N,Net-(J2-Pin_4)*%
X195810000Y-60800000D03*
%TD*%
D10*
%TO.P,J4,1,Pin_1*%
%TO.N,/KILL*%
X121050000Y-111960000D03*
D13*
%TO.P,J4,2,Pin_2*%
%TO.N,/START*%
X118510000Y-111960000D03*
%TO.P,J4,3,Pin_3*%
%TO.N,/GND*%
X115970000Y-111960000D03*
D10*
%TO.P,J4,4,Pin_4*%
%TO.N,/3V*%
X113430000Y-111960000D03*
%TD*%
D14*
%TO.P,A1,*%
%TO.N,*%
X103950000Y-94440000D03*
X103950000Y-76660000D03*
D15*
%TO.P,A1,1,~{RESET}*%
%TO.N,unconnected-(A1-~{RESET}-Pad1)*%
X107760000Y-95410000D03*
D16*
%TO.P,A1,2,3V3*%
%TO.N,/3V*%
X110300000Y-95410000D03*
%TO.P,A1,3,NC*%
%TO.N,unconnected-(A1-NC-Pad3)*%
X112840000Y-95410000D03*
%TO.P,A1,4,GND*%
%TO.N,/GND*%
X115380000Y-95410000D03*
%TO.P,A1,5,DAC2/A0*%
%TO.N,/IO18*%
X117920000Y-95410000D03*
%TO.P,A1,6,DAC1/A1*%
%TO.N,/KILL*%
X120460000Y-95410000D03*
%TO.P,A1,7,I34/A2*%
%TO.N,/IO16*%
X123000000Y-95410000D03*
%TO.P,A1,8,I39/A3*%
%TO.N,unconnected-(A1-I39{slash}A3-Pad8)*%
X125540000Y-95410000D03*
%TO.P,A1,9,IO36/A4*%
%TO.N,/1O14*%
X128080000Y-95410000D03*
%TO.P,A1,10,IO4/A5*%
%TO.N,/IO8*%
X130620000Y-95410000D03*
%TO.P,A1,11,SCK/IO5*%
%TO.N,/START*%
X133160000Y-95410000D03*
%TO.P,A1,12,MOSI/IO18*%
%TO.N,unconnected-(A1-MOSI{slash}IO18-Pad12)*%
X135700000Y-95410000D03*
%TO.P,A1,13,MISO/IO19*%
%TO.N,unconnected-(A1-MISO{slash}IO19-Pad13)*%
X138240000Y-95410000D03*
%TO.P,A1,14,RX/IO16*%
%TO.N,/XSHUT_R*%
X140780000Y-95410000D03*
%TO.P,A1,15,TX/IO17*%
%TO.N,/XSHUT_L*%
X143320000Y-95410000D03*
%TO.P,A1,16,IO21*%
%TO.N,unconnected-(A1-IO21-Pad16)*%
X145860000Y-95410000D03*
%TO.P,A1,17,SDA/IO23*%
%TO.N,unconnected-(A1-SDA{slash}IO23-Pad17)*%
X145860000Y-75690000D03*
%TO.P,A1,18,SCL/IO22*%
%TO.N,unconnected-(A1-SCL{slash}IO22-Pad18)*%
X143320000Y-75690000D03*
%TO.P,A1,19,A6/IO14*%
%TO.N,/SDA1*%
X140780000Y-75690000D03*
%TO.P,A1,20,A7/IO32*%
%TO.N,/SCL1*%
X138240000Y-75690000D03*
%TO.P,A1,21,A8/IO15*%
%TO.N,/IO9*%
X135700000Y-75690000D03*
%TO.P,A1,22,A9/IO33*%
%TO.N,/IO10*%
X133160000Y-75690000D03*
%TO.P,A1,23,A10/IO27*%
%TO.N,/IO11*%
X130620000Y-75690000D03*
%TO.P,A1,24,A11/IO12*%
%TO.N,/IO12*%
X128080000Y-75690000D03*
%TO.P,A1,25,A12/IO13*%
%TO.N,/IO13*%
X125540000Y-75690000D03*
%TO.P,A1,26,USB*%
%TO.N,unconnected-(A1-USB-Pad26)*%
X123000000Y-75690000D03*
%TO.P,A1,27,EN*%
%TO.N,unconnected-(A1-EN-Pad27)*%
X120460000Y-75690000D03*
%TO.P,A1,28,VBAT*%
%TO.N,/VBAT*%
X117920000Y-75690000D03*
%TD*%
D10*
%TO.P,J3,1,Pin_1*%
%TO.N,Net-(J3-Pin_1)*%
X115900000Y-62400000D03*
%TO.P,J3,2,Pin_2*%
%TO.N,/GND*%
X118440000Y-62400000D03*
%TD*%
D14*
%TO.P,A2,*%
%TO.N,*%
X175090000Y-108360000D03*
X157310000Y-108360000D03*
D17*
%TO.P,A2,1,~{RESET}*%
%TO.N,unconnected-(A2-~{RESET}-Pad1)*%
X176060000Y-104550000D03*
D18*
%TO.P,A2,2,3V3*%
%TO.N,/3V*%
X176060000Y-102010000D03*
%TO.P,A2,3,NC*%
%TO.N,unconnected-(A2-NC-Pad3)*%
X176060000Y-99470000D03*
%TO.P,A2,4,GND*%
%TO.N,/GND*%
X176060000Y-96930000D03*
%TO.P,A2,5,DAC2/A0*%
%TO.N,/IO18*%
X176060000Y-94390000D03*
%TO.P,A2,6,DAC1/A1*%
%TO.N,unconnected-(A2-DAC1{slash}A1-Pad6)*%
X176060000Y-91850000D03*
%TO.P,A2,7,I34/A2*%
%TO.N,/IO16*%
X176060000Y-89310000D03*
%TO.P,A2,8,I39/A3*%
%TO.N,unconnected-(A2-I39{slash}A3-Pad8)*%
X176060000Y-86770000D03*
%TO.P,A2,9,IO36/A4*%
%TO.N,/IO14*%
X176060000Y-84230000D03*
%TO.P,A2,10,IO4/A5*%
%TO.N,/IO8*%
X176060000Y-81690000D03*
%TO.P,A2,11,SCK/IO5*%
%TO.N,unconnected-(A2-SCK{slash}IO5-Pad11)*%
X176060000Y-79150000D03*
%TO.P,A2,12,MOSI/IO18*%
%TO.N,unconnected-(A2-MOSI{slash}IO18-Pad12)*%
X176060000Y-76610000D03*
%TO.P,A2,13,MISO/IO19*%
%TO.N,unconnected-(A2-MISO{slash}IO19-Pad13)*%
X176060000Y-74070000D03*
%TO.P,A2,14,RX/IO16*%
%TO.N,unconnected-(A2-RX{slash}IO16-Pad14)*%
X176060000Y-71530000D03*
%TO.P,A2,15,TX/IO17*%
%TO.N,unconnected-(A2-TX{slash}IO17-Pad15)*%
X176060000Y-68990000D03*
%TO.P,A2,16,IO21*%
%TO.N,unconnected-(A2-IO21-Pad16)*%
X176060000Y-66450000D03*
%TO.P,A2,17,SDA/IO23*%
%TO.N,unconnected-(A2-SDA{slash}IO23-Pad17)*%
X156340000Y-66450000D03*
%TO.P,A2,18,SCL/IO22*%
%TO.N,unconnected-(A2-SCL{slash}IO22-Pad18)*%
X156340000Y-68990000D03*
%TO.P,A2,19,A6/IO14*%
%TO.N,unconnected-(A2-A6{slash}IO14-Pad19)*%
X156340000Y-71530000D03*
%TO.P,A2,20,A7/IO32*%
%TO.N,unconnected-(A2-A7{slash}IO32-Pad20)*%
X156340000Y-74070000D03*
%TO.P,A2,21,A8/IO15*%
%TO.N,/IO9*%
X156340000Y-76610000D03*
%TO.P,A2,22,A9/IO33*%
%TO.N,/IO10*%
X156340000Y-79150000D03*
%TO.P,A2,23,A10/IO27*%
%TO.N,/IO11*%
X156340000Y-81690000D03*
%TO.P,A2,24,A11/IO12*%
%TO.N,/IO12*%
X156340000Y-84230000D03*
%TO.P,A2,25,A12/IO13*%
%TO.N,/IO13*%
X156340000Y-86770000D03*
%TO.P,A2,26,USB*%
%TO.N,unconnected-(A2-USB-Pad26)*%
X156340000Y-89310000D03*
%TO.P,A2,27,EN*%
%TO.N,unconnected-(A2-EN-Pad27)*%
X156340000Y-91850000D03*
%TO.P,A2,28,VBAT*%
%TO.N,unconnected-(A2-VBAT-Pad28)*%
X156340000Y-94390000D03*
%TD*%
D12*
%TO.P,R1,1*%
%TO.N,/SDA1*%
X180860000Y-54110000D03*
%TO.P,R1,2*%
%TO.N,Net-(J2-Pin_3)*%
X196100000Y-54110000D03*
%TD*%
D10*
%TO.P,J1,1,Pin_1*%
%TO.N,unconnected-(J1-Pin_1-Pad1)*%
X135460000Y-58050000D03*
D11*
%TO.P,J1,2,Pin_2*%
%TO.N,unconnected-(J1-Pin_2-Pad2)*%
X138000000Y-58050000D03*
%TO.P,J1,3,Pin_3*%
%TO.N,unconnected-(J1-Pin_3-Pad3)*%
X140540000Y-58050000D03*
%TO.P,J1,4,Pin_4*%
%TO.N,unconnected-(J1-Pin_4-Pad4)*%
X143080000Y-58050000D03*
%TO.P,J1,5,Pin_5*%
%TO.N,unconnected-(J1-Pin_5-Pad5)*%
X145620000Y-58050000D03*
D10*
%TO.P,J1,6,Pin_6*%
%TO.N,/XSHUT_L*%
X148160000Y-58050000D03*
%TD*%
D19*
%TO.P,M-C_MAINS,1,B*%
%TO.N,/VBAT*%
X118670000Y-67280000D03*
D20*
%TO.P,M-C_MAINS,2,C*%
%TO.N,unconnected-(M-C_MAINS1-C-Pad2)*%
X121210000Y-67280000D03*
D21*
%TO.P,M-C_MAINS,3,A*%
%TO.N,Net-(J3-Pin_1)*%
X116130000Y-67280000D03*
%TD*%
D10*
%TO.P,J2,1,Pin_1*%
%TO.N,/GND*%
X182380000Y-77390000D03*
%TO.P,J2,2,Pin_2*%
%TO.N,/3V*%
X182380000Y-79930000D03*
%TO.P,J2,3,Pin_3*%
%TO.N,Net-(J2-Pin_3)*%
X182380000Y-82470000D03*
%TO.P,J2,4,Pin_4*%
%TO.N,Net-(J2-Pin_4)*%
X182380000Y-85010000D03*
D11*
%TO.P,J2,5,Pin_5*%
%TO.N,unconnected-(J2-Pin_5-Pad5)*%
X182380000Y-87550000D03*
%TO.P,J2,6,Pin_6*%
%TO.N,unconnected-(J2-Pin_6-Pad6)*%
X182380000Y-90090000D03*
%TO.P,J2,7,Pin_7*%
%TO.N,unconnected-(J2-Pin_7-Pad7)*%
X182380000Y-92630000D03*
%TD*%
D22*
%TO.N,/GND*%
X179270000Y-96930000D02*
X179270000Y-77380000D01*
X174850000Y-96930000D02*
X176360000Y-96930000D01*
X115970000Y-97601700D02*
X115380000Y-97011700D01*
X156550000Y-115230000D02*
X174850000Y-96930000D01*
X112340000Y-89240000D02*
X115380000Y-92280000D01*
X115380000Y-95710000D02*
X115380000Y-97011700D01*
X118440000Y-62400000D02*
X115610000Y-59570000D01*
X115970000Y-111960000D02*
X115970000Y-115230000D01*
X112340000Y-59570000D02*
X112340000Y-89240000D01*
X115970000Y-111960000D02*
X115970000Y-97601700D01*
X179270000Y-77380000D02*
X182370000Y-77380000D01*
X182370000Y-77380000D02*
X182380000Y-77390000D01*
X115970000Y-115230000D02*
X156550000Y-115230000D01*
X115380000Y-92280000D02*
X115380000Y-95710000D01*
X176360000Y-96930000D02*
X179270000Y-96930000D01*
X115610000Y-59570000D02*
X112340000Y-59570000D01*
D23*
%TO.N,/KILL*%
X120460000Y-110218300D02*
X121050000Y-110808300D01*
X120460000Y-95710000D02*
X120460000Y-110218300D01*
X121050000Y-111960000D02*
X121050000Y-110808300D01*
%TO.N,/IO10*%
X133160000Y-75390000D02*
X133160000Y-79610000D01*
X154278300Y-79610000D02*
X154738300Y-79150000D01*
X133160000Y-79610000D02*
X154278300Y-79610000D01*
X154738300Y-79150000D02*
X156040000Y-79150000D01*
%TO.N,/XSHUT_R*%
X140780000Y-97011700D02*
X135530000Y-102261700D01*
X140780000Y-95710000D02*
X140780000Y-97011700D01*
X135530000Y-102261700D02*
X135530000Y-111890000D01*
%TO.N,/IO11*%
X130620000Y-75390000D02*
X130620000Y-81690000D01*
X130620000Y-81690000D02*
X156040000Y-81690000D01*
%TO.N,/IO18*%
X117170000Y-96460000D02*
X117170000Y-114150000D01*
X173968420Y-94390000D02*
X176360000Y-94390000D01*
X117920000Y-95710000D02*
X117170000Y-96460000D01*
X154208420Y-114150000D02*
X173968420Y-94390000D01*
X117170000Y-114150000D02*
X154208420Y-114150000D01*
%TO.N,/IO8*%
X142151900Y-96373100D02*
X142151900Y-94715000D01*
X178160000Y-81630000D02*
X178160000Y-90760000D01*
X177016049Y-90749000D02*
X175103951Y-90749000D01*
X174120000Y-91732951D02*
X174120000Y-91930000D01*
X177027049Y-90760000D02*
X177016049Y-90749000D01*
X176420000Y-81630000D02*
X178160000Y-81630000D01*
X131021700Y-93406600D02*
X130620000Y-93808300D01*
X178160000Y-90760000D02*
X177027049Y-90760000D01*
X130620000Y-93808300D02*
X130620000Y-95710000D01*
X174120000Y-91930000D02*
X161870000Y-91930000D01*
X175103951Y-90749000D02*
X174120000Y-91732951D01*
X142828800Y-97050000D02*
X142151900Y-96373100D01*
X176360000Y-81690000D02*
X176420000Y-81630000D01*
X156750000Y-97050000D02*
X142828800Y-97050000D01*
X140843500Y-93406600D02*
X131021700Y-93406600D01*
X142151900Y-94715000D02*
X140843500Y-93406600D01*
X161870000Y-91930000D02*
X156750000Y-97050000D01*
%TO.N,/IO16*%
X185300000Y-51000000D02*
X125210000Y-51000000D01*
X176360000Y-89310000D02*
X172840000Y-89310000D01*
X185300000Y-64350000D02*
X185300000Y-51000000D01*
X172840000Y-64350000D02*
X185300000Y-64350000D01*
X125210000Y-51000000D02*
X124439000Y-51771000D01*
X124439000Y-51771000D02*
X124439000Y-94271000D01*
X172840000Y-89310000D02*
X172840000Y-64350000D01*
X124439000Y-94271000D02*
X123000000Y-95710000D01*
D22*
%TO.N,/VBAT*%
X118670000Y-74640000D02*
X118670000Y-67280000D01*
X117920000Y-75390000D02*
X118670000Y-74640000D01*
D23*
%TO.N,/3V*%
X180050000Y-102010000D02*
X180050000Y-81670000D01*
X113430000Y-98840000D02*
X110300000Y-95710000D01*
X113430000Y-111960000D02*
X113430000Y-98840000D01*
X180050000Y-81670000D02*
X180638300Y-81081700D01*
X114330000Y-116470000D02*
X113430000Y-115570000D01*
X176360000Y-102010000D02*
X180050000Y-102010000D01*
X176360000Y-102010000D02*
X175898000Y-102010000D01*
X175898000Y-102010000D02*
X161438000Y-116470000D01*
X161438000Y-116470000D02*
X114330000Y-116470000D01*
X113430000Y-115570000D02*
X113430000Y-111960000D01*
X180638300Y-81081700D02*
X182380000Y-81081700D01*
X182380000Y-81081700D02*
X182380000Y-79930000D01*
%TO.N,/SDA1*%
X177120000Y-57850000D02*
X180860000Y-54110000D01*
X139364300Y-54780000D02*
X151580000Y-54780000D01*
X151580000Y-54780000D02*
X154650000Y-57850000D01*
X139364300Y-72672600D02*
X139364300Y-54780000D01*
X154650000Y-57850000D02*
X177120000Y-57850000D01*
X140780000Y-74088300D02*
X139364300Y-72672600D01*
X140780000Y-75390000D02*
X140780000Y-74088300D01*
%TO.N,/SCL1*%
X178710000Y-58940000D02*
X180570000Y-60800000D01*
X141760000Y-55760000D02*
X151210000Y-55760000D01*
X141760000Y-66714900D02*
X141760000Y-55760000D01*
X154390000Y-58940000D02*
X178710000Y-58940000D01*
X138264900Y-77694900D02*
X144488800Y-77694900D01*
X151210000Y-55760000D02*
X154390000Y-58940000D01*
X138240000Y-75390000D02*
X138240000Y-77670000D01*
X138240000Y-77670000D02*
X138264900Y-77694900D01*
X144488800Y-77694900D02*
X144488800Y-69443700D01*
X144488800Y-69443700D02*
X141760000Y-66714900D01*
%TO.N,/IO13*%
X156040000Y-86770000D02*
X125540000Y-86770000D01*
X125540000Y-86770000D02*
X125540000Y-75390000D01*
%TO.N,/XSHUT_L*%
X148160000Y-72800000D02*
X148160000Y-58050000D01*
X160859400Y-90740600D02*
X160960000Y-90640000D01*
X160960000Y-90640000D02*
X160960000Y-72800000D01*
X143320000Y-93808300D02*
X146387700Y-90740600D01*
X160960000Y-72800000D02*
X148160000Y-72800000D01*
X143320000Y-95710000D02*
X143320000Y-93808300D01*
X146387700Y-90740600D02*
X160859400Y-90740600D01*
%TO.N,/IO9*%
X154738300Y-76610000D02*
X156040000Y-76610000D01*
X135700000Y-78502200D02*
X152846100Y-78502200D01*
X152846100Y-78502200D02*
X154738300Y-76610000D01*
X135700000Y-75390000D02*
X135700000Y-78502200D01*
%TO.N,/IO12*%
X128080000Y-75390000D02*
X128080000Y-84230000D01*
X128080000Y-84230000D02*
X156040000Y-84230000D01*
%TO.N,/START*%
X119661700Y-113550000D02*
X119661700Y-111960000D01*
X133160000Y-105240000D02*
X124850000Y-113550000D01*
X119661700Y-111960000D02*
X118510000Y-111960000D01*
X133160000Y-95710000D02*
X133160000Y-105240000D01*
X124850000Y-113550000D02*
X119661700Y-113550000D01*
%TO.N,Net-(J2-Pin_4)*%
X182380000Y-85010000D02*
X195810000Y-71580000D01*
X195810000Y-71580000D02*
X195810000Y-60800000D01*
%TO.N,Net-(J2-Pin_3)*%
X190910200Y-73939800D02*
X182380000Y-82470000D01*
X196100000Y-55611700D02*
X190910200Y-60801500D01*
X196100000Y-54110000D02*
X196100000Y-55611700D01*
X190910200Y-60801500D02*
X190910200Y-73939800D01*
D22*
%TO.N,Net-(J3-Pin_1)*%
X116130000Y-63781700D02*
X116130000Y-67280000D01*
X115900000Y-62400000D02*
X115900000Y-63551700D01*
X115900000Y-63551700D02*
X116130000Y-63781700D01*
%TD*%
M02*
