M48
; DRILL file {KiCad 9.0.0} date 2025-04-11T09:41:18+0200
; FORMAT={-:-/ absolute / metric / decimal}
; #@! TF.CreationDate,2025-04-11T09:41:18+02:00
; #@! TF.GenerationSoftware,Kicad,Pcbnew,9.0.0
; #@! TF.FileFunction,Plated,1,2,PTH
FMAT,2
METRIC
; #@! TA.AperFunction,Plated,PTH,ComponentDrill
T1C0.800
; #@! TA.AperFunction,Plated,PTH,ComponentDrill
T2C1.000
; #@! TA.AperFunction,Plated,PTH,ComponentDrill
T3C1.200
%
G90
G05
T1
X116.13Y-67.28
X118.67Y-67.28
X121.21Y-67.28
T2
X107.76Y-95.71
X110.3Y-95.71
X112.84Y-95.71
X113.43Y-111.96
X115.38Y-95.71
X115.9Y-62.4
X115.97Y-111.96
X117.92Y-75.39
X117.92Y-95.71
X118.44Y-62.4
X118.51Y-111.96
X120.46Y-75.39
X120.46Y-95.71
X121.05Y-111.96
X123.0Y-75.39
X123.0Y-95.71
X125.54Y-75.39
X125.54Y-95.71
X128.08Y-75.39
X128.08Y-95.71
X130.62Y-75.39
X130.62Y-95.71
X133.16Y-75.39
X133.16Y-95.71
X135.46Y-58.05
X135.53Y-111.89
X135.7Y-75.39
X135.7Y-95.71
X138.0Y-58.05
X138.07Y-111.89
X138.24Y-75.39
X138.24Y-95.71
X140.54Y-58.05
X140.61Y-111.89
X140.78Y-75.39
X140.78Y-95.71
X143.08Y-58.05
X143.15Y-111.89
X143.32Y-75.39
X143.32Y-95.71
X145.62Y-58.05
X145.69Y-111.89
X145.86Y-75.39
X145.86Y-95.71
X148.16Y-58.05
X148.23Y-111.89
X156.04Y-66.45
X156.04Y-68.99
X156.04Y-71.53
X156.04Y-74.07
X156.04Y-76.61
X156.04Y-79.15
X156.04Y-81.69
X156.04Y-84.23
X156.04Y-86.77
X156.04Y-89.31
X156.04Y-91.85
X156.04Y-94.39
X176.36Y-66.45
X176.36Y-68.99
X176.36Y-71.53
X176.36Y-74.07
X176.36Y-76.61
X176.36Y-79.15
X176.36Y-81.69
X176.36Y-84.23
X176.36Y-86.77
X176.36Y-89.31
X176.36Y-91.85
X176.36Y-94.39
X176.36Y-96.93
X176.36Y-99.47
X176.36Y-102.01
X176.36Y-104.55
X182.38Y-77.39
X182.38Y-79.93
X182.38Y-82.47
X182.38Y-85.01
X182.38Y-87.55
X182.38Y-90.09
X182.38Y-92.63
T3
X180.57Y-60.8
X180.86Y-54.11
X195.81Y-60.8
X196.1Y-54.11
M30
