%TF.GenerationSoftware,KiCad,Pcbnew,9.0.0*%
%TF.CreationDate,2025-04-18T00:05:44+02:00*%
%TF.ProjectId,Omni-X-II-PCB,4f6d6e69-2d58-42d4-9949-2d5043422e6b,rev?*%
%TF.SameCoordinates,Original*%
%TF.FileFunction,Copper,L2,Bot*%
%TF.FilePolarity,Positive*%
%FSLAX46Y46*%
G04 Gerber Fmt 4.6, Leading zero omitted, Abs format (unit mm)*
G04 Created by KiCad (PCBNEW 9.0.0) date 2025-04-18 00:05:44*
%MOMM*%
%LPD*%
G01*
G04 APERTURE LIST*
G04 Aperture macros list*
%AMRoundRect*
0 Rectangle with rounded corners*
0 $1 Rounding radius*
0 $2 $3 $4 $5 $6 $7 $8 $9 X,Y pos of 4 corners*
0 Add a 4 corners polygon primitive as box body*
4,1,4,$2,$3,$4,$5,$6,$7,$8,$9,$2,$3,0*
0 Add four circle primitives for the rounded corners*
1,1,$1+$1,$2,$3*
1,1,$1+$1,$4,$5*
1,1,$1+$1,$6,$7*
1,1,$1+$1,$8,$9*
0 Add four rect primitives between the rounded corners*
20,1,$1+$1,$2,$3,$4,$5,0*
20,1,$1+$1,$4,$5,$6,$7,0*
20,1,$1+$1,$6,$7,$8,$9,0*
20,1,$1+$1,$8,$9,$2,$3,0*%
G04 Aperture macros list end*
%TA.AperFunction,ComponentPad*%
%ADD10R,1.700000X1.700000*%
%TD*%
%TA.AperFunction,ComponentPad*%
%ADD11O,1.500000X2.500000*%
%TD*%
%TA.AperFunction,ComponentPad*%
%ADD12O,1.700000X1.700000*%
%TD*%
%TA.AperFunction,ComponentPad*%
%ADD13RoundRect,0.250000X-0.750000X0.600000X-0.750000X-0.600000X0.750000X-0.600000X0.750000X0.600000X0*%
%TD*%
%TA.AperFunction,ComponentPad*%
%ADD14O,2.500000X1.500000*%
%TD*%
%TA.AperFunction,ComponentPad*%
%ADD15RoundRect,0.250000X-1.050000X-0.550000X1.050000X-0.550000X1.050000X0.550000X-1.050000X0.550000X0*%
%TD*%
%TA.AperFunction,ComponentPad*%
%ADD16O,2.600000X1.600000*%
%TD*%
%TA.AperFunction,ComponentPad*%
%ADD17C,2.000000*%
%TD*%
%TA.AperFunction,ComponentPad*%
%ADD18R,1.500000X1.500000*%
%TD*%
%TA.AperFunction,ComponentPad*%
%ADD19C,1.600000*%
%TD*%
%TA.AperFunction,ViaPad*%
%ADD20C,5.000000*%
%TD*%
%TA.AperFunction,ViaPad*%
%ADD21C,6.000000*%
%TD*%
%TA.AperFunction,Conductor*%
%ADD22C,0.200000*%
%TD*%
%ADD23C,0.200000*%
%ADD24C,0.150000*%
%ADD25C,0.254000*%
%ADD26C,0.120000*%
%ADD27C,0.100000*%
%ADD28C,2.000000*%
G04 APERTURE END LIST*
D10*
%TO.P,X-Shut__FR1,1,Pin_1*%
%TO.N,/23*%
X73680000Y-62140000D03*
%TD*%
%TO.P,J2,1,Pin_1*%
%TO.N,/2*%
X116140000Y-111750000D03*
D11*
%TO.P,J2,2,Pin_2*%
%TO.N,/4*%
X113600000Y-111750000D03*
%TO.P,J2,3,Pin_3*%
%TO.N,/18*%
X111060000Y-111750000D03*
%TO.P,J2,4,Pin_4*%
%TO.N,/17*%
X108520000Y-111750000D03*
D12*
%TO.P,J2,5,Pin_5*%
%TO.N,unconnected-(J2-Pin_5-Pad5)*%
X105980000Y-111750000D03*
%TO.P,J2,6,Pin_6*%
%TO.N,unconnected-(J2-Pin_6-Pad6)*%
X103440000Y-111750000D03*
%TD*%
D13*
%TO.P,J4,1,Pin_1*%
%TO.N,Net-(J4-Pin_1)*%
X191750000Y-63900000D03*
D14*
%TO.P,J4,2,Pin_2*%
%TO.N,/4*%
X191750000Y-66400000D03*
%TD*%
D10*
%TO.P,J1,1,Pin_1*%
%TO.N,/2*%
X90180000Y-111700000D03*
D11*
%TO.P,J1,2,Pin_2*%
%TO.N,/4*%
X87640000Y-111700000D03*
%TO.P,J1,3,Pin_3*%
%TO.N,/18*%
X85100000Y-111700000D03*
%TO.P,J1,4,Pin_4*%
%TO.N,/17*%
X82560000Y-111700000D03*
D12*
%TO.P,J1,5,Pin_5*%
%TO.N,unconnected-(J1-Pin_5-Pad5)*%
X80020000Y-111700000D03*
%TO.P,J1,6,Pin_6*%
%TO.N,unconnected-(J1-Pin_6-Pad6)*%
X77480000Y-111700000D03*
%TD*%
D10*
%TO.P,X-Shut_F1,1,Pin_1*%
%TO.N,/6*%
X73440000Y-81360000D03*
%TD*%
%TO.P,J3,1,Pin_1*%
%TO.N,/2*%
X127310000Y-111960000D03*
D12*
%TO.P,J3,2,Pin_2*%
%TO.N,unconnected-(J3-Pin_2-Pad2)*%
X129850000Y-111960000D03*
D11*
%TO.P,J3,3,Pin_3*%
%TO.N,/4*%
X132390000Y-111960000D03*
%TO.P,J3,4,Pin_4*%
%TO.N,/18*%
X134930000Y-111960000D03*
%TO.P,J3,5,Pin_5*%
%TO.N,/17*%
X137470000Y-111960000D03*
D12*
%TO.P,J3,6,Pin_6*%
%TO.N,unconnected-(J3-Pin_6-Pad6)*%
X140010000Y-111960000D03*
%TO.P,J3,7,Pin_7*%
%TO.N,unconnected-(J3-Pin_7-Pad7)*%
X142550000Y-111960000D03*
%TO.P,J3,8,Pin_8*%
%TO.N,unconnected-(J3-Pin_8-Pad8)*%
X145090000Y-111960000D03*
%TO.P,J3,9,Pin_9*%
%TO.N,unconnected-(J3-Pin_9-Pad9)*%
X147630000Y-111960000D03*
%TD*%
D10*
%TO.P,X-Shut_BL1,1,Pin_1*%
%TO.N,/12*%
X183800000Y-112350000D03*
%TD*%
D15*
%TO.P,A1,1,~{RESET}*%
%TO.N,unconnected-(A1-~{RESET}-Pad1)*%
X129840000Y-57270000D03*
D16*
%TO.P,A1,2,3V3*%
%TO.N,/2*%
X129840000Y-59810000D03*
%TO.P,A1,3,NC*%
%TO.N,unconnected-(A1-NC-Pad3)*%
X129840000Y-62350000D03*
%TO.P,A1,4,GND*%
%TO.N,/4*%
X129840000Y-64890000D03*
%TO.P,A1,5,DAC2/A0*%
%TO.N,/5*%
X129840000Y-67430000D03*
%TO.P,A1,6,DAC1/A1*%
%TO.N,/6*%
X129840000Y-69970000D03*
%TO.P,A1,7,I34/A2*%
%TO.N,/7*%
X129840000Y-72510000D03*
%TO.P,A1,8,I39/A3*%
%TO.N,unconnected-(A1-I39{slash}A3-Pad8)*%
X129840000Y-75050000D03*
%TO.P,A1,9,IO36/A4*%
%TO.N,unconnected-(A1-IO36{slash}A4-Pad9)*%
X129840000Y-77590000D03*
%TO.P,A1,10,IO4/A5*%
%TO.N,/10*%
X129840000Y-80130000D03*
%TO.P,A1,11,SCK/IO5*%
%TO.N,/11*%
X129840000Y-82670000D03*
%TO.P,A1,12,MOSI/IO18*%
%TO.N,/12*%
X129840000Y-85210000D03*
%TO.P,A1,13,MISO/IO19*%
%TO.N,unconnected-(A1-MISO{slash}IO19-Pad13)*%
X129840000Y-87750000D03*
%TO.P,A1,14,RX/IO16*%
%TO.N,unconnected-(A1-RX{slash}IO16-Pad14)*%
X129840000Y-90290000D03*
%TO.P,A1,15,TX/IO17*%
%TO.N,unconnected-(A1-TX{slash}IO17-Pad15)*%
X129840000Y-92830000D03*
%TO.P,A1,16,IO21*%
%TO.N,unconnected-(A1-IO21-Pad16)*%
X129840000Y-95370000D03*
%TO.P,A1,17,SDA/IO23*%
%TO.N,/17*%
X149560000Y-95370000D03*
%TO.P,A1,18,SCL/IO22*%
%TO.N,/18*%
X149560000Y-92830000D03*
%TO.P,A1,19,A6/IO14*%
%TO.N,/14*%
X149560000Y-90290000D03*
%TO.P,A1,20,A7/IO32*%
%TO.N,/20*%
X149560000Y-87750000D03*
%TO.P,A1,21,A8/IO15*%
%TO.N,/15*%
X149560000Y-85210000D03*
%TO.P,A1,22,A9/IO33*%
%TO.N,/22*%
X149560000Y-82670000D03*
%TO.P,A1,23,A10/IO27*%
%TO.N,/23*%
X149560000Y-80130000D03*
%TO.P,A1,24,A11/IO12*%
%TO.N,unconnected-(A1-A11{slash}IO12-Pad24)*%
X149560000Y-77590000D03*
%TO.P,A1,25,A12/IO13*%
%TO.N,unconnected-(A1-A12{slash}IO13-Pad25)*%
X149560000Y-75050000D03*
%TO.P,A1,26,USB*%
%TO.N,unconnected-(A1-USB-Pad26)*%
X149560000Y-72510000D03*
%TO.P,A1,27,EN*%
%TO.N,unconnected-(A1-EN-Pad27)*%
X149560000Y-69970000D03*
%TO.P,A1,28,VBAT*%
%TO.N,/28*%
X149560000Y-67430000D03*
%TD*%
D10*
%TO.P,X-Shut_R1,1,Pin_1*%
%TO.N,/22*%
X154130000Y-58850000D03*
%TD*%
%TO.P,J7,1,Pin_1*%
%TO.N,/2*%
X190560000Y-75970000D03*
D14*
%TO.P,J7,2,Pin_2*%
%TO.N,/4*%
X190560000Y-78510000D03*
%TO.P,J7,3,Pin_3*%
%TO.N,/7*%
X190560000Y-81050000D03*
%TO.P,J7,4,Pin_4*%
%TO.N,unconnected-(J7-Pin_4-Pad4)*%
X190560000Y-83590000D03*
%TD*%
D15*
%TO.P,A2,1,~{RESET}*%
%TO.N,unconnected-(A2-~{RESET}-Pad1)*%
X79640000Y-57410000D03*
D16*
%TO.P,A2,2,3V3*%
%TO.N,/2*%
X79640000Y-59950000D03*
%TO.P,A2,3,AREF*%
%TO.N,unconnected-(A2-AREF-Pad3)*%
X79640000Y-62490000D03*
%TO.P,A2,4,GND*%
%TO.N,/4*%
X79640000Y-65030000D03*
%TO.P,A2,5,A0*%
%TO.N,unconnected-(A2-A0-Pad5)*%
X79640000Y-67570000D03*
%TO.P,A2,6,A1*%
%TO.N,unconnected-(A2-A1-Pad6)*%
X79640000Y-70110000D03*
%TO.P,A2,7,A2*%
%TO.N,unconnected-(A2-A2-Pad7)*%
X79640000Y-72650000D03*
%TO.P,A2,8,A3*%
%TO.N,unconnected-(A2-A3-Pad8)*%
X79640000Y-75190000D03*
%TO.P,A2,9,A4*%
%TO.N,unconnected-(A2-A4-Pad9)*%
X79640000Y-77730000D03*
%TO.P,A2,10,A5*%
%TO.N,unconnected-(A2-A5-Pad10)*%
X79640000Y-80270000D03*
%TO.P,A2,11,SCK*%
%TO.N,unconnected-(A2-SCK-Pad11)*%
X79640000Y-82810000D03*
%TO.P,A2,12,MOSI*%
%TO.N,unconnected-(A2-MOSI-Pad12)*%
X79640000Y-85350000D03*
%TO.P,A2,13,MISO*%
%TO.N,unconnected-(A2-MISO-Pad13)*%
X79640000Y-87890000D03*
%TO.P,A2,14,RX*%
%TO.N,unconnected-(A2-RX-Pad14)*%
X79640000Y-90430000D03*
%TO.P,A2,15,TX*%
%TO.N,unconnected-(A2-TX-Pad15)*%
X79640000Y-92970000D03*
%TO.P,A2,16,SPARE*%
%TO.N,unconnected-(A2-SPARE-Pad16)*%
X79640000Y-95510000D03*
%TO.P,A2,17,SDA*%
%TO.N,/15*%
X99360000Y-95510000D03*
%TO.P,A2,18,SCL*%
%TO.N,/14*%
X99360000Y-92970000D03*
%TO.P,A2,19,D0*%
%TO.N,unconnected-(A2-D0-Pad19)*%
X99360000Y-90430000D03*
%TO.P,A2,20,D1*%
%TO.N,unconnected-(A2-D1-Pad20)*%
X99360000Y-87890000D03*
%TO.P,A2,21,D2*%
%TO.N,unconnected-(A2-D2-Pad21)*%
X99360000Y-85350000D03*
%TO.P,A2,22,D3*%
%TO.N,unconnected-(A2-D3-Pad22)*%
X99360000Y-82810000D03*
%TO.P,A2,23,D4*%
%TO.N,unconnected-(A2-D4-Pad23)*%
X99360000Y-80270000D03*
%TO.P,A2,24,D5*%
%TO.N,unconnected-(A2-D5-Pad24)*%
X99360000Y-77730000D03*
%TO.P,A2,25,D6*%
%TO.N,unconnected-(A2-D6-Pad25)*%
X99360000Y-75190000D03*
%TO.P,A2,26,USB*%
%TO.N,unconnected-(A2-USB-Pad26)*%
X99360000Y-72650000D03*
%TO.P,A2,27,EN*%
%TO.N,unconnected-(A2-EN-Pad27)*%
X99360000Y-70110000D03*
%TO.P,A2,28,VBAT*%
%TO.N,unconnected-(A2-VBAT-Pad28)*%
X99360000Y-67570000D03*
%TD*%
D17*
%TO.P,SW3,1,1*%
%TO.N,Net-(J8-Pin_1)*%
X218190000Y-121640000D03*
%TO.P,SW3,2,2*%
X224690000Y-121640000D03*
%TO.P,SW3,3,K*%
%TO.N,Net-(J8-Pin_2)*%
X218190000Y-126140000D03*
%TO.P,SW3,4,A*%
X224690000Y-126140000D03*
%TD*%
D10*
%TO.P,X-Shut_Back1,1,Pin_1*%
%TO.N,/11*%
X191220000Y-92700000D03*
%TD*%
%TO.P,J6,1,Pin_1*%
%TO.N,/K1*%
X216395000Y-114450000D03*
D11*
%TO.P,J6,2,Pin_2*%
%TO.N,/K2*%
X218935000Y-114450000D03*
%TO.P,J6,3,Pin_3*%
%TO.N,/K3*%
X221475000Y-114450000D03*
%TO.P,J6,4,Pin_4*%
%TO.N,/K4*%
X224015000Y-114450000D03*
%TD*%
D10*
%TO.P,J10,1,Pin_1*%
%TO.N,Net-(J10-Pin_1)*%
X231345000Y-114660000D03*
D14*
%TO.P,J10,2,Pin_2*%
%TO.N,Net-(J10-Pin_2)*%
X231345000Y-112120000D03*
%TD*%
D10*
%TO.P,JX-Shut_FL1,1,Pin_1*%
%TO.N,/10*%
X76290000Y-103830000D03*
%TD*%
D18*
%TO.P,SW1,1,B*%
%TO.N,Net-(J4-Pin_1)*%
X195550000Y-64320000D03*
D19*
%TO.P,SW1,2,C*%
%TO.N,unconnected-(SW1-C-Pad2)*%
X195550000Y-61780000D03*
D14*
%TO.P,SW1,3,A*%
%TO.N,/28*%
X195550000Y-66860000D03*
%TD*%
D18*
%TO.P,SW2,1,B*%
%TO.N,Net-(J10-Pin_1)*%
X208495000Y-114430000D03*
D19*
%TO.P,SW2,2,C*%
%TO.N,unconnected-(SW2-C-Pad2)*%
X208495000Y-116970000D03*
D14*
%TO.P,SW2,3,A*%
%TO.N,Net-(J10-Pin_2)*%
X208495000Y-111890000D03*
%TD*%
D10*
%TO.P,X-Shut_BR1,1,Pin_1*%
%TO.N,/5*%
X190590000Y-54270000D03*
%TD*%
%TO.P,X-Shut_LEFT1,1,Pin_1*%
%TO.N,/20*%
X162960000Y-111990000D03*
%TD*%
D15*
%TO.P,A3,1,~{RESET}*%
%TO.N,unconnected-(A3-~{RESET}-Pad1)*%
X104870000Y-57900000D03*
D16*
%TO.P,A3,2,3V3*%
%TO.N,/2*%
X104870000Y-60440000D03*
%TO.P,A3,3,AREF*%
%TO.N,unconnected-(A3-AREF-Pad3)*%
X104870000Y-62980000D03*
%TO.P,A3,4,GND*%
%TO.N,/4*%
X104870000Y-65520000D03*
%TO.P,A3,5,A0*%
%TO.N,unconnected-(A3-A0-Pad5)*%
X104870000Y-68060000D03*
%TO.P,A3,6,A1*%
%TO.N,unconnected-(A3-A1-Pad6)*%
X104870000Y-70600000D03*
%TO.P,A3,7,A2*%
%TO.N,unconnected-(A3-A2-Pad7)*%
X104870000Y-73140000D03*
%TO.P,A3,8,A3*%
%TO.N,unconnected-(A3-A3-Pad8)*%
X104870000Y-75680000D03*
%TO.P,A3,9,A4*%
%TO.N,unconnected-(A3-A4-Pad9)*%
X104870000Y-78220000D03*
%TO.P,A3,10,A5*%
%TO.N,unconnected-(A3-A5-Pad10)*%
X104870000Y-80760000D03*
%TO.P,A3,11,SCK*%
%TO.N,/11*%
X104870000Y-83300000D03*
%TO.P,A3,12,MOSI*%
%TO.N,/12*%
X104870000Y-85840000D03*
%TO.P,A3,13,MISO*%
%TO.N,unconnected-(A3-MISO-Pad13)*%
X104870000Y-88380000D03*
%TO.P,A3,14,RX*%
%TO.N,unconnected-(A3-RX-Pad14)*%
X104870000Y-90920000D03*
%TO.P,A3,15,TX*%
%TO.N,unconnected-(A3-TX-Pad15)*%
X104870000Y-93460000D03*
%TO.P,A3,16,SPARE*%
%TO.N,unconnected-(A3-SPARE-Pad16)*%
X104870000Y-96000000D03*
%TO.P,A3,17,SDA*%
%TO.N,/15*%
X124590000Y-96000000D03*
%TO.P,A3,18,SCL*%
%TO.N,/14*%
X124590000Y-93460000D03*
%TO.P,A3,19,D0*%
%TO.N,unconnected-(A3-D0-Pad19)*%
X124590000Y-90920000D03*
%TO.P,A3,20,D1*%
%TO.N,unconnected-(A3-D1-Pad20)*%
X124590000Y-88380000D03*
%TO.P,A3,21,D2*%
%TO.N,unconnected-(A3-D2-Pad21)*%
X124590000Y-85840000D03*
%TO.P,A3,22,D3*%
%TO.N,unconnected-(A3-D3-Pad22)*%
X124590000Y-83300000D03*
%TO.P,A3,23,D4*%
%TO.N,unconnected-(A3-D4-Pad23)*%
X124590000Y-80760000D03*
%TO.P,A3,24,D5*%
%TO.N,unconnected-(A3-D5-Pad24)*%
X124590000Y-78220000D03*
%TO.P,A3,25,D6*%
%TO.N,unconnected-(A3-D6-Pad25)*%
X124590000Y-75680000D03*
%TO.P,A3,26,USB*%
%TO.N,unconnected-(A3-USB-Pad26)*%
X124590000Y-73140000D03*
%TO.P,A3,27,EN*%
%TO.N,unconnected-(A3-EN-Pad27)*%
X124590000Y-70600000D03*
%TO.P,A3,28,VBAT*%
%TO.N,unconnected-(A3-VBAT-Pad28)*%
X124590000Y-68060000D03*
%TD*%
D10*
%TO.P,J5,1,Pin_1*%
%TO.N,/K1*%
X216355000Y-109780000D03*
D11*
%TO.P,J5,2,Pin_2*%
%TO.N,/K2*%
X218895000Y-109780000D03*
%TO.P,J5,3,Pin_3*%
%TO.N,/K3*%
X221435000Y-109780000D03*
%TO.P,J5,4,Pin_4*%
%TO.N,/K4*%
X223975000Y-109780000D03*
%TD*%
D10*
%TO.P,J8,1,Pin_1*%
%TO.N,Net-(J8-Pin_1)*%
X213595000Y-122210000D03*
D14*
%TO.P,J8,2,Pin_2*%
%TO.N,Net-(J8-Pin_2)*%
X213595000Y-124750000D03*
%TD*%
D20*
%TO.N,*%
X192130000Y-105330000D03*
X207665000Y-125430000D03*
D21*
X115750000Y-105730000D03*
D20*
X195700000Y-125790000D03*
X230845000Y-102390000D03*
X74430000Y-55010000D03*
X74990000Y-88250000D03*
X138230000Y-104820000D03*
X81880000Y-105390000D03*
X207665000Y-102390000D03*
X230715000Y-125430000D03*
X195600000Y-53370000D03*
D21*
X151400000Y-105100000D03*
%TD*%
D22*
%TO.N,/14*%
X99660000Y-92970000D02*
X100450000Y-92180000D01*
X123610000Y-92180000D02*
X124890000Y-93460000D01*
X126800000Y-91550000D02*
X148600000Y-91550000D01*
X124890000Y-93460000D02*
X126800000Y-91550000D01*
X148600000Y-91550000D02*
X149860000Y-90290000D01*
X100450000Y-92180000D02*
X123610000Y-92180000D01*
%TO.N,/22*%
X149860000Y-82670000D02*
X154130000Y-82670000D01*
X154130000Y-82670000D02*
X154130000Y-58850000D01*
%TO.N,/12*%
X129540000Y-85210000D02*
X138190000Y-85210000D01*
X105890000Y-87160000D02*
X127590000Y-87160000D01*
X160301000Y-88851000D02*
X183800000Y-112350000D01*
X138190000Y-85210000D02*
X141831000Y-88851000D01*
X127590000Y-87160000D02*
X129540000Y-85210000D01*
X104570000Y-85840000D02*
X105890000Y-87160000D01*
X141831000Y-88851000D02*
X160301000Y-88851000D01*
%TO.N,/4*%
X190560000Y-78510000D02*
X188840000Y-76790000D01*
X189409000Y-70261000D02*
X190260000Y-69410000D01*
X113600000Y-111750000D02*
X113600000Y-115060000D01*
X104570000Y-65520000D02*
X105200000Y-64890000D01*
X113600000Y-115060000D02*
X114660000Y-116120000D01*
X188840000Y-72739000D02*
X189409000Y-72170000D01*
X87640000Y-111700000D02*
X87640000Y-116420000D01*
X189409000Y-72170000D02*
X189409000Y-70261000D01*
X79340000Y-65030000D02*
X104080000Y-65030000D01*
X93550000Y-116420000D02*
X102050000Y-107920000D01*
X71780000Y-60430000D02*
X71780000Y-119650000D01*
X191750000Y-69410000D02*
X191750000Y-66400000D01*
X141330000Y-119650000D02*
X142200000Y-119650000D01*
X132390000Y-111960000D02*
X135170000Y-109180000D01*
X190260000Y-69410000D02*
X191750000Y-69410000D01*
X188840000Y-76790000D02*
X188840000Y-72739000D01*
X141330000Y-109540000D02*
X141330000Y-119650000D01*
X195860000Y-119650000D02*
X195860000Y-78621000D01*
X140970000Y-109180000D02*
X141330000Y-109540000D01*
X142200000Y-119650000D02*
X195860000Y-119650000D01*
X104080000Y-65030000D02*
X104570000Y-65520000D01*
X109770000Y-107920000D02*
X113600000Y-111750000D01*
X132400000Y-116080000D02*
X132390000Y-116070000D01*
X132390000Y-116070000D02*
X132390000Y-111960000D01*
X195860000Y-78621000D02*
X189409000Y-72170000D01*
X135170000Y-109180000D02*
X140970000Y-109180000D01*
X71780000Y-119650000D02*
X141330000Y-119650000D01*
X87640000Y-116420000D02*
X93550000Y-116420000D01*
X76640000Y-60430000D02*
X71780000Y-60430000D01*
X114660000Y-116120000D02*
X132360000Y-116120000D01*
X76640000Y-65030000D02*
X76640000Y-60430000D01*
X105200000Y-64890000D02*
X129540000Y-64890000D01*
X132360000Y-116120000D02*
X132400000Y-116080000D01*
X79340000Y-65030000D02*
X76640000Y-65030000D01*
X102050000Y-107920000D02*
X109770000Y-107920000D01*
%TO.N,/20*%
X186010000Y-114500000D02*
X165470000Y-114500000D01*
X165470000Y-114500000D02*
X162960000Y-111990000D01*
X186010000Y-109180000D02*
X186010000Y-114500000D01*
X164580000Y-87750000D02*
X186010000Y-109180000D01*
X149860000Y-87750000D02*
X164580000Y-87750000D01*
%TO.N,/11*%
X141671000Y-86311000D02*
X138030000Y-82670000D01*
X127550000Y-84660000D02*
X129540000Y-82670000D01*
X191220000Y-86311000D02*
X141671000Y-86311000D01*
X104570000Y-83300000D02*
X105930000Y-84660000D01*
X191220000Y-92700000D02*
X191220000Y-86311000D01*
X138030000Y-82670000D02*
X129540000Y-82670000D01*
X105930000Y-84660000D02*
X127550000Y-84660000D01*
%TO.N,/6*%
X73440000Y-81360000D02*
X73440000Y-68880000D01*
X102739000Y-69499000D02*
X129069000Y-69499000D01*
X102120000Y-68880000D02*
X102739000Y-69499000D01*
X73440000Y-68880000D02*
X102120000Y-68880000D01*
X129069000Y-69499000D02*
X129540000Y-69970000D01*
%TO.N,/17*%
X82560000Y-111700000D02*
X82560000Y-118380000D01*
X147670000Y-97560000D02*
X149860000Y-95370000D01*
X112950000Y-117630000D02*
X137490000Y-117630000D01*
X137490000Y-117630000D02*
X137510000Y-117610000D01*
X108520000Y-113200000D02*
X112950000Y-117630000D01*
X82560000Y-111700000D02*
X82560000Y-109340000D01*
X82560000Y-118380000D02*
X94687058Y-118380000D01*
X94687058Y-118380000D02*
X103577058Y-109490000D01*
X108520000Y-111750000D02*
X108900000Y-111750000D01*
X103577058Y-109490000D02*
X106260000Y-109490000D01*
X108520000Y-111750000D02*
X108520000Y-113200000D01*
X137510000Y-117610000D02*
X137470000Y-117570000D01*
X137470000Y-117570000D02*
X137470000Y-111960000D01*
X106260000Y-109490000D02*
X108520000Y-111750000D01*
X82560000Y-109340000D02*
X94340000Y-97560000D01*
X94340000Y-97560000D02*
X147670000Y-97560000D01*
%TO.N,/23*%
X127580000Y-71270000D02*
X127580000Y-76310000D01*
X125990000Y-66590000D02*
X128050000Y-68650000D01*
X103913951Y-66621000D02*
X105826049Y-66621000D01*
X73680000Y-66270000D02*
X103562951Y-66270000D01*
X128050000Y-68650000D02*
X131680000Y-68650000D01*
X131680000Y-68650000D02*
X131680000Y-71270000D01*
X138610000Y-76310000D02*
X142430000Y-80130000D01*
X142430000Y-80130000D02*
X149860000Y-80130000D01*
X105857049Y-66590000D02*
X125990000Y-66590000D01*
X103562951Y-66270000D02*
X103913951Y-66621000D01*
X131680000Y-71270000D02*
X127580000Y-71270000D01*
X105826049Y-66621000D02*
X105857049Y-66590000D01*
X73680000Y-62140000D02*
X73680000Y-66270000D01*
X127580000Y-76310000D02*
X138610000Y-76310000D01*
%TO.N,/10*%
X82350000Y-97770000D02*
X82350000Y-78960000D01*
X129069000Y-79659000D02*
X129540000Y-80130000D01*
X101332000Y-78960000D02*
X102031000Y-79659000D01*
X76290000Y-103830000D02*
X82350000Y-97770000D01*
X102031000Y-79659000D02*
X129069000Y-79659000D01*
X82350000Y-78960000D02*
X101332000Y-78960000D01*
%TO.N,/28*%
X194587415Y-57450000D02*
X197590000Y-60452585D01*
X159500000Y-57450000D02*
X194587415Y-57450000D01*
X149860000Y-55800000D02*
X157850000Y-55800000D01*
X197590000Y-60452585D02*
X197590000Y-64320000D01*
X157850000Y-55800000D02*
X159500000Y-57450000D01*
X149860000Y-67430000D02*
X149860000Y-55800000D01*
X195550000Y-66360000D02*
X195550000Y-66860000D01*
X197590000Y-64320000D02*
X195550000Y-66360000D01*
%TO.N,/2*%
X198399000Y-69970000D02*
X193810000Y-69970000D01*
X194931000Y-80341000D02*
X194931000Y-94969000D01*
X128910000Y-60440000D02*
X129540000Y-59810000D01*
X189030000Y-79700000D02*
X194290000Y-79700000D01*
X194575000Y-79985000D02*
X194931000Y-80341000D01*
X92800000Y-115420000D02*
X100990000Y-107230000D01*
X187490000Y-115810000D02*
X152450000Y-115810000D01*
X152450000Y-115810000D02*
X152320000Y-115810000D01*
X192799000Y-52209787D02*
X192799000Y-54530213D01*
X187490000Y-102410000D02*
X187490000Y-115810000D01*
X194931000Y-94969000D02*
X187490000Y-102410000D01*
X193810000Y-69970000D02*
X193810000Y-65170000D01*
X90730000Y-115420000D02*
X92800000Y-115420000D01*
X116140000Y-111750000D02*
X116140000Y-114890000D01*
X152320000Y-112740000D02*
X152320000Y-115810000D01*
X100990000Y-107230000D02*
X111620000Y-107230000D01*
X193810000Y-65170000D02*
X186340000Y-65170000D01*
X104570000Y-60440000D02*
X128910000Y-60440000D01*
X198399000Y-60130213D02*
X198399000Y-69970000D01*
X129540000Y-59810000D02*
X142310000Y-59810000D01*
X194290000Y-79700000D02*
X194575000Y-79985000D01*
X186340000Y-77010000D02*
X189030000Y-79700000D01*
X125644314Y-107700000D02*
X127240000Y-107700000D01*
X79340000Y-59950000D02*
X79830000Y-60440000D01*
X111620000Y-107230000D02*
X116140000Y-111750000D01*
X147280000Y-107700000D02*
X152320000Y-112740000D01*
X191190213Y-50601000D02*
X192799000Y-52209787D01*
X151519000Y-50601000D02*
X191190213Y-50601000D01*
X118334314Y-115010000D02*
X125644314Y-107700000D01*
X192799000Y-54530213D02*
X198399000Y-60130213D01*
X142310000Y-59810000D02*
X151519000Y-50601000D01*
X90180000Y-114870000D02*
X90730000Y-115420000D01*
X116260000Y-115010000D02*
X118334314Y-115010000D01*
X127310000Y-111960000D02*
X127310000Y-107770000D01*
X127240000Y-107700000D02*
X147280000Y-107700000D01*
X186340000Y-65170000D02*
X186340000Y-77010000D01*
X90180000Y-111700000D02*
X90180000Y-114870000D01*
X116140000Y-114890000D02*
X116260000Y-115010000D01*
X190560000Y-75970000D02*
X194575000Y-79985000D01*
X127310000Y-107770000D02*
X127240000Y-107700000D01*
X79830000Y-60440000D02*
X104570000Y-60440000D01*
%TO.N,/18*%
X111060000Y-114225728D02*
X113624272Y-116790000D01*
X85100000Y-111700000D02*
X85100000Y-117320000D01*
X102800000Y-108700000D02*
X108010000Y-108700000D01*
X151630000Y-101011586D02*
X151630000Y-92830000D01*
X111060000Y-111750000D02*
X111060000Y-114225728D01*
X85100000Y-109590000D02*
X93678414Y-101011586D01*
X85100000Y-117320000D02*
X94180000Y-117320000D01*
X134980000Y-116800000D02*
X134930000Y-116750000D01*
X118770000Y-116790000D02*
X118780000Y-116800000D01*
X85100000Y-111700000D02*
X85100000Y-109590000D01*
X108010000Y-108700000D02*
X111060000Y-111750000D01*
X134930000Y-116750000D02*
X134930000Y-111960000D01*
X151630000Y-92830000D02*
X149860000Y-92830000D01*
X118780000Y-116800000D02*
X134980000Y-116800000D01*
X93678414Y-101011586D02*
X151630000Y-101011586D01*
X113624272Y-116790000D02*
X118770000Y-116790000D01*
X94180000Y-117320000D02*
X102800000Y-108700000D01*
%TO.N,/15*%
X99660000Y-95510000D02*
X96700000Y-95510000D01*
X100660000Y-84110000D02*
X102740000Y-82030000D01*
X128390000Y-81380000D02*
X138600000Y-81380000D01*
X127740000Y-82030000D02*
X128390000Y-81380000D01*
X99660000Y-95510000D02*
X100330000Y-94840000D01*
X142430000Y-85210000D02*
X149860000Y-85210000D01*
X102740000Y-82030000D02*
X127740000Y-82030000D01*
X100330000Y-94840000D02*
X123730000Y-94840000D01*
X138600000Y-81380000D02*
X142430000Y-85210000D01*
X96700000Y-84110000D02*
X100660000Y-84110000D01*
X96700000Y-95510000D02*
X96700000Y-84110000D01*
X123730000Y-94840000D02*
X124890000Y-96000000D01*
%TO.N,/7*%
X180250000Y-81050000D02*
X156090000Y-56890000D01*
X151710000Y-71260000D02*
X146950000Y-71260000D01*
X156090000Y-56890000D02*
X151710000Y-56890000D01*
X151710000Y-56890000D02*
X151710000Y-71260000D01*
X145700000Y-72510000D02*
X129540000Y-72510000D01*
X146950000Y-71260000D02*
X145700000Y-72510000D01*
X190560000Y-81050000D02*
X180250000Y-81050000D01*
%TO.N,/5*%
X136860000Y-67430000D02*
X150020000Y-54270000D01*
X150020000Y-54270000D02*
X190590000Y-54270000D01*
X129540000Y-67430000D02*
X136860000Y-67430000D01*
X190510000Y-54350000D02*
X190590000Y-54270000D01*
%TO.N,Net-(J4-Pin_1)*%
X194810000Y-63900000D02*
X191750000Y-63900000D01*
X191870000Y-63780000D02*
X191750000Y-63900000D01*
X195550000Y-64320000D02*
X195230000Y-64320000D01*
X195230000Y-64320000D02*
X194810000Y-63900000D01*
X195130000Y-63900000D02*
X195550000Y-64320000D01*
%TO.N,/K3*%
X221435000Y-114410000D02*
X221475000Y-114450000D01*
X221435000Y-109780000D02*
X221435000Y-114410000D01*
%TO.N,/K2*%
X218895000Y-114410000D02*
X218935000Y-114450000D01*
X218895000Y-109780000D02*
X218895000Y-114410000D01*
%TO.N,/K4*%
X223975000Y-109780000D02*
X223975000Y-114410000D01*
X223975000Y-114410000D02*
X224015000Y-114450000D01*
%TO.N,/K1*%
X216395000Y-109820000D02*
X216355000Y-109780000D01*
X216395000Y-114450000D02*
X216395000Y-109820000D01*
%TO.N,Net-(J8-Pin_1)*%
X214165000Y-121640000D02*
X213595000Y-122210000D01*
X224690000Y-121640000D02*
X218190000Y-121640000D01*
X218190000Y-121640000D02*
X214165000Y-121640000D01*
%TO.N,Net-(J8-Pin_2)*%
X218190000Y-126140000D02*
X224690000Y-126140000D01*
X213595000Y-124750000D02*
X214985000Y-126140000D01*
X214985000Y-126140000D02*
X218190000Y-126140000D01*
%TO.N,Net-(J10-Pin_2)*%
X228350000Y-109125000D02*
X231345000Y-112120000D01*
X214525000Y-105860000D02*
X228350000Y-105860000D01*
X208495000Y-111890000D02*
X214525000Y-105860000D01*
X228350000Y-105860000D02*
X228350000Y-109125000D01*
%TO.N,Net-(J10-Pin_1)*%
X227355000Y-118650000D02*
X212715000Y-118650000D01*
X212715000Y-118650000D02*
X208495000Y-114430000D01*
X231345000Y-114660000D02*
X227355000Y-118650000D01*
%TO.N,unconnected-(J3-Pin_9-Pad9)*%
X148330000Y-111820000D02*
X147280000Y-111820000D01*
%TD*%
D23*
X157150000Y-50970000D02*
X188150000Y-50970000D01*
X188150000Y-100970000D01*
X157150000Y-100970000D01*
X157150000Y-50970000D01*
D24*
X76044819Y-67175714D02*
X77044819Y-66509048D01*
X76044819Y-66509048D02*
X77044819Y-67175714D01*
X76663866Y-66128095D02*
X76663866Y-65366191D01*
X76997200Y-64937619D02*
X77044819Y-64794762D01*
X77044819Y-64794762D02*
X77044819Y-64556667D01*
X77044819Y-64556667D02*
X76997200Y-64461429D01*
X76997200Y-64461429D02*
X76949580Y-64413810D01*
X76949580Y-64413810D02*
X76854342Y-64366191D01*
X76854342Y-64366191D02*
X76759104Y-64366191D01*
X76759104Y-64366191D02*
X76663866Y-64413810D01*
X76663866Y-64413810D02*
X76616247Y-64461429D01*
X76616247Y-64461429D02*
X76568628Y-64556667D01*
X76568628Y-64556667D02*
X76521009Y-64747143D01*
X76521009Y-64747143D02*
X76473390Y-64842381D01*
X76473390Y-64842381D02*
X76425771Y-64890000D01*
X76425771Y-64890000D02*
X76330533Y-64937619D01*
X76330533Y-64937619D02*
X76235295Y-64937619D01*
X76235295Y-64937619D02*
X76140057Y-64890000D01*
X76140057Y-64890000D02*
X76092438Y-64842381D01*
X76092438Y-64842381D02*
X76044819Y-64747143D01*
X76044819Y-64747143D02*
X76044819Y-64509048D01*
X76044819Y-64509048D02*
X76092438Y-64366191D01*
X77044819Y-63937619D02*
X76044819Y-63937619D01*
X77044819Y-63509048D02*
X76521009Y-63509048D01*
X76521009Y-63509048D02*
X76425771Y-63556667D01*
X76425771Y-63556667D02*
X76378152Y-63651905D01*
X76378152Y-63651905D02*
X76378152Y-63794762D01*
X76378152Y-63794762D02*
X76425771Y-63890000D01*
X76425771Y-63890000D02*
X76473390Y-63937619D01*
X76378152Y-62604286D02*
X77044819Y-62604286D01*
X76378152Y-63032857D02*
X76901961Y-63032857D01*
X76901961Y-63032857D02*
X76997200Y-62985238D01*
X76997200Y-62985238D02*
X77044819Y-62890000D01*
X77044819Y-62890000D02*
X77044819Y-62747143D01*
X77044819Y-62747143D02*
X76997200Y-62651905D01*
X76997200Y-62651905D02*
X76949580Y-62604286D01*
X76378152Y-62270952D02*
X76378152Y-61890000D01*
X76044819Y-62128095D02*
X76901961Y-62128095D01*
X76901961Y-62128095D02*
X76997200Y-62080476D01*
X76997200Y-62080476D02*
X77044819Y-61985238D01*
X77044819Y-61985238D02*
X77044819Y-61890000D01*
X77140057Y-61794762D02*
X77140057Y-61032857D01*
X77140057Y-61032857D02*
X77140057Y-60270952D01*
X76521009Y-59699523D02*
X76521009Y-60032856D01*
X77044819Y-60032856D02*
X76044819Y-60032856D01*
X76044819Y-60032856D02*
X76044819Y-59556666D01*
X77044819Y-58604285D02*
X76568628Y-58937618D01*
X77044819Y-59175713D02*
X76044819Y-59175713D01*
X76044819Y-59175713D02*
X76044819Y-58794761D01*
X76044819Y-58794761D02*
X76092438Y-58699523D01*
X76092438Y-58699523D02*
X76140057Y-58651904D01*
X76140057Y-58651904D02*
X76235295Y-58604285D01*
X76235295Y-58604285D02*
X76378152Y-58604285D01*
X76378152Y-58604285D02*
X76473390Y-58651904D01*
X76473390Y-58651904D02*
X76521009Y-58699523D01*
X76521009Y-58699523D02*
X76568628Y-58794761D01*
X76568628Y-58794761D02*
X76568628Y-59175713D01*
X77044819Y-57651904D02*
X77044819Y-58223332D01*
X77044819Y-57937618D02*
X76044819Y-57937618D01*
X76044819Y-57937618D02*
X76187676Y-58032856D01*
X76187676Y-58032856D02*
X76282914Y-58128094D01*
X76282914Y-58128094D02*
X76330533Y-58223332D01*
X118364819Y-112083333D02*
X119079104Y-112083333D01*
X119079104Y-112083333D02*
X119221961Y-112130952D01*
X119221961Y-112130952D02*
X119317200Y-112226190D01*
X119317200Y-112226190D02*
X119364819Y-112369047D01*
X119364819Y-112369047D02*
X119364819Y-112464285D01*
X118460057Y-111654761D02*
X118412438Y-111607142D01*
X118412438Y-111607142D02*
X118364819Y-111511904D01*
X118364819Y-111511904D02*
X118364819Y-111273809D01*
X118364819Y-111273809D02*
X118412438Y-111178571D01*
X118412438Y-111178571D02*
X118460057Y-111130952D01*
X118460057Y-111130952D02*
X118555295Y-111083333D01*
X118555295Y-111083333D02*
X118650533Y-111083333D01*
X118650533Y-111083333D02*
X118793390Y-111130952D01*
X118793390Y-111130952D02*
X119364819Y-111702380D01*
X119364819Y-111702380D02*
X119364819Y-111083333D01*
X189654819Y-65433333D02*
X190369104Y-65433333D01*
X190369104Y-65433333D02*
X190511961Y-65480952D01*
X190511961Y-65480952D02*
X190607200Y-65576190D01*
X190607200Y-65576190D02*
X190654819Y-65719047D01*
X190654819Y-65719047D02*
X190654819Y-65814285D01*
X189988152Y-64528571D02*
X190654819Y-64528571D01*
X189607200Y-64766666D02*
X190321485Y-65004761D01*
X190321485Y-65004761D02*
X190321485Y-64385714D01*
X92404819Y-112033333D02*
X93119104Y-112033333D01*
X93119104Y-112033333D02*
X93261961Y-112080952D01*
X93261961Y-112080952D02*
X93357200Y-112176190D01*
X93357200Y-112176190D02*
X93404819Y-112319047D01*
X93404819Y-112319047D02*
X93404819Y-112414285D01*
X93404819Y-111033333D02*
X93404819Y-111604761D01*
X93404819Y-111319047D02*
X92404819Y-111319047D01*
X92404819Y-111319047D02*
X92547676Y-111414285D01*
X92547676Y-111414285D02*
X92642914Y-111509523D01*
X92642914Y-111509523D02*
X92690533Y-111604761D01*
X75634819Y-84614761D02*
X76634819Y-83948095D01*
X75634819Y-83948095D02*
X76634819Y-84614761D01*
X76253866Y-83567142D02*
X76253866Y-82805238D01*
X76587200Y-82376666D02*
X76634819Y-82233809D01*
X76634819Y-82233809D02*
X76634819Y-81995714D01*
X76634819Y-81995714D02*
X76587200Y-81900476D01*
X76587200Y-81900476D02*
X76539580Y-81852857D01*
X76539580Y-81852857D02*
X76444342Y-81805238D01*
X76444342Y-81805238D02*
X76349104Y-81805238D01*
X76349104Y-81805238D02*
X76253866Y-81852857D01*
X76253866Y-81852857D02*
X76206247Y-81900476D01*
X76206247Y-81900476D02*
X76158628Y-81995714D01*
X76158628Y-81995714D02*
X76111009Y-82186190D01*
X76111009Y-82186190D02*
X76063390Y-82281428D01*
X76063390Y-82281428D02*
X76015771Y-82329047D01*
X76015771Y-82329047D02*
X75920533Y-82376666D01*
X75920533Y-82376666D02*
X75825295Y-82376666D01*
X75825295Y-82376666D02*
X75730057Y-82329047D01*
X75730057Y-82329047D02*
X75682438Y-82281428D01*
X75682438Y-82281428D02*
X75634819Y-82186190D01*
X75634819Y-82186190D02*
X75634819Y-81948095D01*
X75634819Y-81948095D02*
X75682438Y-81805238D01*
X76634819Y-81376666D02*
X75634819Y-81376666D01*
X76634819Y-80948095D02*
X76111009Y-80948095D01*
X76111009Y-80948095D02*
X76015771Y-80995714D01*
X76015771Y-80995714D02*
X75968152Y-81090952D01*
X75968152Y-81090952D02*
X75968152Y-81233809D01*
X75968152Y-81233809D02*
X76015771Y-81329047D01*
X76015771Y-81329047D02*
X76063390Y-81376666D01*
X75968152Y-80043333D02*
X76634819Y-80043333D01*
X75968152Y-80471904D02*
X76491961Y-80471904D01*
X76491961Y-80471904D02*
X76587200Y-80424285D01*
X76587200Y-80424285D02*
X76634819Y-80329047D01*
X76634819Y-80329047D02*
X76634819Y-80186190D01*
X76634819Y-80186190D02*
X76587200Y-80090952D01*
X76587200Y-80090952D02*
X76539580Y-80043333D01*
X75968152Y-79709999D02*
X75968152Y-79329047D01*
X75634819Y-79567142D02*
X76491961Y-79567142D01*
X76491961Y-79567142D02*
X76587200Y-79519523D01*
X76587200Y-79519523D02*
X76634819Y-79424285D01*
X76634819Y-79424285D02*
X76634819Y-79329047D01*
X76730057Y-79233809D02*
X76730057Y-78471904D01*
X76111009Y-77900475D02*
X76111009Y-78233808D01*
X76634819Y-78233808D02*
X75634819Y-78233808D01*
X75634819Y-78233808D02*
X75634819Y-77757618D01*
X76634819Y-76852856D02*
X76634819Y-77424284D01*
X76634819Y-77138570D02*
X75634819Y-77138570D01*
X75634819Y-77138570D02*
X75777676Y-77233808D01*
X75777676Y-77233808D02*
X75872914Y-77329046D01*
X75872914Y-77329046D02*
X75920533Y-77424284D01*
X123994819Y-112293333D02*
X124709104Y-112293333D01*
X124709104Y-112293333D02*
X124851961Y-112340952D01*
X124851961Y-112340952D02*
X124947200Y-112436190D01*
X124947200Y-112436190D02*
X124994819Y-112579047D01*
X124994819Y-112579047D02*
X124994819Y-112674285D01*
X123994819Y-111912380D02*
X123994819Y-111293333D01*
X123994819Y-111293333D02*
X124375771Y-111626666D01*
X124375771Y-111626666D02*
X124375771Y-111483809D01*
X124375771Y-111483809D02*
X124423390Y-111388571D01*
X124423390Y-111388571D02*
X124471009Y-111340952D01*
X124471009Y-111340952D02*
X124566247Y-111293333D01*
X124566247Y-111293333D02*
X124804342Y-111293333D01*
X124804342Y-111293333D02*
X124899580Y-111340952D01*
X124899580Y-111340952D02*
X124947200Y-111388571D01*
X124947200Y-111388571D02*
X124994819Y-111483809D01*
X124994819Y-111483809D02*
X124994819Y-111769523D01*
X124994819Y-111769523D02*
X124947200Y-111864761D01*
X124947200Y-111864761D02*
X124899580Y-111912380D01*
X179419047Y-109474819D02*
X180085713Y-110474819D01*
X180085713Y-109474819D02*
X179419047Y-110474819D01*
X180466666Y-110093866D02*
X181228571Y-110093866D01*
X181657142Y-110427200D02*
X181799999Y-110474819D01*
X181799999Y-110474819D02*
X182038094Y-110474819D01*
X182038094Y-110474819D02*
X182133332Y-110427200D01*
X182133332Y-110427200D02*
X182180951Y-110379580D01*
X182180951Y-110379580D02*
X182228570Y-110284342D01*
X182228570Y-110284342D02*
X182228570Y-110189104D01*
X182228570Y-110189104D02*
X182180951Y-110093866D01*
X182180951Y-110093866D02*
X182133332Y-110046247D01*
X182133332Y-110046247D02*
X182038094Y-109998628D01*
X182038094Y-109998628D02*
X181847618Y-109951009D01*
X181847618Y-109951009D02*
X181752380Y-109903390D01*
X181752380Y-109903390D02*
X181704761Y-109855771D01*
X181704761Y-109855771D02*
X181657142Y-109760533D01*
X181657142Y-109760533D02*
X181657142Y-109665295D01*
X181657142Y-109665295D02*
X181704761Y-109570057D01*
X181704761Y-109570057D02*
X181752380Y-109522438D01*
X181752380Y-109522438D02*
X181847618Y-109474819D01*
X181847618Y-109474819D02*
X182085713Y-109474819D01*
X182085713Y-109474819D02*
X182228570Y-109522438D01*
X182657142Y-110474819D02*
X182657142Y-109474819D01*
X183085713Y-110474819D02*
X183085713Y-109951009D01*
X183085713Y-109951009D02*
X183038094Y-109855771D01*
X183038094Y-109855771D02*
X182942856Y-109808152D01*
X182942856Y-109808152D02*
X182799999Y-109808152D01*
X182799999Y-109808152D02*
X182704761Y-109855771D01*
X182704761Y-109855771D02*
X182657142Y-109903390D01*
X183990475Y-109808152D02*
X183990475Y-110474819D01*
X183561904Y-109808152D02*
X183561904Y-110331961D01*
X183561904Y-110331961D02*
X183609523Y-110427200D01*
X183609523Y-110427200D02*
X183704761Y-110474819D01*
X183704761Y-110474819D02*
X183847618Y-110474819D01*
X183847618Y-110474819D02*
X183942856Y-110427200D01*
X183942856Y-110427200D02*
X183990475Y-110379580D01*
X184323809Y-109808152D02*
X184704761Y-109808152D01*
X184466666Y-109474819D02*
X184466666Y-110331961D01*
X184466666Y-110331961D02*
X184514285Y-110427200D01*
X184514285Y-110427200D02*
X184609523Y-110474819D01*
X184609523Y-110474819D02*
X184704761Y-110474819D01*
X184800000Y-110570057D02*
X185561904Y-110570057D01*
X186133333Y-109951009D02*
X186276190Y-109998628D01*
X186276190Y-109998628D02*
X186323809Y-110046247D01*
X186323809Y-110046247D02*
X186371428Y-110141485D01*
X186371428Y-110141485D02*
X186371428Y-110284342D01*
X186371428Y-110284342D02*
X186323809Y-110379580D01*
X186323809Y-110379580D02*
X186276190Y-110427200D01*
X186276190Y-110427200D02*
X186180952Y-110474819D01*
X186180952Y-110474819D02*
X185800000Y-110474819D01*
X185800000Y-110474819D02*
X185800000Y-109474819D01*
X185800000Y-109474819D02*
X186133333Y-109474819D01*
X186133333Y-109474819D02*
X186228571Y-109522438D01*
X186228571Y-109522438D02*
X186276190Y-109570057D01*
X186276190Y-109570057D02*
X186323809Y-109665295D01*
X186323809Y-109665295D02*
X186323809Y-109760533D01*
X186323809Y-109760533D02*
X186276190Y-109855771D01*
X186276190Y-109855771D02*
X186228571Y-109903390D01*
X186228571Y-109903390D02*
X186133333Y-109951009D01*
X186133333Y-109951009D02*
X185800000Y-109951009D01*
X187276190Y-110474819D02*
X186800000Y-110474819D01*
X186800000Y-110474819D02*
X186800000Y-109474819D01*
X188133333Y-110474819D02*
X187561905Y-110474819D01*
X187847619Y-110474819D02*
X187847619Y-109474819D01*
X187847619Y-109474819D02*
X187752381Y-109617676D01*
X187752381Y-109617676D02*
X187657143Y-109712914D01*
X187657143Y-109712914D02*
X187561905Y-109760533D01*
X140355714Y-54249104D02*
X140831904Y-54249104D01*
X140260476Y-54534819D02*
X140593809Y-53534819D01*
X140593809Y-53534819D02*
X140927142Y-54534819D01*
X141784285Y-54534819D02*
X141212857Y-54534819D01*
X141498571Y-54534819D02*
X141498571Y-53534819D01*
X141498571Y-53534819D02*
X141403333Y-53677676D01*
X141403333Y-53677676D02*
X141308095Y-53772914D01*
X141308095Y-53772914D02*
X141212857Y-53820533D01*
X150153809Y-55974819D02*
X150820475Y-56974819D01*
X150820475Y-55974819D02*
X150153809Y-56974819D01*
X151201428Y-56593866D02*
X151963333Y-56593866D01*
X152391904Y-56927200D02*
X152534761Y-56974819D01*
X152534761Y-56974819D02*
X152772856Y-56974819D01*
X152772856Y-56974819D02*
X152868094Y-56927200D01*
X152868094Y-56927200D02*
X152915713Y-56879580D01*
X152915713Y-56879580D02*
X152963332Y-56784342D01*
X152963332Y-56784342D02*
X152963332Y-56689104D01*
X152963332Y-56689104D02*
X152915713Y-56593866D01*
X152915713Y-56593866D02*
X152868094Y-56546247D01*
X152868094Y-56546247D02*
X152772856Y-56498628D01*
X152772856Y-56498628D02*
X152582380Y-56451009D01*
X152582380Y-56451009D02*
X152487142Y-56403390D01*
X152487142Y-56403390D02*
X152439523Y-56355771D01*
X152439523Y-56355771D02*
X152391904Y-56260533D01*
X152391904Y-56260533D02*
X152391904Y-56165295D01*
X152391904Y-56165295D02*
X152439523Y-56070057D01*
X152439523Y-56070057D02*
X152487142Y-56022438D01*
X152487142Y-56022438D02*
X152582380Y-55974819D01*
X152582380Y-55974819D02*
X152820475Y-55974819D01*
X152820475Y-55974819D02*
X152963332Y-56022438D01*
X153391904Y-56974819D02*
X153391904Y-55974819D01*
X153820475Y-56974819D02*
X153820475Y-56451009D01*
X153820475Y-56451009D02*
X153772856Y-56355771D01*
X153772856Y-56355771D02*
X153677618Y-56308152D01*
X153677618Y-56308152D02*
X153534761Y-56308152D01*
X153534761Y-56308152D02*
X153439523Y-56355771D01*
X153439523Y-56355771D02*
X153391904Y-56403390D01*
X154725237Y-56308152D02*
X154725237Y-56974819D01*
X154296666Y-56308152D02*
X154296666Y-56831961D01*
X154296666Y-56831961D02*
X154344285Y-56927200D01*
X154344285Y-56927200D02*
X154439523Y-56974819D01*
X154439523Y-56974819D02*
X154582380Y-56974819D01*
X154582380Y-56974819D02*
X154677618Y-56927200D01*
X154677618Y-56927200D02*
X154725237Y-56879580D01*
X155058571Y-56308152D02*
X155439523Y-56308152D01*
X155201428Y-55974819D02*
X155201428Y-56831961D01*
X155201428Y-56831961D02*
X155249047Y-56927200D01*
X155249047Y-56927200D02*
X155344285Y-56974819D01*
X155344285Y-56974819D02*
X155439523Y-56974819D01*
X155534762Y-57070057D02*
X156296666Y-57070057D01*
X157106190Y-56974819D02*
X156772857Y-56498628D01*
X156534762Y-56974819D02*
X156534762Y-55974819D01*
X156534762Y-55974819D02*
X156915714Y-55974819D01*
X156915714Y-55974819D02*
X157010952Y-56022438D01*
X157010952Y-56022438D02*
X157058571Y-56070057D01*
X157058571Y-56070057D02*
X157106190Y-56165295D01*
X157106190Y-56165295D02*
X157106190Y-56308152D01*
X157106190Y-56308152D02*
X157058571Y-56403390D01*
X157058571Y-56403390D02*
X157010952Y-56451009D01*
X157010952Y-56451009D02*
X156915714Y-56498628D01*
X156915714Y-56498628D02*
X156534762Y-56498628D01*
X158058571Y-56974819D02*
X157487143Y-56974819D01*
X157772857Y-56974819D02*
X157772857Y-55974819D01*
X157772857Y-55974819D02*
X157677619Y-56117676D01*
X157677619Y-56117676D02*
X157582381Y-56212914D01*
X157582381Y-56212914D02*
X157487143Y-56260533D01*
X190226666Y-73094819D02*
X190226666Y-73809104D01*
X190226666Y-73809104D02*
X190179047Y-73951961D01*
X190179047Y-73951961D02*
X190083809Y-74047200D01*
X190083809Y-74047200D02*
X189940952Y-74094819D01*
X189940952Y-74094819D02*
X189845714Y-74094819D01*
X190607619Y-73094819D02*
X191274285Y-73094819D01*
X191274285Y-73094819D02*
X190845714Y-74094819D01*
X89395714Y-56199104D02*
X89871904Y-56199104D01*
X89300476Y-56484819D02*
X89633809Y-55484819D01*
X89633809Y-55484819D02*
X89967142Y-56484819D01*
X90252857Y-55580057D02*
X90300476Y-55532438D01*
X90300476Y-55532438D02*
X90395714Y-55484819D01*
X90395714Y-55484819D02*
X90633809Y-55484819D01*
X90633809Y-55484819D02*
X90729047Y-55532438D01*
X90729047Y-55532438D02*
X90776666Y-55580057D01*
X90776666Y-55580057D02*
X90824285Y-55675295D01*
X90824285Y-55675295D02*
X90824285Y-55770533D01*
X90824285Y-55770533D02*
X90776666Y-55913390D01*
X90776666Y-55913390D02*
X90205238Y-56484819D01*
X90205238Y-56484819D02*
X90824285Y-56484819D01*
D25*
X219746666Y-124403842D02*
X219928095Y-124464318D01*
X219928095Y-124464318D02*
X220230476Y-124464318D01*
X220230476Y-124464318D02*
X220351428Y-124403842D01*
X220351428Y-124403842D02*
X220411904Y-124343365D01*
X220411904Y-124343365D02*
X220472381Y-124222413D01*
X220472381Y-124222413D02*
X220472381Y-124101461D01*
X220472381Y-124101461D02*
X220411904Y-123980508D01*
X220411904Y-123980508D02*
X220351428Y-123920032D01*
X220351428Y-123920032D02*
X220230476Y-123859556D01*
X220230476Y-123859556D02*
X219988571Y-123799080D01*
X219988571Y-123799080D02*
X219867619Y-123738603D01*
X219867619Y-123738603D02*
X219807142Y-123678127D01*
X219807142Y-123678127D02*
X219746666Y-123557175D01*
X219746666Y-123557175D02*
X219746666Y-123436222D01*
X219746666Y-123436222D02*
X219807142Y-123315270D01*
X219807142Y-123315270D02*
X219867619Y-123254794D01*
X219867619Y-123254794D02*
X219988571Y-123194318D01*
X219988571Y-123194318D02*
X220290952Y-123194318D01*
X220290952Y-123194318D02*
X220472381Y-123254794D01*
X220895714Y-123194318D02*
X221198095Y-124464318D01*
X221198095Y-124464318D02*
X221440000Y-123557175D01*
X221440000Y-123557175D02*
X221681905Y-124464318D01*
X221681905Y-124464318D02*
X221984286Y-123194318D01*
X222347143Y-123194318D02*
X223133334Y-123194318D01*
X223133334Y-123194318D02*
X222710000Y-123678127D01*
X222710000Y-123678127D02*
X222891429Y-123678127D01*
X222891429Y-123678127D02*
X223012381Y-123738603D01*
X223012381Y-123738603D02*
X223072857Y-123799080D01*
X223072857Y-123799080D02*
X223133334Y-123920032D01*
X223133334Y-123920032D02*
X223133334Y-124222413D01*
X223133334Y-124222413D02*
X223072857Y-124343365D01*
X223072857Y-124343365D02*
X223012381Y-124403842D01*
X223012381Y-124403842D02*
X222891429Y-124464318D01*
X222891429Y-124464318D02*
X222528572Y-124464318D01*
X222528572Y-124464318D02*
X222407619Y-124403842D01*
X222407619Y-124403842D02*
X222347143Y-124343365D01*
D24*
X188674819Y-98351904D02*
X189674819Y-97685238D01*
X188674819Y-97685238D02*
X189674819Y-98351904D01*
X189293866Y-97304285D02*
X189293866Y-96542381D01*
X189627200Y-96113809D02*
X189674819Y-95970952D01*
X189674819Y-95970952D02*
X189674819Y-95732857D01*
X189674819Y-95732857D02*
X189627200Y-95637619D01*
X189627200Y-95637619D02*
X189579580Y-95590000D01*
X189579580Y-95590000D02*
X189484342Y-95542381D01*
X189484342Y-95542381D02*
X189389104Y-95542381D01*
X189389104Y-95542381D02*
X189293866Y-95590000D01*
X189293866Y-95590000D02*
X189246247Y-95637619D01*
X189246247Y-95637619D02*
X189198628Y-95732857D01*
X189198628Y-95732857D02*
X189151009Y-95923333D01*
X189151009Y-95923333D02*
X189103390Y-96018571D01*
X189103390Y-96018571D02*
X189055771Y-96066190D01*
X189055771Y-96066190D02*
X188960533Y-96113809D01*
X188960533Y-96113809D02*
X188865295Y-96113809D01*
X188865295Y-96113809D02*
X188770057Y-96066190D01*
X188770057Y-96066190D02*
X188722438Y-96018571D01*
X188722438Y-96018571D02*
X188674819Y-95923333D01*
X188674819Y-95923333D02*
X188674819Y-95685238D01*
X188674819Y-95685238D02*
X188722438Y-95542381D01*
X189674819Y-95113809D02*
X188674819Y-95113809D01*
X189674819Y-94685238D02*
X189151009Y-94685238D01*
X189151009Y-94685238D02*
X189055771Y-94732857D01*
X189055771Y-94732857D02*
X189008152Y-94828095D01*
X189008152Y-94828095D02*
X189008152Y-94970952D01*
X189008152Y-94970952D02*
X189055771Y-95066190D01*
X189055771Y-95066190D02*
X189103390Y-95113809D01*
X189008152Y-93780476D02*
X189674819Y-93780476D01*
X189008152Y-94209047D02*
X189531961Y-94209047D01*
X189531961Y-94209047D02*
X189627200Y-94161428D01*
X189627200Y-94161428D02*
X189674819Y-94066190D01*
X189674819Y-94066190D02*
X189674819Y-93923333D01*
X189674819Y-93923333D02*
X189627200Y-93828095D01*
X189627200Y-93828095D02*
X189579580Y-93780476D01*
X189008152Y-93447142D02*
X189008152Y-93066190D01*
X188674819Y-93304285D02*
X189531961Y-93304285D01*
X189531961Y-93304285D02*
X189627200Y-93256666D01*
X189627200Y-93256666D02*
X189674819Y-93161428D01*
X189674819Y-93161428D02*
X189674819Y-93066190D01*
X189770057Y-92970952D02*
X189770057Y-92209047D01*
X189151009Y-91637618D02*
X189198628Y-91494761D01*
X189198628Y-91494761D02*
X189246247Y-91447142D01*
X189246247Y-91447142D02*
X189341485Y-91399523D01*
X189341485Y-91399523D02*
X189484342Y-91399523D01*
X189484342Y-91399523D02*
X189579580Y-91447142D01*
X189579580Y-91447142D02*
X189627200Y-91494761D01*
X189627200Y-91494761D02*
X189674819Y-91589999D01*
X189674819Y-91589999D02*
X189674819Y-91970951D01*
X189674819Y-91970951D02*
X188674819Y-91970951D01*
X188674819Y-91970951D02*
X188674819Y-91637618D01*
X188674819Y-91637618D02*
X188722438Y-91542380D01*
X188722438Y-91542380D02*
X188770057Y-91494761D01*
X188770057Y-91494761D02*
X188865295Y-91447142D01*
X188865295Y-91447142D02*
X188960533Y-91447142D01*
X188960533Y-91447142D02*
X189055771Y-91494761D01*
X189055771Y-91494761D02*
X189103390Y-91542380D01*
X189103390Y-91542380D02*
X189151009Y-91637618D01*
X189151009Y-91637618D02*
X189151009Y-91970951D01*
X189674819Y-90542380D02*
X189151009Y-90542380D01*
X189151009Y-90542380D02*
X189055771Y-90589999D01*
X189055771Y-90589999D02*
X189008152Y-90685237D01*
X189008152Y-90685237D02*
X189008152Y-90875713D01*
X189008152Y-90875713D02*
X189055771Y-90970951D01*
X189627200Y-90542380D02*
X189674819Y-90637618D01*
X189674819Y-90637618D02*
X189674819Y-90875713D01*
X189674819Y-90875713D02*
X189627200Y-90970951D01*
X189627200Y-90970951D02*
X189531961Y-91018570D01*
X189531961Y-91018570D02*
X189436723Y-91018570D01*
X189436723Y-91018570D02*
X189341485Y-90970951D01*
X189341485Y-90970951D02*
X189293866Y-90875713D01*
X189293866Y-90875713D02*
X189293866Y-90637618D01*
X189293866Y-90637618D02*
X189246247Y-90542380D01*
X189627200Y-89637618D02*
X189674819Y-89732856D01*
X189674819Y-89732856D02*
X189674819Y-89923332D01*
X189674819Y-89923332D02*
X189627200Y-90018570D01*
X189627200Y-90018570D02*
X189579580Y-90066189D01*
X189579580Y-90066189D02*
X189484342Y-90113808D01*
X189484342Y-90113808D02*
X189198628Y-90113808D01*
X189198628Y-90113808D02*
X189103390Y-90066189D01*
X189103390Y-90066189D02*
X189055771Y-90018570D01*
X189055771Y-90018570D02*
X189008152Y-89923332D01*
X189008152Y-89923332D02*
X189008152Y-89732856D01*
X189008152Y-89732856D02*
X189055771Y-89637618D01*
X189674819Y-89209046D02*
X188674819Y-89209046D01*
X189293866Y-89113808D02*
X189674819Y-88828094D01*
X189008152Y-88828094D02*
X189389104Y-89209046D01*
X189674819Y-87875713D02*
X189674819Y-88447141D01*
X189674819Y-88161427D02*
X188674819Y-88161427D01*
X188674819Y-88161427D02*
X188817676Y-88256665D01*
X188817676Y-88256665D02*
X188912914Y-88351903D01*
X188912914Y-88351903D02*
X188960533Y-88447141D01*
X213519819Y-114783333D02*
X214234104Y-114783333D01*
X214234104Y-114783333D02*
X214376961Y-114830952D01*
X214376961Y-114830952D02*
X214472200Y-114926190D01*
X214472200Y-114926190D02*
X214519819Y-115069047D01*
X214519819Y-115069047D02*
X214519819Y-115164285D01*
X213519819Y-113878571D02*
X213519819Y-114069047D01*
X213519819Y-114069047D02*
X213567438Y-114164285D01*
X213567438Y-114164285D02*
X213615057Y-114211904D01*
X213615057Y-114211904D02*
X213757914Y-114307142D01*
X213757914Y-114307142D02*
X213948390Y-114354761D01*
X213948390Y-114354761D02*
X214329342Y-114354761D01*
X214329342Y-114354761D02*
X214424580Y-114307142D01*
X214424580Y-114307142D02*
X214472200Y-114259523D01*
X214472200Y-114259523D02*
X214519819Y-114164285D01*
X214519819Y-114164285D02*
X214519819Y-113973809D01*
X214519819Y-113973809D02*
X214472200Y-113878571D01*
X214472200Y-113878571D02*
X214424580Y-113830952D01*
X214424580Y-113830952D02*
X214329342Y-113783333D01*
X214329342Y-113783333D02*
X214091247Y-113783333D01*
X214091247Y-113783333D02*
X213996009Y-113830952D01*
X213996009Y-113830952D02*
X213948390Y-113878571D01*
X213948390Y-113878571D02*
X213900771Y-113973809D01*
X213900771Y-113973809D02*
X213900771Y-114164285D01*
X213900771Y-114164285D02*
X213948390Y-114259523D01*
X213948390Y-114259523D02*
X213996009Y-114307142D01*
X213996009Y-114307142D02*
X214091247Y-114354761D01*
X230535476Y-116444819D02*
X230535476Y-117159104D01*
X230535476Y-117159104D02*
X230487857Y-117301961D01*
X230487857Y-117301961D02*
X230392619Y-117397200D01*
X230392619Y-117397200D02*
X230249762Y-117444819D01*
X230249762Y-117444819D02*
X230154524Y-117444819D01*
X231535476Y-117444819D02*
X230964048Y-117444819D01*
X231249762Y-117444819D02*
X231249762Y-116444819D01*
X231249762Y-116444819D02*
X231154524Y-116587676D01*
X231154524Y-116587676D02*
X231059286Y-116682914D01*
X231059286Y-116682914D02*
X230964048Y-116730533D01*
X232154524Y-116444819D02*
X232249762Y-116444819D01*
X232249762Y-116444819D02*
X232345000Y-116492438D01*
X232345000Y-116492438D02*
X232392619Y-116540057D01*
X232392619Y-116540057D02*
X232440238Y-116635295D01*
X232440238Y-116635295D02*
X232487857Y-116825771D01*
X232487857Y-116825771D02*
X232487857Y-117063866D01*
X232487857Y-117063866D02*
X232440238Y-117254342D01*
X232440238Y-117254342D02*
X232392619Y-117349580D01*
X232392619Y-117349580D02*
X232345000Y-117397200D01*
X232345000Y-117397200D02*
X232249762Y-117444819D01*
X232249762Y-117444819D02*
X232154524Y-117444819D01*
X232154524Y-117444819D02*
X232059286Y-117397200D01*
X232059286Y-117397200D02*
X232011667Y-117349580D01*
X232011667Y-117349580D02*
X231964048Y-117254342D01*
X231964048Y-117254342D02*
X231916429Y-117063866D01*
X231916429Y-117063866D02*
X231916429Y-116825771D01*
X231916429Y-116825771D02*
X231964048Y-116635295D01*
X231964048Y-116635295D02*
X232011667Y-116540057D01*
X232011667Y-116540057D02*
X232059286Y-116492438D01*
X232059286Y-116492438D02*
X232154524Y-116444819D01*
X78464819Y-107069524D02*
X79179104Y-107069524D01*
X79179104Y-107069524D02*
X79321961Y-107117143D01*
X79321961Y-107117143D02*
X79417200Y-107212381D01*
X79417200Y-107212381D02*
X79464819Y-107355238D01*
X79464819Y-107355238D02*
X79464819Y-107450476D01*
X78464819Y-106688571D02*
X79464819Y-106021905D01*
X78464819Y-106021905D02*
X79464819Y-106688571D01*
X79083866Y-105640952D02*
X79083866Y-104879048D01*
X79417200Y-104450476D02*
X79464819Y-104307619D01*
X79464819Y-104307619D02*
X79464819Y-104069524D01*
X79464819Y-104069524D02*
X79417200Y-103974286D01*
X79417200Y-103974286D02*
X79369580Y-103926667D01*
X79369580Y-103926667D02*
X79274342Y-103879048D01*
X79274342Y-103879048D02*
X79179104Y-103879048D01*
X79179104Y-103879048D02*
X79083866Y-103926667D01*
X79083866Y-103926667D02*
X79036247Y-103974286D01*
X79036247Y-103974286D02*
X78988628Y-104069524D01*
X78988628Y-104069524D02*
X78941009Y-104260000D01*
X78941009Y-104260000D02*
X78893390Y-104355238D01*
X78893390Y-104355238D02*
X78845771Y-104402857D01*
X78845771Y-104402857D02*
X78750533Y-104450476D01*
X78750533Y-104450476D02*
X78655295Y-104450476D01*
X78655295Y-104450476D02*
X78560057Y-104402857D01*
X78560057Y-104402857D02*
X78512438Y-104355238D01*
X78512438Y-104355238D02*
X78464819Y-104260000D01*
X78464819Y-104260000D02*
X78464819Y-104021905D01*
X78464819Y-104021905D02*
X78512438Y-103879048D01*
X79464819Y-103450476D02*
X78464819Y-103450476D01*
X79464819Y-103021905D02*
X78941009Y-103021905D01*
X78941009Y-103021905D02*
X78845771Y-103069524D01*
X78845771Y-103069524D02*
X78798152Y-103164762D01*
X78798152Y-103164762D02*
X78798152Y-103307619D01*
X78798152Y-103307619D02*
X78845771Y-103402857D01*
X78845771Y-103402857D02*
X78893390Y-103450476D01*
X78798152Y-102117143D02*
X79464819Y-102117143D01*
X78798152Y-102545714D02*
X79321961Y-102545714D01*
X79321961Y-102545714D02*
X79417200Y-102498095D01*
X79417200Y-102498095D02*
X79464819Y-102402857D01*
X79464819Y-102402857D02*
X79464819Y-102260000D01*
X79464819Y-102260000D02*
X79417200Y-102164762D01*
X79417200Y-102164762D02*
X79369580Y-102117143D01*
X78798152Y-101783809D02*
X78798152Y-101402857D01*
X78464819Y-101640952D02*
X79321961Y-101640952D01*
X79321961Y-101640952D02*
X79417200Y-101593333D01*
X79417200Y-101593333D02*
X79464819Y-101498095D01*
X79464819Y-101498095D02*
X79464819Y-101402857D01*
X79560057Y-101307619D02*
X79560057Y-100545714D01*
X78941009Y-99974285D02*
X78941009Y-100307618D01*
X79464819Y-100307618D02*
X78464819Y-100307618D01*
X78464819Y-100307618D02*
X78464819Y-99831428D01*
X79464819Y-98974285D02*
X79464819Y-99450475D01*
X79464819Y-99450475D02*
X78464819Y-99450475D01*
X79464819Y-98117142D02*
X79464819Y-98688570D01*
X79464819Y-98402856D02*
X78464819Y-98402856D01*
X78464819Y-98402856D02*
X78607676Y-98498094D01*
X78607676Y-98498094D02*
X78702914Y-98593332D01*
X78702914Y-98593332D02*
X78750533Y-98688570D01*
X198497200Y-65653332D02*
X198544819Y-65510475D01*
X198544819Y-65510475D02*
X198544819Y-65272380D01*
X198544819Y-65272380D02*
X198497200Y-65177142D01*
X198497200Y-65177142D02*
X198449580Y-65129523D01*
X198449580Y-65129523D02*
X198354342Y-65081904D01*
X198354342Y-65081904D02*
X198259104Y-65081904D01*
X198259104Y-65081904D02*
X198163866Y-65129523D01*
X198163866Y-65129523D02*
X198116247Y-65177142D01*
X198116247Y-65177142D02*
X198068628Y-65272380D01*
X198068628Y-65272380D02*
X198021009Y-65462856D01*
X198021009Y-65462856D02*
X197973390Y-65558094D01*
X197973390Y-65558094D02*
X197925771Y-65605713D01*
X197925771Y-65605713D02*
X197830533Y-65653332D01*
X197830533Y-65653332D02*
X197735295Y-65653332D01*
X197735295Y-65653332D02*
X197640057Y-65605713D01*
X197640057Y-65605713D02*
X197592438Y-65558094D01*
X197592438Y-65558094D02*
X197544819Y-65462856D01*
X197544819Y-65462856D02*
X197544819Y-65224761D01*
X197544819Y-65224761D02*
X197592438Y-65081904D01*
X197544819Y-64748570D02*
X198544819Y-64510475D01*
X198544819Y-64510475D02*
X197830533Y-64319999D01*
X197830533Y-64319999D02*
X198544819Y-64129523D01*
X198544819Y-64129523D02*
X197544819Y-63891428D01*
X198544819Y-62986666D02*
X198544819Y-63558094D01*
X198544819Y-63272380D02*
X197544819Y-63272380D01*
X197544819Y-63272380D02*
X197687676Y-63367618D01*
X197687676Y-63367618D02*
X197782914Y-63462856D01*
X197782914Y-63462856D02*
X197830533Y-63558094D01*
X186394819Y-59596190D02*
X187394819Y-58929524D01*
X186394819Y-58929524D02*
X187394819Y-59596190D01*
X187013866Y-58548571D02*
X187013866Y-57786667D01*
X187347200Y-57358095D02*
X187394819Y-57215238D01*
X187394819Y-57215238D02*
X187394819Y-56977143D01*
X187394819Y-56977143D02*
X187347200Y-56881905D01*
X187347200Y-56881905D02*
X187299580Y-56834286D01*
X187299580Y-56834286D02*
X187204342Y-56786667D01*
X187204342Y-56786667D02*
X187109104Y-56786667D01*
X187109104Y-56786667D02*
X187013866Y-56834286D01*
X187013866Y-56834286D02*
X186966247Y-56881905D01*
X186966247Y-56881905D02*
X186918628Y-56977143D01*
X186918628Y-56977143D02*
X186871009Y-57167619D01*
X186871009Y-57167619D02*
X186823390Y-57262857D01*
X186823390Y-57262857D02*
X186775771Y-57310476D01*
X186775771Y-57310476D02*
X186680533Y-57358095D01*
X186680533Y-57358095D02*
X186585295Y-57358095D01*
X186585295Y-57358095D02*
X186490057Y-57310476D01*
X186490057Y-57310476D02*
X186442438Y-57262857D01*
X186442438Y-57262857D02*
X186394819Y-57167619D01*
X186394819Y-57167619D02*
X186394819Y-56929524D01*
X186394819Y-56929524D02*
X186442438Y-56786667D01*
X187394819Y-56358095D02*
X186394819Y-56358095D01*
X187394819Y-55929524D02*
X186871009Y-55929524D01*
X186871009Y-55929524D02*
X186775771Y-55977143D01*
X186775771Y-55977143D02*
X186728152Y-56072381D01*
X186728152Y-56072381D02*
X186728152Y-56215238D01*
X186728152Y-56215238D02*
X186775771Y-56310476D01*
X186775771Y-56310476D02*
X186823390Y-56358095D01*
X186728152Y-55024762D02*
X187394819Y-55024762D01*
X186728152Y-55453333D02*
X187251961Y-55453333D01*
X187251961Y-55453333D02*
X187347200Y-55405714D01*
X187347200Y-55405714D02*
X187394819Y-55310476D01*
X187394819Y-55310476D02*
X187394819Y-55167619D01*
X187394819Y-55167619D02*
X187347200Y-55072381D01*
X187347200Y-55072381D02*
X187299580Y-55024762D01*
X186728152Y-54691428D02*
X186728152Y-54310476D01*
X186394819Y-54548571D02*
X187251961Y-54548571D01*
X187251961Y-54548571D02*
X187347200Y-54500952D01*
X187347200Y-54500952D02*
X187394819Y-54405714D01*
X187394819Y-54405714D02*
X187394819Y-54310476D01*
X187490057Y-54215238D02*
X187490057Y-53453333D01*
X186871009Y-52881904D02*
X186918628Y-52739047D01*
X186918628Y-52739047D02*
X186966247Y-52691428D01*
X186966247Y-52691428D02*
X187061485Y-52643809D01*
X187061485Y-52643809D02*
X187204342Y-52643809D01*
X187204342Y-52643809D02*
X187299580Y-52691428D01*
X187299580Y-52691428D02*
X187347200Y-52739047D01*
X187347200Y-52739047D02*
X187394819Y-52834285D01*
X187394819Y-52834285D02*
X187394819Y-53215237D01*
X187394819Y-53215237D02*
X186394819Y-53215237D01*
X186394819Y-53215237D02*
X186394819Y-52881904D01*
X186394819Y-52881904D02*
X186442438Y-52786666D01*
X186442438Y-52786666D02*
X186490057Y-52739047D01*
X186490057Y-52739047D02*
X186585295Y-52691428D01*
X186585295Y-52691428D02*
X186680533Y-52691428D01*
X186680533Y-52691428D02*
X186775771Y-52739047D01*
X186775771Y-52739047D02*
X186823390Y-52786666D01*
X186823390Y-52786666D02*
X186871009Y-52881904D01*
X186871009Y-52881904D02*
X186871009Y-53215237D01*
X187394819Y-51643809D02*
X186918628Y-51977142D01*
X187394819Y-52215237D02*
X186394819Y-52215237D01*
X186394819Y-52215237D02*
X186394819Y-51834285D01*
X186394819Y-51834285D02*
X186442438Y-51739047D01*
X186442438Y-51739047D02*
X186490057Y-51691428D01*
X186490057Y-51691428D02*
X186585295Y-51643809D01*
X186585295Y-51643809D02*
X186728152Y-51643809D01*
X186728152Y-51643809D02*
X186823390Y-51691428D01*
X186823390Y-51691428D02*
X186871009Y-51739047D01*
X186871009Y-51739047D02*
X186918628Y-51834285D01*
X186918628Y-51834285D02*
X186918628Y-52215237D01*
X187394819Y-50691428D02*
X187394819Y-51262856D01*
X187394819Y-50977142D02*
X186394819Y-50977142D01*
X186394819Y-50977142D02*
X186537676Y-51072380D01*
X186537676Y-51072380D02*
X186632914Y-51167618D01*
X186632914Y-51167618D02*
X186680533Y-51262856D01*
X157817142Y-109114819D02*
X158483808Y-110114819D01*
X158483808Y-109114819D02*
X157817142Y-110114819D01*
X158864761Y-109733866D02*
X159626666Y-109733866D01*
X160055237Y-110067200D02*
X160198094Y-110114819D01*
X160198094Y-110114819D02*
X160436189Y-110114819D01*
X160436189Y-110114819D02*
X160531427Y-110067200D01*
X160531427Y-110067200D02*
X160579046Y-110019580D01*
X160579046Y-110019580D02*
X160626665Y-109924342D01*
X160626665Y-109924342D02*
X160626665Y-109829104D01*
X160626665Y-109829104D02*
X160579046Y-109733866D01*
X160579046Y-109733866D02*
X160531427Y-109686247D01*
X160531427Y-109686247D02*
X160436189Y-109638628D01*
X160436189Y-109638628D02*
X160245713Y-109591009D01*
X160245713Y-109591009D02*
X160150475Y-109543390D01*
X160150475Y-109543390D02*
X160102856Y-109495771D01*
X160102856Y-109495771D02*
X160055237Y-109400533D01*
X160055237Y-109400533D02*
X160055237Y-109305295D01*
X160055237Y-109305295D02*
X160102856Y-109210057D01*
X160102856Y-109210057D02*
X160150475Y-109162438D01*
X160150475Y-109162438D02*
X160245713Y-109114819D01*
X160245713Y-109114819D02*
X160483808Y-109114819D01*
X160483808Y-109114819D02*
X160626665Y-109162438D01*
X161055237Y-110114819D02*
X161055237Y-109114819D01*
X161483808Y-110114819D02*
X161483808Y-109591009D01*
X161483808Y-109591009D02*
X161436189Y-109495771D01*
X161436189Y-109495771D02*
X161340951Y-109448152D01*
X161340951Y-109448152D02*
X161198094Y-109448152D01*
X161198094Y-109448152D02*
X161102856Y-109495771D01*
X161102856Y-109495771D02*
X161055237Y-109543390D01*
X162388570Y-109448152D02*
X162388570Y-110114819D01*
X161959999Y-109448152D02*
X161959999Y-109971961D01*
X161959999Y-109971961D02*
X162007618Y-110067200D01*
X162007618Y-110067200D02*
X162102856Y-110114819D01*
X162102856Y-110114819D02*
X162245713Y-110114819D01*
X162245713Y-110114819D02*
X162340951Y-110067200D01*
X162340951Y-110067200D02*
X162388570Y-110019580D01*
X162721904Y-109448152D02*
X163102856Y-109448152D01*
X162864761Y-109114819D02*
X162864761Y-109971961D01*
X162864761Y-109971961D02*
X162912380Y-110067200D01*
X162912380Y-110067200D02*
X163007618Y-110114819D01*
X163007618Y-110114819D02*
X163102856Y-110114819D01*
X163198095Y-110210057D02*
X163959999Y-110210057D01*
X164674285Y-110114819D02*
X164198095Y-110114819D01*
X164198095Y-110114819D02*
X164198095Y-109114819D01*
X165007619Y-109591009D02*
X165340952Y-109591009D01*
X165483809Y-110114819D02*
X165007619Y-110114819D01*
X165007619Y-110114819D02*
X165007619Y-109114819D01*
X165007619Y-109114819D02*
X165483809Y-109114819D01*
X166245714Y-109591009D02*
X165912381Y-109591009D01*
X165912381Y-110114819D02*
X165912381Y-109114819D01*
X165912381Y-109114819D02*
X166388571Y-109114819D01*
X166626667Y-109114819D02*
X167198095Y-109114819D01*
X166912381Y-110114819D02*
X166912381Y-109114819D01*
X168055238Y-110114819D02*
X167483810Y-110114819D01*
X167769524Y-110114819D02*
X167769524Y-109114819D01*
X167769524Y-109114819D02*
X167674286Y-109257676D01*
X167674286Y-109257676D02*
X167579048Y-109352914D01*
X167579048Y-109352914D02*
X167483810Y-109400533D01*
X113885714Y-55389104D02*
X114361904Y-55389104D01*
X113790476Y-55674819D02*
X114123809Y-54674819D01*
X114123809Y-54674819D02*
X114457142Y-55674819D01*
X114695238Y-54674819D02*
X115314285Y-54674819D01*
X115314285Y-54674819D02*
X114980952Y-55055771D01*
X114980952Y-55055771D02*
X115123809Y-55055771D01*
X115123809Y-55055771D02*
X115219047Y-55103390D01*
X115219047Y-55103390D02*
X115266666Y-55151009D01*
X115266666Y-55151009D02*
X115314285Y-55246247D01*
X115314285Y-55246247D02*
X115314285Y-55484342D01*
X115314285Y-55484342D02*
X115266666Y-55579580D01*
X115266666Y-55579580D02*
X115219047Y-55627200D01*
X115219047Y-55627200D02*
X115123809Y-55674819D01*
X115123809Y-55674819D02*
X114838095Y-55674819D01*
X114838095Y-55674819D02*
X114742857Y-55627200D01*
X114742857Y-55627200D02*
X114695238Y-55579580D01*
X213479819Y-110113333D02*
X214194104Y-110113333D01*
X214194104Y-110113333D02*
X214336961Y-110160952D01*
X214336961Y-110160952D02*
X214432200Y-110256190D01*
X214432200Y-110256190D02*
X214479819Y-110399047D01*
X214479819Y-110399047D02*
X214479819Y-110494285D01*
X213479819Y-109160952D02*
X213479819Y-109637142D01*
X213479819Y-109637142D02*
X213956009Y-109684761D01*
X213956009Y-109684761D02*
X213908390Y-109637142D01*
X213908390Y-109637142D02*
X213860771Y-109541904D01*
X213860771Y-109541904D02*
X213860771Y-109303809D01*
X213860771Y-109303809D02*
X213908390Y-109208571D01*
X213908390Y-109208571D02*
X213956009Y-109160952D01*
X213956009Y-109160952D02*
X214051247Y-109113333D01*
X214051247Y-109113333D02*
X214289342Y-109113333D01*
X214289342Y-109113333D02*
X214384580Y-109160952D01*
X214384580Y-109160952D02*
X214432200Y-109208571D01*
X214432200Y-109208571D02*
X214479819Y-109303809D01*
X214479819Y-109303809D02*
X214479819Y-109541904D01*
X214479819Y-109541904D02*
X214432200Y-109637142D01*
X214432200Y-109637142D02*
X214384580Y-109684761D01*
X213261666Y-119334819D02*
X213261666Y-120049104D01*
X213261666Y-120049104D02*
X213214047Y-120191961D01*
X213214047Y-120191961D02*
X213118809Y-120287200D01*
X213118809Y-120287200D02*
X212975952Y-120334819D01*
X212975952Y-120334819D02*
X212880714Y-120334819D01*
X213880714Y-119763390D02*
X213785476Y-119715771D01*
X213785476Y-119715771D02*
X213737857Y-119668152D01*
X213737857Y-119668152D02*
X213690238Y-119572914D01*
X213690238Y-119572914D02*
X213690238Y-119525295D01*
X213690238Y-119525295D02*
X213737857Y-119430057D01*
X213737857Y-119430057D02*
X213785476Y-119382438D01*
X213785476Y-119382438D02*
X213880714Y-119334819D01*
X213880714Y-119334819D02*
X214071190Y-119334819D01*
X214071190Y-119334819D02*
X214166428Y-119382438D01*
X214166428Y-119382438D02*
X214214047Y-119430057D01*
X214214047Y-119430057D02*
X214261666Y-119525295D01*
X214261666Y-119525295D02*
X214261666Y-119572914D01*
X214261666Y-119572914D02*
X214214047Y-119668152D01*
X214214047Y-119668152D02*
X214166428Y-119715771D01*
X214166428Y-119715771D02*
X214071190Y-119763390D01*
X214071190Y-119763390D02*
X213880714Y-119763390D01*
X213880714Y-119763390D02*
X213785476Y-119811009D01*
X213785476Y-119811009D02*
X213737857Y-119858628D01*
X213737857Y-119858628D02*
X213690238Y-119953866D01*
X213690238Y-119953866D02*
X213690238Y-120144342D01*
X213690238Y-120144342D02*
X213737857Y-120239580D01*
X213737857Y-120239580D02*
X213785476Y-120287200D01*
X213785476Y-120287200D02*
X213880714Y-120334819D01*
X213880714Y-120334819D02*
X214071190Y-120334819D01*
X214071190Y-120334819D02*
X214166428Y-120287200D01*
X214166428Y-120287200D02*
X214214047Y-120239580D01*
X214214047Y-120239580D02*
X214261666Y-120144342D01*
X214261666Y-120144342D02*
X214261666Y-119953866D01*
X214261666Y-119953866D02*
X214214047Y-119858628D01*
X214214047Y-119858628D02*
X214166428Y-119811009D01*
X214166428Y-119811009D02*
X214071190Y-119763390D01*
D26*
%TO.C,X-Shut__FR1*%
X72350000Y-60810000D02*
X73680000Y-60810000D01*
X72350000Y-62140000D02*
X72350000Y-60810000D01*
X72350000Y-63410000D02*
X72350000Y-63470000D01*
X72350000Y-63410000D02*
X75010000Y-63410000D01*
X72350000Y-63470000D02*
X75010000Y-63470000D01*
X75010000Y-63410000D02*
X75010000Y-63470000D01*
%TO.C,J2*%
X102110000Y-110420000D02*
X102110000Y-113080000D01*
X114870000Y-110420000D02*
X102110000Y-110420000D01*
X114870000Y-110420000D02*
X114870000Y-113080000D01*
X114870000Y-113080000D02*
X102110000Y-113080000D01*
X117470000Y-111750000D02*
X117470000Y-113080000D01*
X117470000Y-113080000D02*
X116140000Y-113080000D01*
%TO.C,J4*%
X189140000Y-60990000D02*
X189140000Y-63490000D01*
X189440000Y-61290000D02*
X189440000Y-69010000D01*
X189440000Y-69010000D02*
X193460000Y-69010000D01*
X190940000Y-61290000D02*
X190940000Y-62290000D01*
X190940000Y-62290000D02*
X189440000Y-62290000D01*
X190940000Y-68010000D02*
X189440000Y-68010000D01*
X190940000Y-69010000D02*
X190940000Y-68010000D01*
X191640000Y-60990000D02*
X189140000Y-60990000D01*
X191750000Y-61290000D02*
X191750000Y-61790000D01*
X191750000Y-61790000D02*
X192960000Y-61790000D01*
X191750000Y-68510000D02*
X191750000Y-69010000D01*
X192960000Y-61790000D02*
X192960000Y-68510000D01*
X192960000Y-68510000D02*
X191750000Y-68510000D01*
X193460000Y-61290000D02*
X189440000Y-61290000D01*
X193460000Y-69010000D02*
X193460000Y-61290000D01*
%TO.C,J1*%
X76150000Y-110370000D02*
X76150000Y-113030000D01*
X88910000Y-110370000D02*
X76150000Y-110370000D01*
X88910000Y-110370000D02*
X88910000Y-113030000D01*
X88910000Y-113030000D02*
X76150000Y-113030000D01*
X91510000Y-111700000D02*
X91510000Y-113030000D01*
X91510000Y-113030000D02*
X90180000Y-113030000D01*
%TO.C,X-Shut_F1*%
X72110000Y-80030000D02*
X73440000Y-80030000D01*
X72110000Y-81360000D02*
X72110000Y-80030000D01*
X72110000Y-82630000D02*
X72110000Y-82690000D01*
X72110000Y-82630000D02*
X74770000Y-82630000D01*
X72110000Y-82690000D02*
X74770000Y-82690000D01*
X74770000Y-82630000D02*
X74770000Y-82690000D01*
%TO.C,J3*%
X125980000Y-110630000D02*
X127310000Y-110630000D01*
X125980000Y-111960000D02*
X125980000Y-110630000D01*
X128580000Y-110630000D02*
X148960000Y-110630000D01*
X128580000Y-113290000D02*
X128580000Y-110630000D01*
X128580000Y-113290000D02*
X148960000Y-113290000D01*
X148960000Y-113290000D02*
X148960000Y-110630000D01*
%TO.C,X-Shut_BL1*%
X182470000Y-111020000D02*
X183800000Y-111020000D01*
X182470000Y-112350000D02*
X182470000Y-111020000D01*
X182470000Y-113620000D02*
X182470000Y-113680000D01*
X182470000Y-113620000D02*
X185130000Y-113620000D01*
X182470000Y-113680000D02*
X185130000Y-113680000D01*
X185130000Y-113620000D02*
X185130000Y-113680000D01*
%TO.C,A1*%
X127840000Y-58270000D02*
X127840000Y-56270000D01*
X128160000Y-53460000D02*
X128160000Y-99180000D01*
X148590000Y-50810000D02*
X130810000Y-50810000D01*
X148590000Y-101830000D02*
X130810000Y-101830000D01*
X151240000Y-53460000D02*
X151240000Y-99180000D01*
X128160000Y-53460000D02*
G75*
G02*
X130810000Y-50810000I2650000J0D01*
G01*
X130810000Y-101830000D02*
G75*
G02*
X128160000Y-99180000I0J2650000D01*
G01*
X148590000Y-50810000D02*
G75*
G02*
X151240000Y-53460000I0J-2650000D01*
G01*
X151240000Y-99180000D02*
G75*
G02*
X148590000Y-101830000I-2650000J0D01*
G01*
%TO.C,X-Shut_R1*%
X152800000Y-57520000D02*
X154130000Y-57520000D01*
X152800000Y-58850000D02*
X152800000Y-57520000D01*
X152800000Y-60120000D02*
X152800000Y-60180000D01*
X152800000Y-60120000D02*
X155460000Y-60120000D01*
X152800000Y-60180000D02*
X155460000Y-60180000D01*
X155460000Y-60120000D02*
X155460000Y-60180000D01*
%TO.C,J7*%
X189230000Y-74640000D02*
X190560000Y-74640000D01*
X189230000Y-75970000D02*
X189230000Y-74640000D01*
X189230000Y-77240000D02*
X189230000Y-84920000D01*
X189230000Y-77240000D02*
X191890000Y-77240000D01*
X189230000Y-84920000D02*
X191890000Y-84920000D01*
X191890000Y-77240000D02*
X191890000Y-84920000D01*
%TO.C,A2*%
X77640000Y-58410000D02*
X77640000Y-56410000D01*
X77960000Y-53600000D02*
X77960000Y-99320000D01*
X98390000Y-50950000D02*
X80610000Y-50950000D01*
X98390000Y-101970000D02*
X80610000Y-101970000D01*
X101040000Y-53600000D02*
X101040000Y-99320000D01*
X77960000Y-53600000D02*
G75*
G02*
X80610000Y-50950000I2650000J0D01*
G01*
X80610000Y-101970000D02*
G75*
G02*
X77960000Y-99320000I0J2650000D01*
G01*
X98390000Y-50950000D02*
G75*
G02*
X101040000Y-53600000I0J-2650000D01*
G01*
X101040000Y-99320000D02*
G75*
G02*
X98390000Y-101970000I-2650000J0D01*
G01*
D27*
%TO.C,SW3*%
X216990000Y-121540000D02*
X216990000Y-121540000D01*
X216990000Y-121640000D02*
X216990000Y-121640000D01*
X218440000Y-122690000D02*
X218440000Y-125090000D01*
X219040000Y-120890000D02*
X223840000Y-120890000D01*
X219040000Y-126890000D02*
X223840000Y-126890000D01*
X224440000Y-122690000D02*
X224440000Y-125090000D01*
X216990000Y-121540000D02*
G75*
G02*
X216990000Y-121640000I0J-50000D01*
G01*
X216990000Y-121640000D02*
G75*
G02*
X216990000Y-121540000I0J50000D01*
G01*
D26*
%TO.C,X-Shut_Back1*%
X189890000Y-91370000D02*
X191220000Y-91370000D01*
X189890000Y-92700000D02*
X189890000Y-91370000D01*
X189890000Y-93970000D02*
X189890000Y-94030000D01*
X189890000Y-93970000D02*
X192550000Y-93970000D01*
X189890000Y-94030000D02*
X192550000Y-94030000D01*
X192550000Y-93970000D02*
X192550000Y-94030000D01*
%TO.C,J6*%
X215065000Y-115780000D02*
X215065000Y-114450000D01*
X216395000Y-115780000D02*
X215065000Y-115780000D01*
X217665000Y-113120000D02*
X225345000Y-113120000D01*
X217665000Y-115780000D02*
X217665000Y-113120000D01*
X217665000Y-115780000D02*
X225345000Y-115780000D01*
X225345000Y-115780000D02*
X225345000Y-113120000D01*
%TO.C,J10*%
X230015000Y-113390000D02*
X230015000Y-110790000D01*
X232675000Y-110790000D02*
X230015000Y-110790000D01*
X232675000Y-113390000D02*
X230015000Y-113390000D01*
X232675000Y-113390000D02*
X232675000Y-110790000D01*
X232675000Y-114660000D02*
X232675000Y-115990000D01*
X232675000Y-115990000D02*
X231345000Y-115990000D01*
%TO.C,JX-Shut_FL1*%
X74960000Y-102500000D02*
X76290000Y-102500000D01*
X74960000Y-103830000D02*
X74960000Y-102500000D01*
X74960000Y-105100000D02*
X74960000Y-105160000D01*
X74960000Y-105100000D02*
X77620000Y-105100000D01*
X74960000Y-105160000D02*
X77620000Y-105160000D01*
X77620000Y-105100000D02*
X77620000Y-105160000D01*
%TO.C,SW1*%
X196910000Y-59210000D02*
X194190000Y-59210000D01*
X194190000Y-69430000D01*
X196910000Y-69430000D01*
X196910000Y-59210000D01*
%TO.C,SW2*%
X207135000Y-119540000D02*
X209855000Y-119540000D01*
X209855000Y-109320000D01*
X207135000Y-109320000D01*
X207135000Y-119540000D01*
%TO.C,X-Shut_BR1*%
X189260000Y-52940000D02*
X190590000Y-52940000D01*
X189260000Y-54270000D02*
X189260000Y-52940000D01*
X189260000Y-55540000D02*
X189260000Y-55600000D01*
X189260000Y-55540000D02*
X191920000Y-55540000D01*
X189260000Y-55600000D02*
X191920000Y-55600000D01*
X191920000Y-55540000D02*
X191920000Y-55600000D01*
%TO.C,X-Shut_LEFT1*%
X161630000Y-110660000D02*
X162960000Y-110660000D01*
X161630000Y-111990000D02*
X161630000Y-110660000D01*
X161630000Y-113260000D02*
X161630000Y-113320000D01*
X161630000Y-113260000D02*
X164290000Y-113260000D01*
X161630000Y-113320000D02*
X164290000Y-113320000D01*
X164290000Y-113260000D02*
X164290000Y-113320000D01*
%TO.C,A3*%
X102870000Y-58900000D02*
X102870000Y-56900000D01*
X103190000Y-54090000D02*
X103190000Y-99810000D01*
X123620000Y-51440000D02*
X105840000Y-51440000D01*
X123620000Y-102460000D02*
X105840000Y-102460000D01*
X126270000Y-54090000D02*
X126270000Y-99810000D01*
X103190000Y-54090000D02*
G75*
G02*
X105840000Y-51440000I2650000J0D01*
G01*
X105840000Y-102460000D02*
G75*
G02*
X103190000Y-99810000I0J2650000D01*
G01*
X123620000Y-51440000D02*
G75*
G02*
X126270000Y-54090000I0J-2650000D01*
G01*
X126270000Y-99810000D02*
G75*
G02*
X123620000Y-102460000I-2650000J0D01*
G01*
%TO.C,J5*%
X215025000Y-111110000D02*
X215025000Y-109780000D01*
X216355000Y-111110000D02*
X215025000Y-111110000D01*
X217625000Y-108450000D02*
X225305000Y-108450000D01*
X217625000Y-111110000D02*
X217625000Y-108450000D01*
X217625000Y-111110000D02*
X225305000Y-111110000D01*
X225305000Y-111110000D02*
X225305000Y-108450000D01*
%TO.C,J8*%
X212265000Y-120880000D02*
X213595000Y-120880000D01*
X212265000Y-122210000D02*
X212265000Y-120880000D01*
X212265000Y-123480000D02*
X212265000Y-126080000D01*
X212265000Y-123480000D02*
X214925000Y-123480000D01*
X212265000Y-126080000D02*
X214925000Y-126080000D01*
X214925000Y-123480000D02*
X214925000Y-126080000D01*
%TD*%
D28*
%TO.C,SW3*%
X218190000Y-121640000D03*
X224690000Y-121640000D03*
X218190000Y-126140000D03*
X224690000Y-126140000D03*
%TD*%
M02*
