%TF.GenerationSoftware,KiCad,Pcbnew,9.0.0*%
%TF.CreationDate,2025-04-18T00:29:21+02:00*%
%TF.ProjectId,Omni-X-II-PCB,4f6d6e69-2d58-42d4-9949-2d5043422e6b,rev?*%
%TF.SameCoordinates,Original*%
%TF.FileFunction,Soldermask,Top*%
%TF.FilePolarity,Negative*%
%FSLAX46Y46*%
G04 Gerber Fmt 4.6, Leading zero omitted, Abs format (unit mm)*
G04 Created by KiCad (PCBNEW 9.0.0) date 2025-04-18 00:29:21*
%MOMM*%
%LPD*%
G01*
G04 APERTURE LIST*
G04 Aperture macros list*
%AMRoundRect*
0 Rectangle with rounded corners*
0 $1 Rounding radius*
0 $2 $3 $4 $5 $6 $7 $8 $9 X,Y pos of 4 corners*
0 Add a 4 corners polygon primitive as box body*
4,1,4,$2,$3,$4,$5,$6,$7,$8,$9,$2,$3,0*
0 Add four circle primitives for the rounded corners*
1,1,$1+$1,$2,$3*
1,1,$1+$1,$4,$5*
1,1,$1+$1,$6,$7*
1,1,$1+$1,$8,$9*
0 Add four rect primitives between the rounded corners*
20,1,$1+$1,$2,$3,$4,$5,0*
20,1,$1+$1,$4,$5,$6,$7,0*
20,1,$1+$1,$6,$7,$8,$9,0*
20,1,$1+$1,$8,$9,$2,$3,0*%
G04 Aperture macros list end*
%ADD10R,1.700000X1.700000*%
%ADD11O,1.500000X2.500000*%
%ADD12O,1.700000X1.700000*%
%ADD13RoundRect,0.250000X-0.750000X0.600000X-0.750000X-0.600000X0.750000X-0.600000X0.750000X0.600000X0*%
%ADD14O,2.500000X1.500000*%
%ADD15RoundRect,0.250000X-1.050000X-0.550000X1.050000X-0.550000X1.050000X0.550000X-1.050000X0.550000X0*%
%ADD16O,2.600000X1.600000*%
%ADD17C,2.000000*%
%ADD18R,1.500000X1.500000*%
%ADD19C,1.600000*%
G04 APERTURE END LIST*
D10*
%TO.C,X-Shut__FR1*%
X73680000Y-62140000D03*
%TD*%
%TO.C,J2*%
X116140000Y-111750000D03*
D11*
X113600000Y-111750000D03*
X111060000Y-111750000D03*
X108520000Y-111750000D03*
D12*
X105980000Y-111750000D03*
X103440000Y-111750000D03*
%TD*%
D13*
%TO.C,J4*%
X191750000Y-63900000D03*
D14*
X191750000Y-66400000D03*
%TD*%
D10*
%TO.C,J1*%
X90180000Y-111700000D03*
D11*
X87640000Y-111700000D03*
X85100000Y-111700000D03*
X82560000Y-111700000D03*
D12*
X80020000Y-111700000D03*
X77480000Y-111700000D03*
%TD*%
D10*
%TO.C,X-Shut_F1*%
X73440000Y-81360000D03*
%TD*%
%TO.C,J3*%
X127310000Y-111960000D03*
D12*
X129850000Y-111960000D03*
D11*
X132390000Y-111960000D03*
X134930000Y-111960000D03*
X137470000Y-111960000D03*
D12*
X140010000Y-111960000D03*
X142550000Y-111960000D03*
X145090000Y-111960000D03*
X147630000Y-111960000D03*
%TD*%
D10*
%TO.C,X-Shut_BL1*%
X183800000Y-112350000D03*
%TD*%
D15*
%TO.C,A1*%
X129840000Y-57270000D03*
D16*
X129840000Y-59810000D03*
X129840000Y-62350000D03*
X129840000Y-64890000D03*
X129840000Y-67430000D03*
X129840000Y-69970000D03*
X129840000Y-72510000D03*
X129840000Y-75050000D03*
X129840000Y-77590000D03*
X129840000Y-80130000D03*
X129840000Y-82670000D03*
X129840000Y-85210000D03*
X129840000Y-87750000D03*
X129840000Y-90290000D03*
X129840000Y-92830000D03*
X129840000Y-95370000D03*
X149560000Y-95370000D03*
X149560000Y-92830000D03*
X149560000Y-90290000D03*
X149560000Y-87750000D03*
X149560000Y-85210000D03*
X149560000Y-82670000D03*
X149560000Y-80130000D03*
X149560000Y-77590000D03*
X149560000Y-75050000D03*
X149560000Y-72510000D03*
X149560000Y-69970000D03*
X149560000Y-67430000D03*
%TD*%
D10*
%TO.C,X-Shut_R1*%
X154130000Y-58850000D03*
%TD*%
%TO.C,J7*%
X190560000Y-75970000D03*
D14*
X190560000Y-78510000D03*
X190560000Y-81050000D03*
X190560000Y-83590000D03*
%TD*%
D15*
%TO.C,A2*%
X79640000Y-57410000D03*
D16*
X79640000Y-59950000D03*
X79640000Y-62490000D03*
X79640000Y-65030000D03*
X79640000Y-67570000D03*
X79640000Y-70110000D03*
X79640000Y-72650000D03*
X79640000Y-75190000D03*
X79640000Y-77730000D03*
X79640000Y-80270000D03*
X79640000Y-82810000D03*
X79640000Y-85350000D03*
X79640000Y-87890000D03*
X79640000Y-90430000D03*
X79640000Y-92970000D03*
X79640000Y-95510000D03*
X99360000Y-95510000D03*
X99360000Y-92970000D03*
X99360000Y-90430000D03*
X99360000Y-87890000D03*
X99360000Y-85350000D03*
X99360000Y-82810000D03*
X99360000Y-80270000D03*
X99360000Y-77730000D03*
X99360000Y-75190000D03*
X99360000Y-72650000D03*
X99360000Y-70110000D03*
X99360000Y-67570000D03*
%TD*%
D17*
%TO.C,SW3*%
X218190000Y-121640000D03*
X224690000Y-121640000D03*
X218190000Y-126140000D03*
X224690000Y-126140000D03*
%TD*%
D10*
%TO.C,X-Shut_Back1*%
X191220000Y-92700000D03*
%TD*%
%TO.C,J6*%
X216395000Y-114450000D03*
D11*
X218935000Y-114450000D03*
X221475000Y-114450000D03*
X224015000Y-114450000D03*
%TD*%
D10*
%TO.C,J10*%
X231345000Y-114660000D03*
D14*
X231345000Y-112120000D03*
%TD*%
D10*
%TO.C,JX-Shut_FL1*%
X76290000Y-103830000D03*
%TD*%
D18*
%TO.C,SW1*%
X195550000Y-64320000D03*
D19*
X195550000Y-61780000D03*
D14*
X195550000Y-66860000D03*
%TD*%
D18*
%TO.C,SW2*%
X208495000Y-114430000D03*
D19*
X208495000Y-116970000D03*
D14*
X208495000Y-111890000D03*
%TD*%
D10*
%TO.C,X-Shut_BR1*%
X190590000Y-54270000D03*
%TD*%
%TO.C,X-Shut_LEFT1*%
X162960000Y-111990000D03*
%TD*%
D15*
%TO.C,A3*%
X104870000Y-57900000D03*
D16*
X104870000Y-60440000D03*
X104870000Y-62980000D03*
X104870000Y-65520000D03*
X104870000Y-68060000D03*
X104870000Y-70600000D03*
X104870000Y-73140000D03*
X104870000Y-75680000D03*
X104870000Y-78220000D03*
X104870000Y-80760000D03*
X104870000Y-83300000D03*
X104870000Y-85840000D03*
X104870000Y-88380000D03*
X104870000Y-90920000D03*
X104870000Y-93460000D03*
X104870000Y-96000000D03*
X124590000Y-96000000D03*
X124590000Y-93460000D03*
X124590000Y-90920000D03*
X124590000Y-88380000D03*
X124590000Y-85840000D03*
X124590000Y-83300000D03*
X124590000Y-80760000D03*
X124590000Y-78220000D03*
X124590000Y-75680000D03*
X124590000Y-73140000D03*
X124590000Y-70600000D03*
X124590000Y-68060000D03*
%TD*%
D10*
%TO.C,J5*%
X216355000Y-109780000D03*
D11*
X218895000Y-109780000D03*
X221435000Y-109780000D03*
X223975000Y-109780000D03*
%TD*%
D10*
%TO.C,J8*%
X213595000Y-122210000D03*
D14*
X213595000Y-124750000D03*
%TD*%
M02*
