%TF.GenerationSoftware,KiCad,Pcbnew,9.0.0*%
%TF.CreationDate,2025-04-18T00:29:27+02:00*%
%TF.ProjectId,Omni-X-II-PCB,4f6d6e69-2d58-42d4-9949-2d5043422e6b,rev?*%
%TF.SameCoordinates,Original*%
%TF.FileFunction,Drillmap*%
%TF.FilePolarity,Positive*%
%FSLAX45Y45*%
G04 Gerber Fmt 4.5, Leading zero omitted, Abs format (unit mm)*
G04 Created by KiCad (PCBNEW 9.0.0) date 2025-04-18 00:29:27*
%MOMM*%
%LPD*%
G01*
G04 APERTURE LIST*
%ADD10C,0.200000*%
%ADD11C,0.100000*%
%ADD12C,0.300000*%
%ADD13C,0.490000*%
%ADD14C,0.590000*%
G04 APERTURE END LIST*
D10*
X7000000Y-12600000D02*
X7000000Y-5300000D01*
X7300000Y-12900000D02*
G75*
G02*
X7000000Y-12600000I0J300000D01*
G01*
X7000000Y-5300000D02*
G75*
G02*
X7300000Y-5000000I300000J0D01*
G01*
X23138500Y-9896000D02*
G75*
G02*
X23438500Y-10196000I0J-300000D01*
G01*
X20738500Y-9896000D02*
X23138500Y-9896000D01*
X23438500Y-10196000D02*
X23438500Y-12596000D01*
X20438500Y-12596000D02*
X20438500Y-10196000D01*
X23138500Y-12896000D02*
X20738500Y-12896000D01*
X19900000Y-12600000D02*
G75*
G02*
X19600000Y-12900000I-300000J0D01*
G01*
X19600000Y-12900000D02*
X7300000Y-12900000D01*
X19900000Y-5300000D02*
X19900000Y-12600000D01*
X20438500Y-10196000D02*
G75*
G02*
X20738500Y-9896000I300000J0D01*
G01*
X19600000Y-5000000D02*
G75*
G02*
X19900000Y-5300000I0J-300000D01*
G01*
X23438500Y-12596000D02*
G75*
G02*
X23138500Y-12896000I-300000J0D01*
G01*
X20738500Y-12896000D02*
G75*
G02*
X20438500Y-12596000I0J300000D01*
G01*
X7300000Y-5000000D02*
X19600000Y-5000000D01*
D11*
X19515000Y-6138000D02*
X19595000Y-6218000D01*
X19595000Y-6138000D02*
X19515000Y-6218000D01*
X19515000Y-6392000D02*
X19595000Y-6472000D01*
X19595000Y-6392000D02*
X19515000Y-6472000D01*
X19515000Y-6646000D02*
X19595000Y-6726000D01*
X19595000Y-6646000D02*
X19515000Y-6726000D01*
X20809500Y-11149000D02*
X20889500Y-11229000D01*
X20889500Y-11149000D02*
X20809500Y-11229000D01*
X20809500Y-11403000D02*
X20889500Y-11483000D01*
X20889500Y-11403000D02*
X20809500Y-11483000D01*
X20809500Y-11657000D02*
X20889500Y-11737000D01*
X20889500Y-11657000D02*
X20809500Y-11737000D01*
X7394000Y-8136000D02*
G75*
G02*
X7294000Y-8136000I-50000J0D01*
G01*
X7294000Y-8136000D02*
G75*
G02*
X7394000Y-8136000I50000J0D01*
G01*
X7418000Y-6214000D02*
G75*
G02*
X7318000Y-6214000I-50000J0D01*
G01*
X7318000Y-6214000D02*
G75*
G02*
X7418000Y-6214000I50000J0D01*
G01*
X7679000Y-10383000D02*
G75*
G02*
X7579000Y-10383000I-50000J0D01*
G01*
X7579000Y-10383000D02*
G75*
G02*
X7679000Y-10383000I50000J0D01*
G01*
X7798000Y-11170000D02*
G75*
G02*
X7698000Y-11170000I-50000J0D01*
G01*
X7698000Y-11170000D02*
G75*
G02*
X7798000Y-11170000I50000J0D01*
G01*
X7984000Y-5741000D02*
G75*
G02*
X7884000Y-5741000I-50000J0D01*
G01*
X7884000Y-5741000D02*
G75*
G02*
X7984000Y-5741000I50000J0D01*
G01*
X7984000Y-5995000D02*
G75*
G02*
X7884000Y-5995000I-50000J0D01*
G01*
X7884000Y-5995000D02*
G75*
G02*
X7984000Y-5995000I50000J0D01*
G01*
X7984000Y-6249000D02*
G75*
G02*
X7884000Y-6249000I-50000J0D01*
G01*
X7884000Y-6249000D02*
G75*
G02*
X7984000Y-6249000I50000J0D01*
G01*
X7984000Y-6503000D02*
G75*
G02*
X7884000Y-6503000I-50000J0D01*
G01*
X7884000Y-6503000D02*
G75*
G02*
X7984000Y-6503000I50000J0D01*
G01*
X7984000Y-6757000D02*
G75*
G02*
X7884000Y-6757000I-50000J0D01*
G01*
X7884000Y-6757000D02*
G75*
G02*
X7984000Y-6757000I50000J0D01*
G01*
X7984000Y-7011000D02*
G75*
G02*
X7884000Y-7011000I-50000J0D01*
G01*
X7884000Y-7011000D02*
G75*
G02*
X7984000Y-7011000I50000J0D01*
G01*
X7984000Y-7265000D02*
G75*
G02*
X7884000Y-7265000I-50000J0D01*
G01*
X7884000Y-7265000D02*
G75*
G02*
X7984000Y-7265000I50000J0D01*
G01*
X7984000Y-7519000D02*
G75*
G02*
X7884000Y-7519000I-50000J0D01*
G01*
X7884000Y-7519000D02*
G75*
G02*
X7984000Y-7519000I50000J0D01*
G01*
X7984000Y-7773000D02*
G75*
G02*
X7884000Y-7773000I-50000J0D01*
G01*
X7884000Y-7773000D02*
G75*
G02*
X7984000Y-7773000I50000J0D01*
G01*
X7984000Y-8027000D02*
G75*
G02*
X7884000Y-8027000I-50000J0D01*
G01*
X7884000Y-8027000D02*
G75*
G02*
X7984000Y-8027000I50000J0D01*
G01*
X7984000Y-8281000D02*
G75*
G02*
X7884000Y-8281000I-50000J0D01*
G01*
X7884000Y-8281000D02*
G75*
G02*
X7984000Y-8281000I50000J0D01*
G01*
X7984000Y-8535000D02*
G75*
G02*
X7884000Y-8535000I-50000J0D01*
G01*
X7884000Y-8535000D02*
G75*
G02*
X7984000Y-8535000I50000J0D01*
G01*
X7984000Y-8789000D02*
G75*
G02*
X7884000Y-8789000I-50000J0D01*
G01*
X7884000Y-8789000D02*
G75*
G02*
X7984000Y-8789000I50000J0D01*
G01*
X7984000Y-9043000D02*
G75*
G02*
X7884000Y-9043000I-50000J0D01*
G01*
X7884000Y-9043000D02*
G75*
G02*
X7984000Y-9043000I50000J0D01*
G01*
X7984000Y-9297000D02*
G75*
G02*
X7884000Y-9297000I-50000J0D01*
G01*
X7884000Y-9297000D02*
G75*
G02*
X7984000Y-9297000I50000J0D01*
G01*
X7984000Y-9551000D02*
G75*
G02*
X7884000Y-9551000I-50000J0D01*
G01*
X7884000Y-9551000D02*
G75*
G02*
X7984000Y-9551000I50000J0D01*
G01*
X8052000Y-11170000D02*
G75*
G02*
X7952000Y-11170000I-50000J0D01*
G01*
X7952000Y-11170000D02*
G75*
G02*
X8052000Y-11170000I50000J0D01*
G01*
X8306000Y-11170000D02*
G75*
G02*
X8206000Y-11170000I-50000J0D01*
G01*
X8206000Y-11170000D02*
G75*
G02*
X8306000Y-11170000I50000J0D01*
G01*
X8560000Y-11170000D02*
G75*
G02*
X8460000Y-11170000I-50000J0D01*
G01*
X8460000Y-11170000D02*
G75*
G02*
X8560000Y-11170000I50000J0D01*
G01*
X8814000Y-11170000D02*
G75*
G02*
X8714000Y-11170000I-50000J0D01*
G01*
X8714000Y-11170000D02*
G75*
G02*
X8814000Y-11170000I50000J0D01*
G01*
X9068000Y-11170000D02*
G75*
G02*
X8968000Y-11170000I-50000J0D01*
G01*
X8968000Y-11170000D02*
G75*
G02*
X9068000Y-11170000I50000J0D01*
G01*
X10016000Y-6757000D02*
G75*
G02*
X9916000Y-6757000I-50000J0D01*
G01*
X9916000Y-6757000D02*
G75*
G02*
X10016000Y-6757000I50000J0D01*
G01*
X10016000Y-7011000D02*
G75*
G02*
X9916000Y-7011000I-50000J0D01*
G01*
X9916000Y-7011000D02*
G75*
G02*
X10016000Y-7011000I50000J0D01*
G01*
X10016000Y-7265000D02*
G75*
G02*
X9916000Y-7265000I-50000J0D01*
G01*
X9916000Y-7265000D02*
G75*
G02*
X10016000Y-7265000I50000J0D01*
G01*
X10016000Y-7519000D02*
G75*
G02*
X9916000Y-7519000I-50000J0D01*
G01*
X9916000Y-7519000D02*
G75*
G02*
X10016000Y-7519000I50000J0D01*
G01*
X10016000Y-7773000D02*
G75*
G02*
X9916000Y-7773000I-50000J0D01*
G01*
X9916000Y-7773000D02*
G75*
G02*
X10016000Y-7773000I50000J0D01*
G01*
X10016000Y-8027000D02*
G75*
G02*
X9916000Y-8027000I-50000J0D01*
G01*
X9916000Y-8027000D02*
G75*
G02*
X10016000Y-8027000I50000J0D01*
G01*
X10016000Y-8281000D02*
G75*
G02*
X9916000Y-8281000I-50000J0D01*
G01*
X9916000Y-8281000D02*
G75*
G02*
X10016000Y-8281000I50000J0D01*
G01*
X10016000Y-8535000D02*
G75*
G02*
X9916000Y-8535000I-50000J0D01*
G01*
X9916000Y-8535000D02*
G75*
G02*
X10016000Y-8535000I50000J0D01*
G01*
X10016000Y-8789000D02*
G75*
G02*
X9916000Y-8789000I-50000J0D01*
G01*
X9916000Y-8789000D02*
G75*
G02*
X10016000Y-8789000I50000J0D01*
G01*
X10016000Y-9043000D02*
G75*
G02*
X9916000Y-9043000I-50000J0D01*
G01*
X9916000Y-9043000D02*
G75*
G02*
X10016000Y-9043000I50000J0D01*
G01*
X10016000Y-9297000D02*
G75*
G02*
X9916000Y-9297000I-50000J0D01*
G01*
X9916000Y-9297000D02*
G75*
G02*
X10016000Y-9297000I50000J0D01*
G01*
X10016000Y-9551000D02*
G75*
G02*
X9916000Y-9551000I-50000J0D01*
G01*
X9916000Y-9551000D02*
G75*
G02*
X10016000Y-9551000I50000J0D01*
G01*
X10394000Y-11175000D02*
G75*
G02*
X10294000Y-11175000I-50000J0D01*
G01*
X10294000Y-11175000D02*
G75*
G02*
X10394000Y-11175000I50000J0D01*
G01*
X10507000Y-5790000D02*
G75*
G02*
X10407000Y-5790000I-50000J0D01*
G01*
X10407000Y-5790000D02*
G75*
G02*
X10507000Y-5790000I50000J0D01*
G01*
X10507000Y-6044000D02*
G75*
G02*
X10407000Y-6044000I-50000J0D01*
G01*
X10407000Y-6044000D02*
G75*
G02*
X10507000Y-6044000I50000J0D01*
G01*
X10507000Y-6298000D02*
G75*
G02*
X10407000Y-6298000I-50000J0D01*
G01*
X10407000Y-6298000D02*
G75*
G02*
X10507000Y-6298000I50000J0D01*
G01*
X10507000Y-6552000D02*
G75*
G02*
X10407000Y-6552000I-50000J0D01*
G01*
X10407000Y-6552000D02*
G75*
G02*
X10507000Y-6552000I50000J0D01*
G01*
X10507000Y-6806000D02*
G75*
G02*
X10407000Y-6806000I-50000J0D01*
G01*
X10407000Y-6806000D02*
G75*
G02*
X10507000Y-6806000I50000J0D01*
G01*
X10507000Y-7060000D02*
G75*
G02*
X10407000Y-7060000I-50000J0D01*
G01*
X10407000Y-7060000D02*
G75*
G02*
X10507000Y-7060000I50000J0D01*
G01*
X10507000Y-7314000D02*
G75*
G02*
X10407000Y-7314000I-50000J0D01*
G01*
X10407000Y-7314000D02*
G75*
G02*
X10507000Y-7314000I50000J0D01*
G01*
X10507000Y-7568000D02*
G75*
G02*
X10407000Y-7568000I-50000J0D01*
G01*
X10407000Y-7568000D02*
G75*
G02*
X10507000Y-7568000I50000J0D01*
G01*
X10507000Y-7822000D02*
G75*
G02*
X10407000Y-7822000I-50000J0D01*
G01*
X10407000Y-7822000D02*
G75*
G02*
X10507000Y-7822000I50000J0D01*
G01*
X10507000Y-8076000D02*
G75*
G02*
X10407000Y-8076000I-50000J0D01*
G01*
X10407000Y-8076000D02*
G75*
G02*
X10507000Y-8076000I50000J0D01*
G01*
X10507000Y-8330000D02*
G75*
G02*
X10407000Y-8330000I-50000J0D01*
G01*
X10407000Y-8330000D02*
G75*
G02*
X10507000Y-8330000I50000J0D01*
G01*
X10507000Y-8584000D02*
G75*
G02*
X10407000Y-8584000I-50000J0D01*
G01*
X10407000Y-8584000D02*
G75*
G02*
X10507000Y-8584000I50000J0D01*
G01*
X10507000Y-8838000D02*
G75*
G02*
X10407000Y-8838000I-50000J0D01*
G01*
X10407000Y-8838000D02*
G75*
G02*
X10507000Y-8838000I50000J0D01*
G01*
X10507000Y-9092000D02*
G75*
G02*
X10407000Y-9092000I-50000J0D01*
G01*
X10407000Y-9092000D02*
G75*
G02*
X10507000Y-9092000I50000J0D01*
G01*
X10507000Y-9346000D02*
G75*
G02*
X10407000Y-9346000I-50000J0D01*
G01*
X10407000Y-9346000D02*
G75*
G02*
X10507000Y-9346000I50000J0D01*
G01*
X10507000Y-9600000D02*
G75*
G02*
X10407000Y-9600000I-50000J0D01*
G01*
X10407000Y-9600000D02*
G75*
G02*
X10507000Y-9600000I50000J0D01*
G01*
X10648000Y-11175000D02*
G75*
G02*
X10548000Y-11175000I-50000J0D01*
G01*
X10548000Y-11175000D02*
G75*
G02*
X10648000Y-11175000I50000J0D01*
G01*
X10902000Y-11175000D02*
G75*
G02*
X10802000Y-11175000I-50000J0D01*
G01*
X10802000Y-11175000D02*
G75*
G02*
X10902000Y-11175000I50000J0D01*
G01*
X11156000Y-11175000D02*
G75*
G02*
X11056000Y-11175000I-50000J0D01*
G01*
X11056000Y-11175000D02*
G75*
G02*
X11156000Y-11175000I50000J0D01*
G01*
X11410000Y-11175000D02*
G75*
G02*
X11310000Y-11175000I-50000J0D01*
G01*
X11310000Y-11175000D02*
G75*
G02*
X11410000Y-11175000I50000J0D01*
G01*
X11664000Y-11175000D02*
G75*
G02*
X11564000Y-11175000I-50000J0D01*
G01*
X11564000Y-11175000D02*
G75*
G02*
X11664000Y-11175000I50000J0D01*
G01*
X12539000Y-6806000D02*
G75*
G02*
X12439000Y-6806000I-50000J0D01*
G01*
X12439000Y-6806000D02*
G75*
G02*
X12539000Y-6806000I50000J0D01*
G01*
X12539000Y-7060000D02*
G75*
G02*
X12439000Y-7060000I-50000J0D01*
G01*
X12439000Y-7060000D02*
G75*
G02*
X12539000Y-7060000I50000J0D01*
G01*
X12539000Y-7314000D02*
G75*
G02*
X12439000Y-7314000I-50000J0D01*
G01*
X12439000Y-7314000D02*
G75*
G02*
X12539000Y-7314000I50000J0D01*
G01*
X12539000Y-7568000D02*
G75*
G02*
X12439000Y-7568000I-50000J0D01*
G01*
X12439000Y-7568000D02*
G75*
G02*
X12539000Y-7568000I50000J0D01*
G01*
X12539000Y-7822000D02*
G75*
G02*
X12439000Y-7822000I-50000J0D01*
G01*
X12439000Y-7822000D02*
G75*
G02*
X12539000Y-7822000I50000J0D01*
G01*
X12539000Y-8076000D02*
G75*
G02*
X12439000Y-8076000I-50000J0D01*
G01*
X12439000Y-8076000D02*
G75*
G02*
X12539000Y-8076000I50000J0D01*
G01*
X12539000Y-8330000D02*
G75*
G02*
X12439000Y-8330000I-50000J0D01*
G01*
X12439000Y-8330000D02*
G75*
G02*
X12539000Y-8330000I50000J0D01*
G01*
X12539000Y-8584000D02*
G75*
G02*
X12439000Y-8584000I-50000J0D01*
G01*
X12439000Y-8584000D02*
G75*
G02*
X12539000Y-8584000I50000J0D01*
G01*
X12539000Y-8838000D02*
G75*
G02*
X12439000Y-8838000I-50000J0D01*
G01*
X12439000Y-8838000D02*
G75*
G02*
X12539000Y-8838000I50000J0D01*
G01*
X12539000Y-9092000D02*
G75*
G02*
X12439000Y-9092000I-50000J0D01*
G01*
X12439000Y-9092000D02*
G75*
G02*
X12539000Y-9092000I50000J0D01*
G01*
X12539000Y-9346000D02*
G75*
G02*
X12439000Y-9346000I-50000J0D01*
G01*
X12439000Y-9346000D02*
G75*
G02*
X12539000Y-9346000I50000J0D01*
G01*
X12539000Y-9600000D02*
G75*
G02*
X12439000Y-9600000I-50000J0D01*
G01*
X12439000Y-9600000D02*
G75*
G02*
X12539000Y-9600000I50000J0D01*
G01*
X12781000Y-11196000D02*
G75*
G02*
X12681000Y-11196000I-50000J0D01*
G01*
X12681000Y-11196000D02*
G75*
G02*
X12781000Y-11196000I50000J0D01*
G01*
X13004000Y-5727000D02*
G75*
G02*
X12904000Y-5727000I-50000J0D01*
G01*
X12904000Y-5727000D02*
G75*
G02*
X13004000Y-5727000I50000J0D01*
G01*
X13004000Y-5981000D02*
G75*
G02*
X12904000Y-5981000I-50000J0D01*
G01*
X12904000Y-5981000D02*
G75*
G02*
X13004000Y-5981000I50000J0D01*
G01*
X13004000Y-6235000D02*
G75*
G02*
X12904000Y-6235000I-50000J0D01*
G01*
X12904000Y-6235000D02*
G75*
G02*
X13004000Y-6235000I50000J0D01*
G01*
X13004000Y-6489000D02*
G75*
G02*
X12904000Y-6489000I-50000J0D01*
G01*
X12904000Y-6489000D02*
G75*
G02*
X13004000Y-6489000I50000J0D01*
G01*
X13004000Y-6743000D02*
G75*
G02*
X12904000Y-6743000I-50000J0D01*
G01*
X12904000Y-6743000D02*
G75*
G02*
X13004000Y-6743000I50000J0D01*
G01*
X13004000Y-6997000D02*
G75*
G02*
X12904000Y-6997000I-50000J0D01*
G01*
X12904000Y-6997000D02*
G75*
G02*
X13004000Y-6997000I50000J0D01*
G01*
X13004000Y-7251000D02*
G75*
G02*
X12904000Y-7251000I-50000J0D01*
G01*
X12904000Y-7251000D02*
G75*
G02*
X13004000Y-7251000I50000J0D01*
G01*
X13004000Y-7505000D02*
G75*
G02*
X12904000Y-7505000I-50000J0D01*
G01*
X12904000Y-7505000D02*
G75*
G02*
X13004000Y-7505000I50000J0D01*
G01*
X13004000Y-7759000D02*
G75*
G02*
X12904000Y-7759000I-50000J0D01*
G01*
X12904000Y-7759000D02*
G75*
G02*
X13004000Y-7759000I50000J0D01*
G01*
X13004000Y-8013000D02*
G75*
G02*
X12904000Y-8013000I-50000J0D01*
G01*
X12904000Y-8013000D02*
G75*
G02*
X13004000Y-8013000I50000J0D01*
G01*
X13004000Y-8267000D02*
G75*
G02*
X12904000Y-8267000I-50000J0D01*
G01*
X12904000Y-8267000D02*
G75*
G02*
X13004000Y-8267000I50000J0D01*
G01*
X13004000Y-8521000D02*
G75*
G02*
X12904000Y-8521000I-50000J0D01*
G01*
X12904000Y-8521000D02*
G75*
G02*
X13004000Y-8521000I50000J0D01*
G01*
X13004000Y-8775000D02*
G75*
G02*
X12904000Y-8775000I-50000J0D01*
G01*
X12904000Y-8775000D02*
G75*
G02*
X13004000Y-8775000I50000J0D01*
G01*
X13004000Y-9029000D02*
G75*
G02*
X12904000Y-9029000I-50000J0D01*
G01*
X12904000Y-9029000D02*
G75*
G02*
X13004000Y-9029000I50000J0D01*
G01*
X13004000Y-9283000D02*
G75*
G02*
X12904000Y-9283000I-50000J0D01*
G01*
X12904000Y-9283000D02*
G75*
G02*
X13004000Y-9283000I50000J0D01*
G01*
X13004000Y-9537000D02*
G75*
G02*
X12904000Y-9537000I-50000J0D01*
G01*
X12904000Y-9537000D02*
G75*
G02*
X13004000Y-9537000I50000J0D01*
G01*
X13035000Y-11196000D02*
G75*
G02*
X12935000Y-11196000I-50000J0D01*
G01*
X12935000Y-11196000D02*
G75*
G02*
X13035000Y-11196000I50000J0D01*
G01*
X13289000Y-11196000D02*
G75*
G02*
X13189000Y-11196000I-50000J0D01*
G01*
X13189000Y-11196000D02*
G75*
G02*
X13289000Y-11196000I50000J0D01*
G01*
X13543000Y-11196000D02*
G75*
G02*
X13443000Y-11196000I-50000J0D01*
G01*
X13443000Y-11196000D02*
G75*
G02*
X13543000Y-11196000I50000J0D01*
G01*
X13797000Y-11196000D02*
G75*
G02*
X13697000Y-11196000I-50000J0D01*
G01*
X13697000Y-11196000D02*
G75*
G02*
X13797000Y-11196000I50000J0D01*
G01*
X14051000Y-11196000D02*
G75*
G02*
X13951000Y-11196000I-50000J0D01*
G01*
X13951000Y-11196000D02*
G75*
G02*
X14051000Y-11196000I50000J0D01*
G01*
X14305000Y-11196000D02*
G75*
G02*
X14205000Y-11196000I-50000J0D01*
G01*
X14205000Y-11196000D02*
G75*
G02*
X14305000Y-11196000I50000J0D01*
G01*
X14559000Y-11196000D02*
G75*
G02*
X14459000Y-11196000I-50000J0D01*
G01*
X14459000Y-11196000D02*
G75*
G02*
X14559000Y-11196000I50000J0D01*
G01*
X14813000Y-11196000D02*
G75*
G02*
X14713000Y-11196000I-50000J0D01*
G01*
X14713000Y-11196000D02*
G75*
G02*
X14813000Y-11196000I50000J0D01*
G01*
X15036000Y-6743000D02*
G75*
G02*
X14936000Y-6743000I-50000J0D01*
G01*
X14936000Y-6743000D02*
G75*
G02*
X15036000Y-6743000I50000J0D01*
G01*
X15036000Y-6997000D02*
G75*
G02*
X14936000Y-6997000I-50000J0D01*
G01*
X14936000Y-6997000D02*
G75*
G02*
X15036000Y-6997000I50000J0D01*
G01*
X15036000Y-7251000D02*
G75*
G02*
X14936000Y-7251000I-50000J0D01*
G01*
X14936000Y-7251000D02*
G75*
G02*
X15036000Y-7251000I50000J0D01*
G01*
X15036000Y-7505000D02*
G75*
G02*
X14936000Y-7505000I-50000J0D01*
G01*
X14936000Y-7505000D02*
G75*
G02*
X15036000Y-7505000I50000J0D01*
G01*
X15036000Y-7759000D02*
G75*
G02*
X14936000Y-7759000I-50000J0D01*
G01*
X14936000Y-7759000D02*
G75*
G02*
X15036000Y-7759000I50000J0D01*
G01*
X15036000Y-8013000D02*
G75*
G02*
X14936000Y-8013000I-50000J0D01*
G01*
X14936000Y-8013000D02*
G75*
G02*
X15036000Y-8013000I50000J0D01*
G01*
X15036000Y-8267000D02*
G75*
G02*
X14936000Y-8267000I-50000J0D01*
G01*
X14936000Y-8267000D02*
G75*
G02*
X15036000Y-8267000I50000J0D01*
G01*
X15036000Y-8521000D02*
G75*
G02*
X14936000Y-8521000I-50000J0D01*
G01*
X14936000Y-8521000D02*
G75*
G02*
X15036000Y-8521000I50000J0D01*
G01*
X15036000Y-8775000D02*
G75*
G02*
X14936000Y-8775000I-50000J0D01*
G01*
X14936000Y-8775000D02*
G75*
G02*
X15036000Y-8775000I50000J0D01*
G01*
X15036000Y-9029000D02*
G75*
G02*
X14936000Y-9029000I-50000J0D01*
G01*
X14936000Y-9029000D02*
G75*
G02*
X15036000Y-9029000I50000J0D01*
G01*
X15036000Y-9283000D02*
G75*
G02*
X14936000Y-9283000I-50000J0D01*
G01*
X14936000Y-9283000D02*
G75*
G02*
X15036000Y-9283000I50000J0D01*
G01*
X15036000Y-9537000D02*
G75*
G02*
X14936000Y-9537000I-50000J0D01*
G01*
X14936000Y-9537000D02*
G75*
G02*
X15036000Y-9537000I50000J0D01*
G01*
X15463000Y-5885000D02*
G75*
G02*
X15363000Y-5885000I-50000J0D01*
G01*
X15363000Y-5885000D02*
G75*
G02*
X15463000Y-5885000I50000J0D01*
G01*
X16346000Y-11199000D02*
G75*
G02*
X16246000Y-11199000I-50000J0D01*
G01*
X16246000Y-11199000D02*
G75*
G02*
X16346000Y-11199000I50000J0D01*
G01*
X18430000Y-11235000D02*
G75*
G02*
X18330000Y-11235000I-50000J0D01*
G01*
X18330000Y-11235000D02*
G75*
G02*
X18430000Y-11235000I50000J0D01*
G01*
X19106000Y-7597000D02*
G75*
G02*
X19006000Y-7597000I-50000J0D01*
G01*
X19006000Y-7597000D02*
G75*
G02*
X19106000Y-7597000I50000J0D01*
G01*
X19106000Y-7851000D02*
G75*
G02*
X19006000Y-7851000I-50000J0D01*
G01*
X19006000Y-7851000D02*
G75*
G02*
X19106000Y-7851000I50000J0D01*
G01*
X19106000Y-8105000D02*
G75*
G02*
X19006000Y-8105000I-50000J0D01*
G01*
X19006000Y-8105000D02*
G75*
G02*
X19106000Y-8105000I50000J0D01*
G01*
X19106000Y-8359000D02*
G75*
G02*
X19006000Y-8359000I-50000J0D01*
G01*
X19006000Y-8359000D02*
G75*
G02*
X19106000Y-8359000I50000J0D01*
G01*
X19109000Y-5427000D02*
G75*
G02*
X19009000Y-5427000I-50000J0D01*
G01*
X19009000Y-5427000D02*
G75*
G02*
X19109000Y-5427000I50000J0D01*
G01*
X19172000Y-9270000D02*
G75*
G02*
X19072000Y-9270000I-50000J0D01*
G01*
X19072000Y-9270000D02*
G75*
G02*
X19172000Y-9270000I50000J0D01*
G01*
X19225000Y-6390000D02*
G75*
G02*
X19125000Y-6390000I-50000J0D01*
G01*
X19125000Y-6390000D02*
G75*
G02*
X19225000Y-6390000I50000J0D01*
G01*
X19225000Y-6640000D02*
G75*
G02*
X19125000Y-6640000I-50000J0D01*
G01*
X19125000Y-6640000D02*
G75*
G02*
X19225000Y-6640000I50000J0D01*
G01*
X21409500Y-12221000D02*
G75*
G02*
X21309500Y-12221000I-50000J0D01*
G01*
X21309500Y-12221000D02*
G75*
G02*
X21409500Y-12221000I50000J0D01*
G01*
X21409500Y-12475000D02*
G75*
G02*
X21309500Y-12475000I-50000J0D01*
G01*
X21309500Y-12475000D02*
G75*
G02*
X21409500Y-12475000I50000J0D01*
G01*
X21685500Y-10978000D02*
G75*
G02*
X21585500Y-10978000I-50000J0D01*
G01*
X21585500Y-10978000D02*
G75*
G02*
X21685500Y-10978000I50000J0D01*
G01*
X21689500Y-11445000D02*
G75*
G02*
X21589500Y-11445000I-50000J0D01*
G01*
X21589500Y-11445000D02*
G75*
G02*
X21689500Y-11445000I50000J0D01*
G01*
X21869000Y-12164000D02*
G75*
G02*
X21769000Y-12164000I-50000J0D01*
G01*
X21769000Y-12164000D02*
G75*
G02*
X21869000Y-12164000I50000J0D01*
G01*
X21869000Y-12614000D02*
G75*
G02*
X21769000Y-12614000I-50000J0D01*
G01*
X21769000Y-12614000D02*
G75*
G02*
X21869000Y-12614000I50000J0D01*
G01*
X21939500Y-10978000D02*
G75*
G02*
X21839500Y-10978000I-50000J0D01*
G01*
X21839500Y-10978000D02*
G75*
G02*
X21939500Y-10978000I50000J0D01*
G01*
X21943500Y-11445000D02*
G75*
G02*
X21843500Y-11445000I-50000J0D01*
G01*
X21843500Y-11445000D02*
G75*
G02*
X21943500Y-11445000I50000J0D01*
G01*
X22193500Y-10978000D02*
G75*
G02*
X22093500Y-10978000I-50000J0D01*
G01*
X22093500Y-10978000D02*
G75*
G02*
X22193500Y-10978000I50000J0D01*
G01*
X22197500Y-11445000D02*
G75*
G02*
X22097500Y-11445000I-50000J0D01*
G01*
X22097500Y-11445000D02*
G75*
G02*
X22197500Y-11445000I50000J0D01*
G01*
X22447500Y-10978000D02*
G75*
G02*
X22347500Y-10978000I-50000J0D01*
G01*
X22347500Y-10978000D02*
G75*
G02*
X22447500Y-10978000I50000J0D01*
G01*
X22451500Y-11445000D02*
G75*
G02*
X22351500Y-11445000I-50000J0D01*
G01*
X22351500Y-11445000D02*
G75*
G02*
X22451500Y-11445000I50000J0D01*
G01*
X22519000Y-12164000D02*
G75*
G02*
X22419000Y-12164000I-50000J0D01*
G01*
X22419000Y-12164000D02*
G75*
G02*
X22519000Y-12164000I50000J0D01*
G01*
X22519000Y-12614000D02*
G75*
G02*
X22419000Y-12614000I-50000J0D01*
G01*
X22419000Y-12614000D02*
G75*
G02*
X22519000Y-12614000I50000J0D01*
G01*
X23184500Y-11212000D02*
G75*
G02*
X23084500Y-11212000I-50000J0D01*
G01*
X23084500Y-11212000D02*
G75*
G02*
X23184500Y-11212000I50000J0D01*
G01*
X23184500Y-11466000D02*
G75*
G02*
X23084500Y-11466000I-50000J0D01*
G01*
X23084500Y-11466000D02*
G75*
G02*
X23184500Y-11466000I50000J0D01*
G01*
D12*
X7443000Y-5351000D02*
X7443000Y-5651000D01*
X7293000Y-5501000D02*
X7593000Y-5501000D01*
X7499000Y-8675000D02*
X7499000Y-8975000D01*
X7349000Y-8825000D02*
X7649000Y-8825000D01*
X8188000Y-10389000D02*
X8188000Y-10689000D01*
X8038000Y-10539000D02*
X8338000Y-10539000D01*
X19213000Y-10383000D02*
X19213000Y-10683000D01*
X19063000Y-10533000D02*
X19363000Y-10533000D01*
X19560000Y-5187000D02*
X19560000Y-5487000D01*
X19410000Y-5337000D02*
X19710000Y-5337000D01*
X19570000Y-12429000D02*
X19570000Y-12729000D01*
X19420000Y-12579000D02*
X19720000Y-12579000D01*
X20766500Y-10089000D02*
X20766500Y-10389000D01*
X20616500Y-10239000D02*
X20916500Y-10239000D01*
X20766500Y-12393000D02*
X20766500Y-12693000D01*
X20616500Y-12543000D02*
X20916500Y-12543000D01*
X23071500Y-12393000D02*
X23071500Y-12693000D01*
X22921500Y-12543000D02*
X23221500Y-12543000D01*
X23084500Y-10089000D02*
X23084500Y-10389000D01*
X22934500Y-10239000D02*
X23234500Y-10239000D01*
D13*
X13996243Y-10655243D02*
X13996243Y-10308757D01*
X13649757Y-10308757D01*
X13649757Y-10655243D01*
X13996243Y-10655243D01*
D14*
X11575000Y-10868000D02*
X11870000Y-10573000D01*
X11575000Y-10278000D01*
X11280000Y-10573000D01*
X11575000Y-10868000D01*
X15140000Y-10805000D02*
X15435000Y-10510000D01*
X15140000Y-10215000D01*
X14845000Y-10510000D01*
X15140000Y-10805000D01*
D10*
X7250777Y-13221484D02*
X7250777Y-13021484D01*
X7250777Y-13021484D02*
X7298396Y-13021484D01*
X7298396Y-13021484D02*
X7326967Y-13031008D01*
X7326967Y-13031008D02*
X7346015Y-13050055D01*
X7346015Y-13050055D02*
X7355539Y-13069103D01*
X7355539Y-13069103D02*
X7365062Y-13107198D01*
X7365062Y-13107198D02*
X7365062Y-13135769D01*
X7365062Y-13135769D02*
X7355539Y-13173865D01*
X7355539Y-13173865D02*
X7346015Y-13192912D01*
X7346015Y-13192912D02*
X7326967Y-13211960D01*
X7326967Y-13211960D02*
X7298396Y-13221484D01*
X7298396Y-13221484D02*
X7250777Y-13221484D01*
X7450777Y-13221484D02*
X7450777Y-13088150D01*
X7450777Y-13126246D02*
X7460301Y-13107198D01*
X7460301Y-13107198D02*
X7469824Y-13097674D01*
X7469824Y-13097674D02*
X7488872Y-13088150D01*
X7488872Y-13088150D02*
X7507920Y-13088150D01*
X7574586Y-13221484D02*
X7574586Y-13088150D01*
X7574586Y-13021484D02*
X7565062Y-13031008D01*
X7565062Y-13031008D02*
X7574586Y-13040531D01*
X7574586Y-13040531D02*
X7584110Y-13031008D01*
X7584110Y-13031008D02*
X7574586Y-13021484D01*
X7574586Y-13021484D02*
X7574586Y-13040531D01*
X7698396Y-13221484D02*
X7679348Y-13211960D01*
X7679348Y-13211960D02*
X7669824Y-13192912D01*
X7669824Y-13192912D02*
X7669824Y-13021484D01*
X7803158Y-13221484D02*
X7784110Y-13211960D01*
X7784110Y-13211960D02*
X7774586Y-13192912D01*
X7774586Y-13192912D02*
X7774586Y-13021484D01*
X8031729Y-13221484D02*
X8031729Y-13021484D01*
X8031729Y-13021484D02*
X8098396Y-13164341D01*
X8098396Y-13164341D02*
X8165062Y-13021484D01*
X8165062Y-13021484D02*
X8165062Y-13221484D01*
X8346015Y-13221484D02*
X8346015Y-13116722D01*
X8346015Y-13116722D02*
X8336491Y-13097674D01*
X8336491Y-13097674D02*
X8317443Y-13088150D01*
X8317443Y-13088150D02*
X8279348Y-13088150D01*
X8279348Y-13088150D02*
X8260301Y-13097674D01*
X8346015Y-13211960D02*
X8326967Y-13221484D01*
X8326967Y-13221484D02*
X8279348Y-13221484D01*
X8279348Y-13221484D02*
X8260301Y-13211960D01*
X8260301Y-13211960D02*
X8250777Y-13192912D01*
X8250777Y-13192912D02*
X8250777Y-13173865D01*
X8250777Y-13173865D02*
X8260301Y-13154817D01*
X8260301Y-13154817D02*
X8279348Y-13145293D01*
X8279348Y-13145293D02*
X8326967Y-13145293D01*
X8326967Y-13145293D02*
X8346015Y-13135769D01*
X8441253Y-13088150D02*
X8441253Y-13288150D01*
X8441253Y-13097674D02*
X8460301Y-13088150D01*
X8460301Y-13088150D02*
X8498396Y-13088150D01*
X8498396Y-13088150D02*
X8517444Y-13097674D01*
X8517444Y-13097674D02*
X8526967Y-13107198D01*
X8526967Y-13107198D02*
X8536491Y-13126246D01*
X8536491Y-13126246D02*
X8536491Y-13183388D01*
X8536491Y-13183388D02*
X8526967Y-13202436D01*
X8526967Y-13202436D02*
X8517444Y-13211960D01*
X8517444Y-13211960D02*
X8498396Y-13221484D01*
X8498396Y-13221484D02*
X8460301Y-13221484D01*
X8460301Y-13221484D02*
X8441253Y-13211960D01*
X8622205Y-13202436D02*
X8631729Y-13211960D01*
X8631729Y-13211960D02*
X8622205Y-13221484D01*
X8622205Y-13221484D02*
X8612682Y-13211960D01*
X8612682Y-13211960D02*
X8622205Y-13202436D01*
X8622205Y-13202436D02*
X8622205Y-13221484D01*
X8622205Y-13097674D02*
X8631729Y-13107198D01*
X8631729Y-13107198D02*
X8622205Y-13116722D01*
X8622205Y-13116722D02*
X8612682Y-13107198D01*
X8612682Y-13107198D02*
X8622205Y-13097674D01*
X8622205Y-13097674D02*
X8622205Y-13116722D01*
D11*
X6910000Y-13510000D02*
X6990000Y-13590000D01*
X6990000Y-13510000D02*
X6910000Y-13590000D01*
D10*
X7288872Y-13441484D02*
X7307920Y-13441484D01*
X7307920Y-13441484D02*
X7326967Y-13451008D01*
X7326967Y-13451008D02*
X7336491Y-13460531D01*
X7336491Y-13460531D02*
X7346015Y-13479579D01*
X7346015Y-13479579D02*
X7355539Y-13517674D01*
X7355539Y-13517674D02*
X7355539Y-13565293D01*
X7355539Y-13565293D02*
X7346015Y-13603388D01*
X7346015Y-13603388D02*
X7336491Y-13622436D01*
X7336491Y-13622436D02*
X7326967Y-13631960D01*
X7326967Y-13631960D02*
X7307920Y-13641484D01*
X7307920Y-13641484D02*
X7288872Y-13641484D01*
X7288872Y-13641484D02*
X7269824Y-13631960D01*
X7269824Y-13631960D02*
X7260301Y-13622436D01*
X7260301Y-13622436D02*
X7250777Y-13603388D01*
X7250777Y-13603388D02*
X7241253Y-13565293D01*
X7241253Y-13565293D02*
X7241253Y-13517674D01*
X7241253Y-13517674D02*
X7250777Y-13479579D01*
X7250777Y-13479579D02*
X7260301Y-13460531D01*
X7260301Y-13460531D02*
X7269824Y-13451008D01*
X7269824Y-13451008D02*
X7288872Y-13441484D01*
X7441253Y-13622436D02*
X7450777Y-13631960D01*
X7450777Y-13631960D02*
X7441253Y-13641484D01*
X7441253Y-13641484D02*
X7431729Y-13631960D01*
X7431729Y-13631960D02*
X7441253Y-13622436D01*
X7441253Y-13622436D02*
X7441253Y-13641484D01*
X7565062Y-13527198D02*
X7546015Y-13517674D01*
X7546015Y-13517674D02*
X7536491Y-13508150D01*
X7536491Y-13508150D02*
X7526967Y-13489103D01*
X7526967Y-13489103D02*
X7526967Y-13479579D01*
X7526967Y-13479579D02*
X7536491Y-13460531D01*
X7536491Y-13460531D02*
X7546015Y-13451008D01*
X7546015Y-13451008D02*
X7565062Y-13441484D01*
X7565062Y-13441484D02*
X7603158Y-13441484D01*
X7603158Y-13441484D02*
X7622205Y-13451008D01*
X7622205Y-13451008D02*
X7631729Y-13460531D01*
X7631729Y-13460531D02*
X7641253Y-13479579D01*
X7641253Y-13479579D02*
X7641253Y-13489103D01*
X7641253Y-13489103D02*
X7631729Y-13508150D01*
X7631729Y-13508150D02*
X7622205Y-13517674D01*
X7622205Y-13517674D02*
X7603158Y-13527198D01*
X7603158Y-13527198D02*
X7565062Y-13527198D01*
X7565062Y-13527198D02*
X7546015Y-13536722D01*
X7546015Y-13536722D02*
X7536491Y-13546246D01*
X7536491Y-13546246D02*
X7526967Y-13565293D01*
X7526967Y-13565293D02*
X7526967Y-13603388D01*
X7526967Y-13603388D02*
X7536491Y-13622436D01*
X7536491Y-13622436D02*
X7546015Y-13631960D01*
X7546015Y-13631960D02*
X7565062Y-13641484D01*
X7565062Y-13641484D02*
X7603158Y-13641484D01*
X7603158Y-13641484D02*
X7622205Y-13631960D01*
X7622205Y-13631960D02*
X7631729Y-13622436D01*
X7631729Y-13622436D02*
X7641253Y-13603388D01*
X7641253Y-13603388D02*
X7641253Y-13565293D01*
X7641253Y-13565293D02*
X7631729Y-13546246D01*
X7631729Y-13546246D02*
X7622205Y-13536722D01*
X7622205Y-13536722D02*
X7603158Y-13527198D01*
X7765062Y-13441484D02*
X7784110Y-13441484D01*
X7784110Y-13441484D02*
X7803158Y-13451008D01*
X7803158Y-13451008D02*
X7812682Y-13460531D01*
X7812682Y-13460531D02*
X7822205Y-13479579D01*
X7822205Y-13479579D02*
X7831729Y-13517674D01*
X7831729Y-13517674D02*
X7831729Y-13565293D01*
X7831729Y-13565293D02*
X7822205Y-13603388D01*
X7822205Y-13603388D02*
X7812682Y-13622436D01*
X7812682Y-13622436D02*
X7803158Y-13631960D01*
X7803158Y-13631960D02*
X7784110Y-13641484D01*
X7784110Y-13641484D02*
X7765062Y-13641484D01*
X7765062Y-13641484D02*
X7746015Y-13631960D01*
X7746015Y-13631960D02*
X7736491Y-13622436D01*
X7736491Y-13622436D02*
X7726967Y-13603388D01*
X7726967Y-13603388D02*
X7717443Y-13565293D01*
X7717443Y-13565293D02*
X7717443Y-13517674D01*
X7717443Y-13517674D02*
X7726967Y-13479579D01*
X7726967Y-13479579D02*
X7736491Y-13460531D01*
X7736491Y-13460531D02*
X7746015Y-13451008D01*
X7746015Y-13451008D02*
X7765062Y-13441484D01*
X7955539Y-13441484D02*
X7974586Y-13441484D01*
X7974586Y-13441484D02*
X7993634Y-13451008D01*
X7993634Y-13451008D02*
X8003158Y-13460531D01*
X8003158Y-13460531D02*
X8012682Y-13479579D01*
X8012682Y-13479579D02*
X8022205Y-13517674D01*
X8022205Y-13517674D02*
X8022205Y-13565293D01*
X8022205Y-13565293D02*
X8012682Y-13603388D01*
X8012682Y-13603388D02*
X8003158Y-13622436D01*
X8003158Y-13622436D02*
X7993634Y-13631960D01*
X7993634Y-13631960D02*
X7974586Y-13641484D01*
X7974586Y-13641484D02*
X7955539Y-13641484D01*
X7955539Y-13641484D02*
X7936491Y-13631960D01*
X7936491Y-13631960D02*
X7926967Y-13622436D01*
X7926967Y-13622436D02*
X7917443Y-13603388D01*
X7917443Y-13603388D02*
X7907920Y-13565293D01*
X7907920Y-13565293D02*
X7907920Y-13517674D01*
X7907920Y-13517674D02*
X7917443Y-13479579D01*
X7917443Y-13479579D02*
X7926967Y-13460531D01*
X7926967Y-13460531D02*
X7936491Y-13451008D01*
X7936491Y-13451008D02*
X7955539Y-13441484D01*
X8107920Y-13641484D02*
X8107920Y-13508150D01*
X8107920Y-13527198D02*
X8117443Y-13517674D01*
X8117443Y-13517674D02*
X8136491Y-13508150D01*
X8136491Y-13508150D02*
X8165063Y-13508150D01*
X8165063Y-13508150D02*
X8184110Y-13517674D01*
X8184110Y-13517674D02*
X8193634Y-13536722D01*
X8193634Y-13536722D02*
X8193634Y-13641484D01*
X8193634Y-13536722D02*
X8203158Y-13517674D01*
X8203158Y-13517674D02*
X8222205Y-13508150D01*
X8222205Y-13508150D02*
X8250777Y-13508150D01*
X8250777Y-13508150D02*
X8269824Y-13517674D01*
X8269824Y-13517674D02*
X8279348Y-13536722D01*
X8279348Y-13536722D02*
X8279348Y-13641484D01*
X8374586Y-13641484D02*
X8374586Y-13508150D01*
X8374586Y-13527198D02*
X8384110Y-13517674D01*
X8384110Y-13517674D02*
X8403158Y-13508150D01*
X8403158Y-13508150D02*
X8431729Y-13508150D01*
X8431729Y-13508150D02*
X8450777Y-13517674D01*
X8450777Y-13517674D02*
X8460301Y-13536722D01*
X8460301Y-13536722D02*
X8460301Y-13641484D01*
X8460301Y-13536722D02*
X8469825Y-13517674D01*
X8469825Y-13517674D02*
X8488872Y-13508150D01*
X8488872Y-13508150D02*
X8517444Y-13508150D01*
X8517444Y-13508150D02*
X8536491Y-13517674D01*
X8536491Y-13517674D02*
X8546015Y-13536722D01*
X8546015Y-13536722D02*
X8546015Y-13641484D01*
X8936491Y-13431960D02*
X8765063Y-13689103D01*
X9193634Y-13441484D02*
X9212682Y-13441484D01*
X9212682Y-13441484D02*
X9231729Y-13451008D01*
X9231729Y-13451008D02*
X9241253Y-13460531D01*
X9241253Y-13460531D02*
X9250777Y-13479579D01*
X9250777Y-13479579D02*
X9260301Y-13517674D01*
X9260301Y-13517674D02*
X9260301Y-13565293D01*
X9260301Y-13565293D02*
X9250777Y-13603388D01*
X9250777Y-13603388D02*
X9241253Y-13622436D01*
X9241253Y-13622436D02*
X9231729Y-13631960D01*
X9231729Y-13631960D02*
X9212682Y-13641484D01*
X9212682Y-13641484D02*
X9193634Y-13641484D01*
X9193634Y-13641484D02*
X9174587Y-13631960D01*
X9174587Y-13631960D02*
X9165063Y-13622436D01*
X9165063Y-13622436D02*
X9155539Y-13603388D01*
X9155539Y-13603388D02*
X9146015Y-13565293D01*
X9146015Y-13565293D02*
X9146015Y-13517674D01*
X9146015Y-13517674D02*
X9155539Y-13479579D01*
X9155539Y-13479579D02*
X9165063Y-13460531D01*
X9165063Y-13460531D02*
X9174587Y-13451008D01*
X9174587Y-13451008D02*
X9193634Y-13441484D01*
X9346015Y-13622436D02*
X9355539Y-13631960D01*
X9355539Y-13631960D02*
X9346015Y-13641484D01*
X9346015Y-13641484D02*
X9336491Y-13631960D01*
X9336491Y-13631960D02*
X9346015Y-13622436D01*
X9346015Y-13622436D02*
X9346015Y-13641484D01*
X9479348Y-13441484D02*
X9498396Y-13441484D01*
X9498396Y-13441484D02*
X9517444Y-13451008D01*
X9517444Y-13451008D02*
X9526968Y-13460531D01*
X9526968Y-13460531D02*
X9536491Y-13479579D01*
X9536491Y-13479579D02*
X9546015Y-13517674D01*
X9546015Y-13517674D02*
X9546015Y-13565293D01*
X9546015Y-13565293D02*
X9536491Y-13603388D01*
X9536491Y-13603388D02*
X9526968Y-13622436D01*
X9526968Y-13622436D02*
X9517444Y-13631960D01*
X9517444Y-13631960D02*
X9498396Y-13641484D01*
X9498396Y-13641484D02*
X9479348Y-13641484D01*
X9479348Y-13641484D02*
X9460301Y-13631960D01*
X9460301Y-13631960D02*
X9450777Y-13622436D01*
X9450777Y-13622436D02*
X9441253Y-13603388D01*
X9441253Y-13603388D02*
X9431729Y-13565293D01*
X9431729Y-13565293D02*
X9431729Y-13517674D01*
X9431729Y-13517674D02*
X9441253Y-13479579D01*
X9441253Y-13479579D02*
X9450777Y-13460531D01*
X9450777Y-13460531D02*
X9460301Y-13451008D01*
X9460301Y-13451008D02*
X9479348Y-13441484D01*
X9612682Y-13441484D02*
X9736491Y-13441484D01*
X9736491Y-13441484D02*
X9669825Y-13517674D01*
X9669825Y-13517674D02*
X9698396Y-13517674D01*
X9698396Y-13517674D02*
X9717444Y-13527198D01*
X9717444Y-13527198D02*
X9726968Y-13536722D01*
X9726968Y-13536722D02*
X9736491Y-13555769D01*
X9736491Y-13555769D02*
X9736491Y-13603388D01*
X9736491Y-13603388D02*
X9726968Y-13622436D01*
X9726968Y-13622436D02*
X9717444Y-13631960D01*
X9717444Y-13631960D02*
X9698396Y-13641484D01*
X9698396Y-13641484D02*
X9641253Y-13641484D01*
X9641253Y-13641484D02*
X9622206Y-13631960D01*
X9622206Y-13631960D02*
X9612682Y-13622436D01*
X9926968Y-13641484D02*
X9812682Y-13641484D01*
X9869825Y-13641484D02*
X9869825Y-13441484D01*
X9869825Y-13441484D02*
X9850777Y-13470055D01*
X9850777Y-13470055D02*
X9831729Y-13489103D01*
X9831729Y-13489103D02*
X9812682Y-13498627D01*
X10107920Y-13441484D02*
X10012682Y-13441484D01*
X10012682Y-13441484D02*
X10003158Y-13536722D01*
X10003158Y-13536722D02*
X10012682Y-13527198D01*
X10012682Y-13527198D02*
X10031729Y-13517674D01*
X10031729Y-13517674D02*
X10079349Y-13517674D01*
X10079349Y-13517674D02*
X10098396Y-13527198D01*
X10098396Y-13527198D02*
X10107920Y-13536722D01*
X10107920Y-13536722D02*
X10117444Y-13555769D01*
X10117444Y-13555769D02*
X10117444Y-13603388D01*
X10117444Y-13603388D02*
X10107920Y-13622436D01*
X10107920Y-13622436D02*
X10098396Y-13631960D01*
X10098396Y-13631960D02*
X10079349Y-13641484D01*
X10079349Y-13641484D02*
X10031729Y-13641484D01*
X10031729Y-13641484D02*
X10012682Y-13631960D01*
X10012682Y-13631960D02*
X10003158Y-13622436D01*
X10193634Y-13441484D02*
X10193634Y-13479579D01*
X10269825Y-13441484D02*
X10269825Y-13479579D01*
X10565063Y-13717674D02*
X10555539Y-13708150D01*
X10555539Y-13708150D02*
X10536491Y-13679579D01*
X10536491Y-13679579D02*
X10526968Y-13660531D01*
X10526968Y-13660531D02*
X10517444Y-13631960D01*
X10517444Y-13631960D02*
X10507920Y-13584341D01*
X10507920Y-13584341D02*
X10507920Y-13546246D01*
X10507920Y-13546246D02*
X10517444Y-13498627D01*
X10517444Y-13498627D02*
X10526968Y-13470055D01*
X10526968Y-13470055D02*
X10536491Y-13451008D01*
X10536491Y-13451008D02*
X10555539Y-13422436D01*
X10555539Y-13422436D02*
X10565063Y-13412912D01*
X10726968Y-13441484D02*
X10688872Y-13441484D01*
X10688872Y-13441484D02*
X10669825Y-13451008D01*
X10669825Y-13451008D02*
X10660301Y-13460531D01*
X10660301Y-13460531D02*
X10641253Y-13489103D01*
X10641253Y-13489103D02*
X10631730Y-13527198D01*
X10631730Y-13527198D02*
X10631730Y-13603388D01*
X10631730Y-13603388D02*
X10641253Y-13622436D01*
X10641253Y-13622436D02*
X10650777Y-13631960D01*
X10650777Y-13631960D02*
X10669825Y-13641484D01*
X10669825Y-13641484D02*
X10707920Y-13641484D01*
X10707920Y-13641484D02*
X10726968Y-13631960D01*
X10726968Y-13631960D02*
X10736491Y-13622436D01*
X10736491Y-13622436D02*
X10746015Y-13603388D01*
X10746015Y-13603388D02*
X10746015Y-13555769D01*
X10746015Y-13555769D02*
X10736491Y-13536722D01*
X10736491Y-13536722D02*
X10726968Y-13527198D01*
X10726968Y-13527198D02*
X10707920Y-13517674D01*
X10707920Y-13517674D02*
X10669825Y-13517674D01*
X10669825Y-13517674D02*
X10650777Y-13527198D01*
X10650777Y-13527198D02*
X10641253Y-13536722D01*
X10641253Y-13536722D02*
X10631730Y-13555769D01*
X10984111Y-13641484D02*
X10984111Y-13441484D01*
X11069825Y-13641484D02*
X11069825Y-13536722D01*
X11069825Y-13536722D02*
X11060301Y-13517674D01*
X11060301Y-13517674D02*
X11041253Y-13508150D01*
X11041253Y-13508150D02*
X11012682Y-13508150D01*
X11012682Y-13508150D02*
X10993634Y-13517674D01*
X10993634Y-13517674D02*
X10984111Y-13527198D01*
X11193634Y-13641484D02*
X11174587Y-13631960D01*
X11174587Y-13631960D02*
X11165063Y-13622436D01*
X11165063Y-13622436D02*
X11155539Y-13603388D01*
X11155539Y-13603388D02*
X11155539Y-13546246D01*
X11155539Y-13546246D02*
X11165063Y-13527198D01*
X11165063Y-13527198D02*
X11174587Y-13517674D01*
X11174587Y-13517674D02*
X11193634Y-13508150D01*
X11193634Y-13508150D02*
X11222206Y-13508150D01*
X11222206Y-13508150D02*
X11241253Y-13517674D01*
X11241253Y-13517674D02*
X11250777Y-13527198D01*
X11250777Y-13527198D02*
X11260301Y-13546246D01*
X11260301Y-13546246D02*
X11260301Y-13603388D01*
X11260301Y-13603388D02*
X11250777Y-13622436D01*
X11250777Y-13622436D02*
X11241253Y-13631960D01*
X11241253Y-13631960D02*
X11222206Y-13641484D01*
X11222206Y-13641484D02*
X11193634Y-13641484D01*
X11374587Y-13641484D02*
X11355539Y-13631960D01*
X11355539Y-13631960D02*
X11346015Y-13612912D01*
X11346015Y-13612912D02*
X11346015Y-13441484D01*
X11526968Y-13631960D02*
X11507920Y-13641484D01*
X11507920Y-13641484D02*
X11469825Y-13641484D01*
X11469825Y-13641484D02*
X11450777Y-13631960D01*
X11450777Y-13631960D02*
X11441253Y-13612912D01*
X11441253Y-13612912D02*
X11441253Y-13536722D01*
X11441253Y-13536722D02*
X11450777Y-13517674D01*
X11450777Y-13517674D02*
X11469825Y-13508150D01*
X11469825Y-13508150D02*
X11507920Y-13508150D01*
X11507920Y-13508150D02*
X11526968Y-13517674D01*
X11526968Y-13517674D02*
X11536491Y-13536722D01*
X11536491Y-13536722D02*
X11536491Y-13555769D01*
X11536491Y-13555769D02*
X11441253Y-13574817D01*
X11612682Y-13631960D02*
X11631730Y-13641484D01*
X11631730Y-13641484D02*
X11669825Y-13641484D01*
X11669825Y-13641484D02*
X11688872Y-13631960D01*
X11688872Y-13631960D02*
X11698396Y-13612912D01*
X11698396Y-13612912D02*
X11698396Y-13603388D01*
X11698396Y-13603388D02*
X11688872Y-13584341D01*
X11688872Y-13584341D02*
X11669825Y-13574817D01*
X11669825Y-13574817D02*
X11641253Y-13574817D01*
X11641253Y-13574817D02*
X11622206Y-13565293D01*
X11622206Y-13565293D02*
X11612682Y-13546246D01*
X11612682Y-13546246D02*
X11612682Y-13536722D01*
X11612682Y-13536722D02*
X11622206Y-13517674D01*
X11622206Y-13517674D02*
X11641253Y-13508150D01*
X11641253Y-13508150D02*
X11669825Y-13508150D01*
X11669825Y-13508150D02*
X11688872Y-13517674D01*
X11765063Y-13717674D02*
X11774587Y-13708150D01*
X11774587Y-13708150D02*
X11793634Y-13679579D01*
X11793634Y-13679579D02*
X11803158Y-13660531D01*
X11803158Y-13660531D02*
X11812682Y-13631960D01*
X11812682Y-13631960D02*
X11822206Y-13584341D01*
X11822206Y-13584341D02*
X11822206Y-13546246D01*
X11822206Y-13546246D02*
X11812682Y-13498627D01*
X11812682Y-13498627D02*
X11803158Y-13470055D01*
X11803158Y-13470055D02*
X11793634Y-13451008D01*
X11793634Y-13451008D02*
X11774587Y-13422436D01*
X11774587Y-13422436D02*
X11765063Y-13412912D01*
D11*
X6990000Y-13814000D02*
G75*
G02*
X6890000Y-13814000I-50000J0D01*
G01*
X6890000Y-13814000D02*
G75*
G02*
X6990000Y-13814000I50000J0D01*
G01*
D10*
X7355539Y-13905484D02*
X7241253Y-13905484D01*
X7298396Y-13905484D02*
X7298396Y-13705484D01*
X7298396Y-13705484D02*
X7279348Y-13734055D01*
X7279348Y-13734055D02*
X7260301Y-13753103D01*
X7260301Y-13753103D02*
X7241253Y-13762627D01*
X7441253Y-13886436D02*
X7450777Y-13895960D01*
X7450777Y-13895960D02*
X7441253Y-13905484D01*
X7441253Y-13905484D02*
X7431729Y-13895960D01*
X7431729Y-13895960D02*
X7441253Y-13886436D01*
X7441253Y-13886436D02*
X7441253Y-13905484D01*
X7574586Y-13705484D02*
X7593634Y-13705484D01*
X7593634Y-13705484D02*
X7612682Y-13715008D01*
X7612682Y-13715008D02*
X7622205Y-13724531D01*
X7622205Y-13724531D02*
X7631729Y-13743579D01*
X7631729Y-13743579D02*
X7641253Y-13781674D01*
X7641253Y-13781674D02*
X7641253Y-13829293D01*
X7641253Y-13829293D02*
X7631729Y-13867388D01*
X7631729Y-13867388D02*
X7622205Y-13886436D01*
X7622205Y-13886436D02*
X7612682Y-13895960D01*
X7612682Y-13895960D02*
X7593634Y-13905484D01*
X7593634Y-13905484D02*
X7574586Y-13905484D01*
X7574586Y-13905484D02*
X7555539Y-13895960D01*
X7555539Y-13895960D02*
X7546015Y-13886436D01*
X7546015Y-13886436D02*
X7536491Y-13867388D01*
X7536491Y-13867388D02*
X7526967Y-13829293D01*
X7526967Y-13829293D02*
X7526967Y-13781674D01*
X7526967Y-13781674D02*
X7536491Y-13743579D01*
X7536491Y-13743579D02*
X7546015Y-13724531D01*
X7546015Y-13724531D02*
X7555539Y-13715008D01*
X7555539Y-13715008D02*
X7574586Y-13705484D01*
X7765062Y-13705484D02*
X7784110Y-13705484D01*
X7784110Y-13705484D02*
X7803158Y-13715008D01*
X7803158Y-13715008D02*
X7812682Y-13724531D01*
X7812682Y-13724531D02*
X7822205Y-13743579D01*
X7822205Y-13743579D02*
X7831729Y-13781674D01*
X7831729Y-13781674D02*
X7831729Y-13829293D01*
X7831729Y-13829293D02*
X7822205Y-13867388D01*
X7822205Y-13867388D02*
X7812682Y-13886436D01*
X7812682Y-13886436D02*
X7803158Y-13895960D01*
X7803158Y-13895960D02*
X7784110Y-13905484D01*
X7784110Y-13905484D02*
X7765062Y-13905484D01*
X7765062Y-13905484D02*
X7746015Y-13895960D01*
X7746015Y-13895960D02*
X7736491Y-13886436D01*
X7736491Y-13886436D02*
X7726967Y-13867388D01*
X7726967Y-13867388D02*
X7717443Y-13829293D01*
X7717443Y-13829293D02*
X7717443Y-13781674D01*
X7717443Y-13781674D02*
X7726967Y-13743579D01*
X7726967Y-13743579D02*
X7736491Y-13724531D01*
X7736491Y-13724531D02*
X7746015Y-13715008D01*
X7746015Y-13715008D02*
X7765062Y-13705484D01*
X7955539Y-13705484D02*
X7974586Y-13705484D01*
X7974586Y-13705484D02*
X7993634Y-13715008D01*
X7993634Y-13715008D02*
X8003158Y-13724531D01*
X8003158Y-13724531D02*
X8012682Y-13743579D01*
X8012682Y-13743579D02*
X8022205Y-13781674D01*
X8022205Y-13781674D02*
X8022205Y-13829293D01*
X8022205Y-13829293D02*
X8012682Y-13867388D01*
X8012682Y-13867388D02*
X8003158Y-13886436D01*
X8003158Y-13886436D02*
X7993634Y-13895960D01*
X7993634Y-13895960D02*
X7974586Y-13905484D01*
X7974586Y-13905484D02*
X7955539Y-13905484D01*
X7955539Y-13905484D02*
X7936491Y-13895960D01*
X7936491Y-13895960D02*
X7926967Y-13886436D01*
X7926967Y-13886436D02*
X7917443Y-13867388D01*
X7917443Y-13867388D02*
X7907920Y-13829293D01*
X7907920Y-13829293D02*
X7907920Y-13781674D01*
X7907920Y-13781674D02*
X7917443Y-13743579D01*
X7917443Y-13743579D02*
X7926967Y-13724531D01*
X7926967Y-13724531D02*
X7936491Y-13715008D01*
X7936491Y-13715008D02*
X7955539Y-13705484D01*
X8107920Y-13905484D02*
X8107920Y-13772150D01*
X8107920Y-13791198D02*
X8117443Y-13781674D01*
X8117443Y-13781674D02*
X8136491Y-13772150D01*
X8136491Y-13772150D02*
X8165063Y-13772150D01*
X8165063Y-13772150D02*
X8184110Y-13781674D01*
X8184110Y-13781674D02*
X8193634Y-13800722D01*
X8193634Y-13800722D02*
X8193634Y-13905484D01*
X8193634Y-13800722D02*
X8203158Y-13781674D01*
X8203158Y-13781674D02*
X8222205Y-13772150D01*
X8222205Y-13772150D02*
X8250777Y-13772150D01*
X8250777Y-13772150D02*
X8269824Y-13781674D01*
X8269824Y-13781674D02*
X8279348Y-13800722D01*
X8279348Y-13800722D02*
X8279348Y-13905484D01*
X8374586Y-13905484D02*
X8374586Y-13772150D01*
X8374586Y-13791198D02*
X8384110Y-13781674D01*
X8384110Y-13781674D02*
X8403158Y-13772150D01*
X8403158Y-13772150D02*
X8431729Y-13772150D01*
X8431729Y-13772150D02*
X8450777Y-13781674D01*
X8450777Y-13781674D02*
X8460301Y-13800722D01*
X8460301Y-13800722D02*
X8460301Y-13905484D01*
X8460301Y-13800722D02*
X8469825Y-13781674D01*
X8469825Y-13781674D02*
X8488872Y-13772150D01*
X8488872Y-13772150D02*
X8517444Y-13772150D01*
X8517444Y-13772150D02*
X8536491Y-13781674D01*
X8536491Y-13781674D02*
X8546015Y-13800722D01*
X8546015Y-13800722D02*
X8546015Y-13905484D01*
X8936491Y-13695960D02*
X8765063Y-13953103D01*
X9193634Y-13705484D02*
X9212682Y-13705484D01*
X9212682Y-13705484D02*
X9231729Y-13715008D01*
X9231729Y-13715008D02*
X9241253Y-13724531D01*
X9241253Y-13724531D02*
X9250777Y-13743579D01*
X9250777Y-13743579D02*
X9260301Y-13781674D01*
X9260301Y-13781674D02*
X9260301Y-13829293D01*
X9260301Y-13829293D02*
X9250777Y-13867388D01*
X9250777Y-13867388D02*
X9241253Y-13886436D01*
X9241253Y-13886436D02*
X9231729Y-13895960D01*
X9231729Y-13895960D02*
X9212682Y-13905484D01*
X9212682Y-13905484D02*
X9193634Y-13905484D01*
X9193634Y-13905484D02*
X9174587Y-13895960D01*
X9174587Y-13895960D02*
X9165063Y-13886436D01*
X9165063Y-13886436D02*
X9155539Y-13867388D01*
X9155539Y-13867388D02*
X9146015Y-13829293D01*
X9146015Y-13829293D02*
X9146015Y-13781674D01*
X9146015Y-13781674D02*
X9155539Y-13743579D01*
X9155539Y-13743579D02*
X9165063Y-13724531D01*
X9165063Y-13724531D02*
X9174587Y-13715008D01*
X9174587Y-13715008D02*
X9193634Y-13705484D01*
X9346015Y-13886436D02*
X9355539Y-13895960D01*
X9355539Y-13895960D02*
X9346015Y-13905484D01*
X9346015Y-13905484D02*
X9336491Y-13895960D01*
X9336491Y-13895960D02*
X9346015Y-13886436D01*
X9346015Y-13886436D02*
X9346015Y-13905484D01*
X9479348Y-13705484D02*
X9498396Y-13705484D01*
X9498396Y-13705484D02*
X9517444Y-13715008D01*
X9517444Y-13715008D02*
X9526968Y-13724531D01*
X9526968Y-13724531D02*
X9536491Y-13743579D01*
X9536491Y-13743579D02*
X9546015Y-13781674D01*
X9546015Y-13781674D02*
X9546015Y-13829293D01*
X9546015Y-13829293D02*
X9536491Y-13867388D01*
X9536491Y-13867388D02*
X9526968Y-13886436D01*
X9526968Y-13886436D02*
X9517444Y-13895960D01*
X9517444Y-13895960D02*
X9498396Y-13905484D01*
X9498396Y-13905484D02*
X9479348Y-13905484D01*
X9479348Y-13905484D02*
X9460301Y-13895960D01*
X9460301Y-13895960D02*
X9450777Y-13886436D01*
X9450777Y-13886436D02*
X9441253Y-13867388D01*
X9441253Y-13867388D02*
X9431729Y-13829293D01*
X9431729Y-13829293D02*
X9431729Y-13781674D01*
X9431729Y-13781674D02*
X9441253Y-13743579D01*
X9441253Y-13743579D02*
X9450777Y-13724531D01*
X9450777Y-13724531D02*
X9460301Y-13715008D01*
X9460301Y-13715008D02*
X9479348Y-13705484D01*
X9612682Y-13705484D02*
X9736491Y-13705484D01*
X9736491Y-13705484D02*
X9669825Y-13781674D01*
X9669825Y-13781674D02*
X9698396Y-13781674D01*
X9698396Y-13781674D02*
X9717444Y-13791198D01*
X9717444Y-13791198D02*
X9726968Y-13800722D01*
X9726968Y-13800722D02*
X9736491Y-13819769D01*
X9736491Y-13819769D02*
X9736491Y-13867388D01*
X9736491Y-13867388D02*
X9726968Y-13886436D01*
X9726968Y-13886436D02*
X9717444Y-13895960D01*
X9717444Y-13895960D02*
X9698396Y-13905484D01*
X9698396Y-13905484D02*
X9641253Y-13905484D01*
X9641253Y-13905484D02*
X9622206Y-13895960D01*
X9622206Y-13895960D02*
X9612682Y-13886436D01*
X9831729Y-13905484D02*
X9869825Y-13905484D01*
X9869825Y-13905484D02*
X9888872Y-13895960D01*
X9888872Y-13895960D02*
X9898396Y-13886436D01*
X9898396Y-13886436D02*
X9917444Y-13857865D01*
X9917444Y-13857865D02*
X9926968Y-13819769D01*
X9926968Y-13819769D02*
X9926968Y-13743579D01*
X9926968Y-13743579D02*
X9917444Y-13724531D01*
X9917444Y-13724531D02*
X9907920Y-13715008D01*
X9907920Y-13715008D02*
X9888872Y-13705484D01*
X9888872Y-13705484D02*
X9850777Y-13705484D01*
X9850777Y-13705484D02*
X9831729Y-13715008D01*
X9831729Y-13715008D02*
X9822206Y-13724531D01*
X9822206Y-13724531D02*
X9812682Y-13743579D01*
X9812682Y-13743579D02*
X9812682Y-13791198D01*
X9812682Y-13791198D02*
X9822206Y-13810246D01*
X9822206Y-13810246D02*
X9831729Y-13819769D01*
X9831729Y-13819769D02*
X9850777Y-13829293D01*
X9850777Y-13829293D02*
X9888872Y-13829293D01*
X9888872Y-13829293D02*
X9907920Y-13819769D01*
X9907920Y-13819769D02*
X9917444Y-13810246D01*
X9917444Y-13810246D02*
X9926968Y-13791198D01*
X10098396Y-13772150D02*
X10098396Y-13905484D01*
X10050777Y-13695960D02*
X10003158Y-13838817D01*
X10003158Y-13838817D02*
X10126968Y-13838817D01*
X10193634Y-13705484D02*
X10193634Y-13743579D01*
X10269825Y-13705484D02*
X10269825Y-13743579D01*
X10565063Y-13981674D02*
X10555539Y-13972150D01*
X10555539Y-13972150D02*
X10536491Y-13943579D01*
X10536491Y-13943579D02*
X10526968Y-13924531D01*
X10526968Y-13924531D02*
X10517444Y-13895960D01*
X10517444Y-13895960D02*
X10507920Y-13848341D01*
X10507920Y-13848341D02*
X10507920Y-13810246D01*
X10507920Y-13810246D02*
X10517444Y-13762627D01*
X10517444Y-13762627D02*
X10526968Y-13734055D01*
X10526968Y-13734055D02*
X10536491Y-13715008D01*
X10536491Y-13715008D02*
X10555539Y-13686436D01*
X10555539Y-13686436D02*
X10565063Y-13676912D01*
X10746015Y-13905484D02*
X10631730Y-13905484D01*
X10688872Y-13905484D02*
X10688872Y-13705484D01*
X10688872Y-13705484D02*
X10669825Y-13734055D01*
X10669825Y-13734055D02*
X10650777Y-13753103D01*
X10650777Y-13753103D02*
X10631730Y-13762627D01*
X10812682Y-13705484D02*
X10936491Y-13705484D01*
X10936491Y-13705484D02*
X10869825Y-13781674D01*
X10869825Y-13781674D02*
X10898396Y-13781674D01*
X10898396Y-13781674D02*
X10917444Y-13791198D01*
X10917444Y-13791198D02*
X10926968Y-13800722D01*
X10926968Y-13800722D02*
X10936491Y-13819769D01*
X10936491Y-13819769D02*
X10936491Y-13867388D01*
X10936491Y-13867388D02*
X10926968Y-13886436D01*
X10926968Y-13886436D02*
X10917444Y-13895960D01*
X10917444Y-13895960D02*
X10898396Y-13905484D01*
X10898396Y-13905484D02*
X10841253Y-13905484D01*
X10841253Y-13905484D02*
X10822206Y-13895960D01*
X10822206Y-13895960D02*
X10812682Y-13886436D01*
X11117444Y-13705484D02*
X11022206Y-13705484D01*
X11022206Y-13705484D02*
X11012682Y-13800722D01*
X11012682Y-13800722D02*
X11022206Y-13791198D01*
X11022206Y-13791198D02*
X11041253Y-13781674D01*
X11041253Y-13781674D02*
X11088872Y-13781674D01*
X11088872Y-13781674D02*
X11107920Y-13791198D01*
X11107920Y-13791198D02*
X11117444Y-13800722D01*
X11117444Y-13800722D02*
X11126968Y-13819769D01*
X11126968Y-13819769D02*
X11126968Y-13867388D01*
X11126968Y-13867388D02*
X11117444Y-13886436D01*
X11117444Y-13886436D02*
X11107920Y-13895960D01*
X11107920Y-13895960D02*
X11088872Y-13905484D01*
X11088872Y-13905484D02*
X11041253Y-13905484D01*
X11041253Y-13905484D02*
X11022206Y-13895960D01*
X11022206Y-13895960D02*
X11012682Y-13886436D01*
X11365063Y-13905484D02*
X11365063Y-13705484D01*
X11450777Y-13905484D02*
X11450777Y-13800722D01*
X11450777Y-13800722D02*
X11441253Y-13781674D01*
X11441253Y-13781674D02*
X11422206Y-13772150D01*
X11422206Y-13772150D02*
X11393634Y-13772150D01*
X11393634Y-13772150D02*
X11374587Y-13781674D01*
X11374587Y-13781674D02*
X11365063Y-13791198D01*
X11574587Y-13905484D02*
X11555539Y-13895960D01*
X11555539Y-13895960D02*
X11546015Y-13886436D01*
X11546015Y-13886436D02*
X11536491Y-13867388D01*
X11536491Y-13867388D02*
X11536491Y-13810246D01*
X11536491Y-13810246D02*
X11546015Y-13791198D01*
X11546015Y-13791198D02*
X11555539Y-13781674D01*
X11555539Y-13781674D02*
X11574587Y-13772150D01*
X11574587Y-13772150D02*
X11603158Y-13772150D01*
X11603158Y-13772150D02*
X11622206Y-13781674D01*
X11622206Y-13781674D02*
X11631730Y-13791198D01*
X11631730Y-13791198D02*
X11641253Y-13810246D01*
X11641253Y-13810246D02*
X11641253Y-13867388D01*
X11641253Y-13867388D02*
X11631730Y-13886436D01*
X11631730Y-13886436D02*
X11622206Y-13895960D01*
X11622206Y-13895960D02*
X11603158Y-13905484D01*
X11603158Y-13905484D02*
X11574587Y-13905484D01*
X11755539Y-13905484D02*
X11736491Y-13895960D01*
X11736491Y-13895960D02*
X11726968Y-13876912D01*
X11726968Y-13876912D02*
X11726968Y-13705484D01*
X11907920Y-13895960D02*
X11888872Y-13905484D01*
X11888872Y-13905484D02*
X11850777Y-13905484D01*
X11850777Y-13905484D02*
X11831730Y-13895960D01*
X11831730Y-13895960D02*
X11822206Y-13876912D01*
X11822206Y-13876912D02*
X11822206Y-13800722D01*
X11822206Y-13800722D02*
X11831730Y-13781674D01*
X11831730Y-13781674D02*
X11850777Y-13772150D01*
X11850777Y-13772150D02*
X11888872Y-13772150D01*
X11888872Y-13772150D02*
X11907920Y-13781674D01*
X11907920Y-13781674D02*
X11917444Y-13800722D01*
X11917444Y-13800722D02*
X11917444Y-13819769D01*
X11917444Y-13819769D02*
X11822206Y-13838817D01*
X11993634Y-13895960D02*
X12012682Y-13905484D01*
X12012682Y-13905484D02*
X12050777Y-13905484D01*
X12050777Y-13905484D02*
X12069825Y-13895960D01*
X12069825Y-13895960D02*
X12079349Y-13876912D01*
X12079349Y-13876912D02*
X12079349Y-13867388D01*
X12079349Y-13867388D02*
X12069825Y-13848341D01*
X12069825Y-13848341D02*
X12050777Y-13838817D01*
X12050777Y-13838817D02*
X12022206Y-13838817D01*
X12022206Y-13838817D02*
X12003158Y-13829293D01*
X12003158Y-13829293D02*
X11993634Y-13810246D01*
X11993634Y-13810246D02*
X11993634Y-13800722D01*
X11993634Y-13800722D02*
X12003158Y-13781674D01*
X12003158Y-13781674D02*
X12022206Y-13772150D01*
X12022206Y-13772150D02*
X12050777Y-13772150D01*
X12050777Y-13772150D02*
X12069825Y-13781674D01*
X12146015Y-13981674D02*
X12155539Y-13972150D01*
X12155539Y-13972150D02*
X12174587Y-13943579D01*
X12174587Y-13943579D02*
X12184111Y-13924531D01*
X12184111Y-13924531D02*
X12193634Y-13895960D01*
X12193634Y-13895960D02*
X12203158Y-13848341D01*
X12203158Y-13848341D02*
X12203158Y-13810246D01*
X12203158Y-13810246D02*
X12193634Y-13762627D01*
X12193634Y-13762627D02*
X12184111Y-13734055D01*
X12184111Y-13734055D02*
X12174587Y-13715008D01*
X12174587Y-13715008D02*
X12155539Y-13686436D01*
X12155539Y-13686436D02*
X12146015Y-13676912D01*
X6890000Y-13978000D02*
X6890000Y-14178000D01*
X6790000Y-14078000D02*
X6990000Y-14078000D01*
X7231729Y-13969484D02*
X7355539Y-13969484D01*
X7355539Y-13969484D02*
X7288872Y-14045674D01*
X7288872Y-14045674D02*
X7317443Y-14045674D01*
X7317443Y-14045674D02*
X7336491Y-14055198D01*
X7336491Y-14055198D02*
X7346015Y-14064722D01*
X7346015Y-14064722D02*
X7355539Y-14083769D01*
X7355539Y-14083769D02*
X7355539Y-14131388D01*
X7355539Y-14131388D02*
X7346015Y-14150436D01*
X7346015Y-14150436D02*
X7336491Y-14159960D01*
X7336491Y-14159960D02*
X7317443Y-14169484D01*
X7317443Y-14169484D02*
X7260301Y-14169484D01*
X7260301Y-14169484D02*
X7241253Y-14159960D01*
X7241253Y-14159960D02*
X7231729Y-14150436D01*
X7441253Y-14150436D02*
X7450777Y-14159960D01*
X7450777Y-14159960D02*
X7441253Y-14169484D01*
X7441253Y-14169484D02*
X7431729Y-14159960D01*
X7431729Y-14159960D02*
X7441253Y-14150436D01*
X7441253Y-14150436D02*
X7441253Y-14169484D01*
X7574586Y-13969484D02*
X7593634Y-13969484D01*
X7593634Y-13969484D02*
X7612682Y-13979008D01*
X7612682Y-13979008D02*
X7622205Y-13988531D01*
X7622205Y-13988531D02*
X7631729Y-14007579D01*
X7631729Y-14007579D02*
X7641253Y-14045674D01*
X7641253Y-14045674D02*
X7641253Y-14093293D01*
X7641253Y-14093293D02*
X7631729Y-14131388D01*
X7631729Y-14131388D02*
X7622205Y-14150436D01*
X7622205Y-14150436D02*
X7612682Y-14159960D01*
X7612682Y-14159960D02*
X7593634Y-14169484D01*
X7593634Y-14169484D02*
X7574586Y-14169484D01*
X7574586Y-14169484D02*
X7555539Y-14159960D01*
X7555539Y-14159960D02*
X7546015Y-14150436D01*
X7546015Y-14150436D02*
X7536491Y-14131388D01*
X7536491Y-14131388D02*
X7526967Y-14093293D01*
X7526967Y-14093293D02*
X7526967Y-14045674D01*
X7526967Y-14045674D02*
X7536491Y-14007579D01*
X7536491Y-14007579D02*
X7546015Y-13988531D01*
X7546015Y-13988531D02*
X7555539Y-13979008D01*
X7555539Y-13979008D02*
X7574586Y-13969484D01*
X7765062Y-13969484D02*
X7784110Y-13969484D01*
X7784110Y-13969484D02*
X7803158Y-13979008D01*
X7803158Y-13979008D02*
X7812682Y-13988531D01*
X7812682Y-13988531D02*
X7822205Y-14007579D01*
X7822205Y-14007579D02*
X7831729Y-14045674D01*
X7831729Y-14045674D02*
X7831729Y-14093293D01*
X7831729Y-14093293D02*
X7822205Y-14131388D01*
X7822205Y-14131388D02*
X7812682Y-14150436D01*
X7812682Y-14150436D02*
X7803158Y-14159960D01*
X7803158Y-14159960D02*
X7784110Y-14169484D01*
X7784110Y-14169484D02*
X7765062Y-14169484D01*
X7765062Y-14169484D02*
X7746015Y-14159960D01*
X7746015Y-14159960D02*
X7736491Y-14150436D01*
X7736491Y-14150436D02*
X7726967Y-14131388D01*
X7726967Y-14131388D02*
X7717443Y-14093293D01*
X7717443Y-14093293D02*
X7717443Y-14045674D01*
X7717443Y-14045674D02*
X7726967Y-14007579D01*
X7726967Y-14007579D02*
X7736491Y-13988531D01*
X7736491Y-13988531D02*
X7746015Y-13979008D01*
X7746015Y-13979008D02*
X7765062Y-13969484D01*
X7955539Y-13969484D02*
X7974586Y-13969484D01*
X7974586Y-13969484D02*
X7993634Y-13979008D01*
X7993634Y-13979008D02*
X8003158Y-13988531D01*
X8003158Y-13988531D02*
X8012682Y-14007579D01*
X8012682Y-14007579D02*
X8022205Y-14045674D01*
X8022205Y-14045674D02*
X8022205Y-14093293D01*
X8022205Y-14093293D02*
X8012682Y-14131388D01*
X8012682Y-14131388D02*
X8003158Y-14150436D01*
X8003158Y-14150436D02*
X7993634Y-14159960D01*
X7993634Y-14159960D02*
X7974586Y-14169484D01*
X7974586Y-14169484D02*
X7955539Y-14169484D01*
X7955539Y-14169484D02*
X7936491Y-14159960D01*
X7936491Y-14159960D02*
X7926967Y-14150436D01*
X7926967Y-14150436D02*
X7917443Y-14131388D01*
X7917443Y-14131388D02*
X7907920Y-14093293D01*
X7907920Y-14093293D02*
X7907920Y-14045674D01*
X7907920Y-14045674D02*
X7917443Y-14007579D01*
X7917443Y-14007579D02*
X7926967Y-13988531D01*
X7926967Y-13988531D02*
X7936491Y-13979008D01*
X7936491Y-13979008D02*
X7955539Y-13969484D01*
X8107920Y-14169484D02*
X8107920Y-14036150D01*
X8107920Y-14055198D02*
X8117443Y-14045674D01*
X8117443Y-14045674D02*
X8136491Y-14036150D01*
X8136491Y-14036150D02*
X8165063Y-14036150D01*
X8165063Y-14036150D02*
X8184110Y-14045674D01*
X8184110Y-14045674D02*
X8193634Y-14064722D01*
X8193634Y-14064722D02*
X8193634Y-14169484D01*
X8193634Y-14064722D02*
X8203158Y-14045674D01*
X8203158Y-14045674D02*
X8222205Y-14036150D01*
X8222205Y-14036150D02*
X8250777Y-14036150D01*
X8250777Y-14036150D02*
X8269824Y-14045674D01*
X8269824Y-14045674D02*
X8279348Y-14064722D01*
X8279348Y-14064722D02*
X8279348Y-14169484D01*
X8374586Y-14169484D02*
X8374586Y-14036150D01*
X8374586Y-14055198D02*
X8384110Y-14045674D01*
X8384110Y-14045674D02*
X8403158Y-14036150D01*
X8403158Y-14036150D02*
X8431729Y-14036150D01*
X8431729Y-14036150D02*
X8450777Y-14045674D01*
X8450777Y-14045674D02*
X8460301Y-14064722D01*
X8460301Y-14064722D02*
X8460301Y-14169484D01*
X8460301Y-14064722D02*
X8469825Y-14045674D01*
X8469825Y-14045674D02*
X8488872Y-14036150D01*
X8488872Y-14036150D02*
X8517444Y-14036150D01*
X8517444Y-14036150D02*
X8536491Y-14045674D01*
X8536491Y-14045674D02*
X8546015Y-14064722D01*
X8546015Y-14064722D02*
X8546015Y-14169484D01*
X8936491Y-13959960D02*
X8765063Y-14217103D01*
X9193634Y-13969484D02*
X9212682Y-13969484D01*
X9212682Y-13969484D02*
X9231729Y-13979008D01*
X9231729Y-13979008D02*
X9241253Y-13988531D01*
X9241253Y-13988531D02*
X9250777Y-14007579D01*
X9250777Y-14007579D02*
X9260301Y-14045674D01*
X9260301Y-14045674D02*
X9260301Y-14093293D01*
X9260301Y-14093293D02*
X9250777Y-14131388D01*
X9250777Y-14131388D02*
X9241253Y-14150436D01*
X9241253Y-14150436D02*
X9231729Y-14159960D01*
X9231729Y-14159960D02*
X9212682Y-14169484D01*
X9212682Y-14169484D02*
X9193634Y-14169484D01*
X9193634Y-14169484D02*
X9174587Y-14159960D01*
X9174587Y-14159960D02*
X9165063Y-14150436D01*
X9165063Y-14150436D02*
X9155539Y-14131388D01*
X9155539Y-14131388D02*
X9146015Y-14093293D01*
X9146015Y-14093293D02*
X9146015Y-14045674D01*
X9146015Y-14045674D02*
X9155539Y-14007579D01*
X9155539Y-14007579D02*
X9165063Y-13988531D01*
X9165063Y-13988531D02*
X9174587Y-13979008D01*
X9174587Y-13979008D02*
X9193634Y-13969484D01*
X9346015Y-14150436D02*
X9355539Y-14159960D01*
X9355539Y-14159960D02*
X9346015Y-14169484D01*
X9346015Y-14169484D02*
X9336491Y-14159960D01*
X9336491Y-14159960D02*
X9346015Y-14150436D01*
X9346015Y-14150436D02*
X9346015Y-14169484D01*
X9546015Y-14169484D02*
X9431729Y-14169484D01*
X9488872Y-14169484D02*
X9488872Y-13969484D01*
X9488872Y-13969484D02*
X9469825Y-13998055D01*
X9469825Y-13998055D02*
X9450777Y-14017103D01*
X9450777Y-14017103D02*
X9431729Y-14026627D01*
X9736491Y-14169484D02*
X9622206Y-14169484D01*
X9679348Y-14169484D02*
X9679348Y-13969484D01*
X9679348Y-13969484D02*
X9660301Y-13998055D01*
X9660301Y-13998055D02*
X9641253Y-14017103D01*
X9641253Y-14017103D02*
X9622206Y-14026627D01*
X9850777Y-14055198D02*
X9831729Y-14045674D01*
X9831729Y-14045674D02*
X9822206Y-14036150D01*
X9822206Y-14036150D02*
X9812682Y-14017103D01*
X9812682Y-14017103D02*
X9812682Y-14007579D01*
X9812682Y-14007579D02*
X9822206Y-13988531D01*
X9822206Y-13988531D02*
X9831729Y-13979008D01*
X9831729Y-13979008D02*
X9850777Y-13969484D01*
X9850777Y-13969484D02*
X9888872Y-13969484D01*
X9888872Y-13969484D02*
X9907920Y-13979008D01*
X9907920Y-13979008D02*
X9917444Y-13988531D01*
X9917444Y-13988531D02*
X9926968Y-14007579D01*
X9926968Y-14007579D02*
X9926968Y-14017103D01*
X9926968Y-14017103D02*
X9917444Y-14036150D01*
X9917444Y-14036150D02*
X9907920Y-14045674D01*
X9907920Y-14045674D02*
X9888872Y-14055198D01*
X9888872Y-14055198D02*
X9850777Y-14055198D01*
X9850777Y-14055198D02*
X9831729Y-14064722D01*
X9831729Y-14064722D02*
X9822206Y-14074246D01*
X9822206Y-14074246D02*
X9812682Y-14093293D01*
X9812682Y-14093293D02*
X9812682Y-14131388D01*
X9812682Y-14131388D02*
X9822206Y-14150436D01*
X9822206Y-14150436D02*
X9831729Y-14159960D01*
X9831729Y-14159960D02*
X9850777Y-14169484D01*
X9850777Y-14169484D02*
X9888872Y-14169484D01*
X9888872Y-14169484D02*
X9907920Y-14159960D01*
X9907920Y-14159960D02*
X9917444Y-14150436D01*
X9917444Y-14150436D02*
X9926968Y-14131388D01*
X9926968Y-14131388D02*
X9926968Y-14093293D01*
X9926968Y-14093293D02*
X9917444Y-14074246D01*
X9917444Y-14074246D02*
X9907920Y-14064722D01*
X9907920Y-14064722D02*
X9888872Y-14055198D01*
X10117444Y-14169484D02*
X10003158Y-14169484D01*
X10060301Y-14169484D02*
X10060301Y-13969484D01*
X10060301Y-13969484D02*
X10041253Y-13998055D01*
X10041253Y-13998055D02*
X10022206Y-14017103D01*
X10022206Y-14017103D02*
X10003158Y-14026627D01*
X10193634Y-13969484D02*
X10193634Y-14007579D01*
X10269825Y-13969484D02*
X10269825Y-14007579D01*
X10565063Y-14245674D02*
X10555539Y-14236150D01*
X10555539Y-14236150D02*
X10536491Y-14207579D01*
X10536491Y-14207579D02*
X10526968Y-14188531D01*
X10526968Y-14188531D02*
X10517444Y-14159960D01*
X10517444Y-14159960D02*
X10507920Y-14112341D01*
X10507920Y-14112341D02*
X10507920Y-14074246D01*
X10507920Y-14074246D02*
X10517444Y-14026627D01*
X10517444Y-14026627D02*
X10526968Y-13998055D01*
X10526968Y-13998055D02*
X10536491Y-13979008D01*
X10536491Y-13979008D02*
X10555539Y-13950436D01*
X10555539Y-13950436D02*
X10565063Y-13940912D01*
X10746015Y-14169484D02*
X10631730Y-14169484D01*
X10688872Y-14169484D02*
X10688872Y-13969484D01*
X10688872Y-13969484D02*
X10669825Y-13998055D01*
X10669825Y-13998055D02*
X10650777Y-14017103D01*
X10650777Y-14017103D02*
X10631730Y-14026627D01*
X10869825Y-13969484D02*
X10888872Y-13969484D01*
X10888872Y-13969484D02*
X10907920Y-13979008D01*
X10907920Y-13979008D02*
X10917444Y-13988531D01*
X10917444Y-13988531D02*
X10926968Y-14007579D01*
X10926968Y-14007579D02*
X10936491Y-14045674D01*
X10936491Y-14045674D02*
X10936491Y-14093293D01*
X10936491Y-14093293D02*
X10926968Y-14131388D01*
X10926968Y-14131388D02*
X10917444Y-14150436D01*
X10917444Y-14150436D02*
X10907920Y-14159960D01*
X10907920Y-14159960D02*
X10888872Y-14169484D01*
X10888872Y-14169484D02*
X10869825Y-14169484D01*
X10869825Y-14169484D02*
X10850777Y-14159960D01*
X10850777Y-14159960D02*
X10841253Y-14150436D01*
X10841253Y-14150436D02*
X10831730Y-14131388D01*
X10831730Y-14131388D02*
X10822206Y-14093293D01*
X10822206Y-14093293D02*
X10822206Y-14045674D01*
X10822206Y-14045674D02*
X10831730Y-14007579D01*
X10831730Y-14007579D02*
X10841253Y-13988531D01*
X10841253Y-13988531D02*
X10850777Y-13979008D01*
X10850777Y-13979008D02*
X10869825Y-13969484D01*
X11174587Y-14169484D02*
X11174587Y-13969484D01*
X11260301Y-14169484D02*
X11260301Y-14064722D01*
X11260301Y-14064722D02*
X11250777Y-14045674D01*
X11250777Y-14045674D02*
X11231730Y-14036150D01*
X11231730Y-14036150D02*
X11203158Y-14036150D01*
X11203158Y-14036150D02*
X11184111Y-14045674D01*
X11184111Y-14045674D02*
X11174587Y-14055198D01*
X11384110Y-14169484D02*
X11365063Y-14159960D01*
X11365063Y-14159960D02*
X11355539Y-14150436D01*
X11355539Y-14150436D02*
X11346015Y-14131388D01*
X11346015Y-14131388D02*
X11346015Y-14074246D01*
X11346015Y-14074246D02*
X11355539Y-14055198D01*
X11355539Y-14055198D02*
X11365063Y-14045674D01*
X11365063Y-14045674D02*
X11384110Y-14036150D01*
X11384110Y-14036150D02*
X11412682Y-14036150D01*
X11412682Y-14036150D02*
X11431730Y-14045674D01*
X11431730Y-14045674D02*
X11441253Y-14055198D01*
X11441253Y-14055198D02*
X11450777Y-14074246D01*
X11450777Y-14074246D02*
X11450777Y-14131388D01*
X11450777Y-14131388D02*
X11441253Y-14150436D01*
X11441253Y-14150436D02*
X11431730Y-14159960D01*
X11431730Y-14159960D02*
X11412682Y-14169484D01*
X11412682Y-14169484D02*
X11384110Y-14169484D01*
X11565063Y-14169484D02*
X11546015Y-14159960D01*
X11546015Y-14159960D02*
X11536491Y-14140912D01*
X11536491Y-14140912D02*
X11536491Y-13969484D01*
X11717444Y-14159960D02*
X11698396Y-14169484D01*
X11698396Y-14169484D02*
X11660301Y-14169484D01*
X11660301Y-14169484D02*
X11641253Y-14159960D01*
X11641253Y-14159960D02*
X11631730Y-14140912D01*
X11631730Y-14140912D02*
X11631730Y-14064722D01*
X11631730Y-14064722D02*
X11641253Y-14045674D01*
X11641253Y-14045674D02*
X11660301Y-14036150D01*
X11660301Y-14036150D02*
X11698396Y-14036150D01*
X11698396Y-14036150D02*
X11717444Y-14045674D01*
X11717444Y-14045674D02*
X11726968Y-14064722D01*
X11726968Y-14064722D02*
X11726968Y-14083769D01*
X11726968Y-14083769D02*
X11631730Y-14102817D01*
X11803158Y-14159960D02*
X11822206Y-14169484D01*
X11822206Y-14169484D02*
X11860301Y-14169484D01*
X11860301Y-14169484D02*
X11879349Y-14159960D01*
X11879349Y-14159960D02*
X11888872Y-14140912D01*
X11888872Y-14140912D02*
X11888872Y-14131388D01*
X11888872Y-14131388D02*
X11879349Y-14112341D01*
X11879349Y-14112341D02*
X11860301Y-14102817D01*
X11860301Y-14102817D02*
X11831730Y-14102817D01*
X11831730Y-14102817D02*
X11812682Y-14093293D01*
X11812682Y-14093293D02*
X11803158Y-14074246D01*
X11803158Y-14074246D02*
X11803158Y-14064722D01*
X11803158Y-14064722D02*
X11812682Y-14045674D01*
X11812682Y-14045674D02*
X11831730Y-14036150D01*
X11831730Y-14036150D02*
X11860301Y-14036150D01*
X11860301Y-14036150D02*
X11879349Y-14045674D01*
X11955539Y-14245674D02*
X11965063Y-14236150D01*
X11965063Y-14236150D02*
X11984111Y-14207579D01*
X11984111Y-14207579D02*
X11993634Y-14188531D01*
X11993634Y-14188531D02*
X12003158Y-14159960D01*
X12003158Y-14159960D02*
X12012682Y-14112341D01*
X12012682Y-14112341D02*
X12012682Y-14074246D01*
X12012682Y-14074246D02*
X12003158Y-14026627D01*
X12003158Y-14026627D02*
X11993634Y-13998055D01*
X11993634Y-13998055D02*
X11984111Y-13979008D01*
X11984111Y-13979008D02*
X11965063Y-13950436D01*
X11965063Y-13950436D02*
X11955539Y-13940912D01*
X6960711Y-14468711D02*
X6960711Y-14327289D01*
X6819289Y-14327289D01*
X6819289Y-14468711D01*
X6960711Y-14468711D01*
X7336491Y-14356150D02*
X7336491Y-14489484D01*
X7288872Y-14279960D02*
X7241253Y-14422817D01*
X7241253Y-14422817D02*
X7365062Y-14422817D01*
X7441253Y-14470436D02*
X7450777Y-14479960D01*
X7450777Y-14479960D02*
X7441253Y-14489484D01*
X7441253Y-14489484D02*
X7431729Y-14479960D01*
X7431729Y-14479960D02*
X7441253Y-14470436D01*
X7441253Y-14470436D02*
X7441253Y-14489484D01*
X7546015Y-14489484D02*
X7584110Y-14489484D01*
X7584110Y-14489484D02*
X7603158Y-14479960D01*
X7603158Y-14479960D02*
X7612682Y-14470436D01*
X7612682Y-14470436D02*
X7631729Y-14441865D01*
X7631729Y-14441865D02*
X7641253Y-14403769D01*
X7641253Y-14403769D02*
X7641253Y-14327579D01*
X7641253Y-14327579D02*
X7631729Y-14308531D01*
X7631729Y-14308531D02*
X7622205Y-14299008D01*
X7622205Y-14299008D02*
X7603158Y-14289484D01*
X7603158Y-14289484D02*
X7565062Y-14289484D01*
X7565062Y-14289484D02*
X7546015Y-14299008D01*
X7546015Y-14299008D02*
X7536491Y-14308531D01*
X7536491Y-14308531D02*
X7526967Y-14327579D01*
X7526967Y-14327579D02*
X7526967Y-14375198D01*
X7526967Y-14375198D02*
X7536491Y-14394246D01*
X7536491Y-14394246D02*
X7546015Y-14403769D01*
X7546015Y-14403769D02*
X7565062Y-14413293D01*
X7565062Y-14413293D02*
X7603158Y-14413293D01*
X7603158Y-14413293D02*
X7622205Y-14403769D01*
X7622205Y-14403769D02*
X7631729Y-14394246D01*
X7631729Y-14394246D02*
X7641253Y-14375198D01*
X7765062Y-14289484D02*
X7784110Y-14289484D01*
X7784110Y-14289484D02*
X7803158Y-14299008D01*
X7803158Y-14299008D02*
X7812682Y-14308531D01*
X7812682Y-14308531D02*
X7822205Y-14327579D01*
X7822205Y-14327579D02*
X7831729Y-14365674D01*
X7831729Y-14365674D02*
X7831729Y-14413293D01*
X7831729Y-14413293D02*
X7822205Y-14451388D01*
X7822205Y-14451388D02*
X7812682Y-14470436D01*
X7812682Y-14470436D02*
X7803158Y-14479960D01*
X7803158Y-14479960D02*
X7784110Y-14489484D01*
X7784110Y-14489484D02*
X7765062Y-14489484D01*
X7765062Y-14489484D02*
X7746015Y-14479960D01*
X7746015Y-14479960D02*
X7736491Y-14470436D01*
X7736491Y-14470436D02*
X7726967Y-14451388D01*
X7726967Y-14451388D02*
X7717443Y-14413293D01*
X7717443Y-14413293D02*
X7717443Y-14365674D01*
X7717443Y-14365674D02*
X7726967Y-14327579D01*
X7726967Y-14327579D02*
X7736491Y-14308531D01*
X7736491Y-14308531D02*
X7746015Y-14299008D01*
X7746015Y-14299008D02*
X7765062Y-14289484D01*
X7955539Y-14289484D02*
X7974586Y-14289484D01*
X7974586Y-14289484D02*
X7993634Y-14299008D01*
X7993634Y-14299008D02*
X8003158Y-14308531D01*
X8003158Y-14308531D02*
X8012682Y-14327579D01*
X8012682Y-14327579D02*
X8022205Y-14365674D01*
X8022205Y-14365674D02*
X8022205Y-14413293D01*
X8022205Y-14413293D02*
X8012682Y-14451388D01*
X8012682Y-14451388D02*
X8003158Y-14470436D01*
X8003158Y-14470436D02*
X7993634Y-14479960D01*
X7993634Y-14479960D02*
X7974586Y-14489484D01*
X7974586Y-14489484D02*
X7955539Y-14489484D01*
X7955539Y-14489484D02*
X7936491Y-14479960D01*
X7936491Y-14479960D02*
X7926967Y-14470436D01*
X7926967Y-14470436D02*
X7917443Y-14451388D01*
X7917443Y-14451388D02*
X7907920Y-14413293D01*
X7907920Y-14413293D02*
X7907920Y-14365674D01*
X7907920Y-14365674D02*
X7917443Y-14327579D01*
X7917443Y-14327579D02*
X7926967Y-14308531D01*
X7926967Y-14308531D02*
X7936491Y-14299008D01*
X7936491Y-14299008D02*
X7955539Y-14289484D01*
X8107920Y-14489484D02*
X8107920Y-14356150D01*
X8107920Y-14375198D02*
X8117443Y-14365674D01*
X8117443Y-14365674D02*
X8136491Y-14356150D01*
X8136491Y-14356150D02*
X8165063Y-14356150D01*
X8165063Y-14356150D02*
X8184110Y-14365674D01*
X8184110Y-14365674D02*
X8193634Y-14384722D01*
X8193634Y-14384722D02*
X8193634Y-14489484D01*
X8193634Y-14384722D02*
X8203158Y-14365674D01*
X8203158Y-14365674D02*
X8222205Y-14356150D01*
X8222205Y-14356150D02*
X8250777Y-14356150D01*
X8250777Y-14356150D02*
X8269824Y-14365674D01*
X8269824Y-14365674D02*
X8279348Y-14384722D01*
X8279348Y-14384722D02*
X8279348Y-14489484D01*
X8374586Y-14489484D02*
X8374586Y-14356150D01*
X8374586Y-14375198D02*
X8384110Y-14365674D01*
X8384110Y-14365674D02*
X8403158Y-14356150D01*
X8403158Y-14356150D02*
X8431729Y-14356150D01*
X8431729Y-14356150D02*
X8450777Y-14365674D01*
X8450777Y-14365674D02*
X8460301Y-14384722D01*
X8460301Y-14384722D02*
X8460301Y-14489484D01*
X8460301Y-14384722D02*
X8469825Y-14365674D01*
X8469825Y-14365674D02*
X8488872Y-14356150D01*
X8488872Y-14356150D02*
X8517444Y-14356150D01*
X8517444Y-14356150D02*
X8536491Y-14365674D01*
X8536491Y-14365674D02*
X8546015Y-14384722D01*
X8546015Y-14384722D02*
X8546015Y-14489484D01*
X8936491Y-14279960D02*
X8765063Y-14537103D01*
X9193634Y-14289484D02*
X9212682Y-14289484D01*
X9212682Y-14289484D02*
X9231729Y-14299008D01*
X9231729Y-14299008D02*
X9241253Y-14308531D01*
X9241253Y-14308531D02*
X9250777Y-14327579D01*
X9250777Y-14327579D02*
X9260301Y-14365674D01*
X9260301Y-14365674D02*
X9260301Y-14413293D01*
X9260301Y-14413293D02*
X9250777Y-14451388D01*
X9250777Y-14451388D02*
X9241253Y-14470436D01*
X9241253Y-14470436D02*
X9231729Y-14479960D01*
X9231729Y-14479960D02*
X9212682Y-14489484D01*
X9212682Y-14489484D02*
X9193634Y-14489484D01*
X9193634Y-14489484D02*
X9174587Y-14479960D01*
X9174587Y-14479960D02*
X9165063Y-14470436D01*
X9165063Y-14470436D02*
X9155539Y-14451388D01*
X9155539Y-14451388D02*
X9146015Y-14413293D01*
X9146015Y-14413293D02*
X9146015Y-14365674D01*
X9146015Y-14365674D02*
X9155539Y-14327579D01*
X9155539Y-14327579D02*
X9165063Y-14308531D01*
X9165063Y-14308531D02*
X9174587Y-14299008D01*
X9174587Y-14299008D02*
X9193634Y-14289484D01*
X9346015Y-14470436D02*
X9355539Y-14479960D01*
X9355539Y-14479960D02*
X9346015Y-14489484D01*
X9346015Y-14489484D02*
X9336491Y-14479960D01*
X9336491Y-14479960D02*
X9346015Y-14470436D01*
X9346015Y-14470436D02*
X9346015Y-14489484D01*
X9546015Y-14489484D02*
X9431729Y-14489484D01*
X9488872Y-14489484D02*
X9488872Y-14289484D01*
X9488872Y-14289484D02*
X9469825Y-14318055D01*
X9469825Y-14318055D02*
X9450777Y-14337103D01*
X9450777Y-14337103D02*
X9431729Y-14346627D01*
X9641253Y-14489484D02*
X9679348Y-14489484D01*
X9679348Y-14489484D02*
X9698396Y-14479960D01*
X9698396Y-14479960D02*
X9707920Y-14470436D01*
X9707920Y-14470436D02*
X9726968Y-14441865D01*
X9726968Y-14441865D02*
X9736491Y-14403769D01*
X9736491Y-14403769D02*
X9736491Y-14327579D01*
X9736491Y-14327579D02*
X9726968Y-14308531D01*
X9726968Y-14308531D02*
X9717444Y-14299008D01*
X9717444Y-14299008D02*
X9698396Y-14289484D01*
X9698396Y-14289484D02*
X9660301Y-14289484D01*
X9660301Y-14289484D02*
X9641253Y-14299008D01*
X9641253Y-14299008D02*
X9631729Y-14308531D01*
X9631729Y-14308531D02*
X9622206Y-14327579D01*
X9622206Y-14327579D02*
X9622206Y-14375198D01*
X9622206Y-14375198D02*
X9631729Y-14394246D01*
X9631729Y-14394246D02*
X9641253Y-14403769D01*
X9641253Y-14403769D02*
X9660301Y-14413293D01*
X9660301Y-14413293D02*
X9698396Y-14413293D01*
X9698396Y-14413293D02*
X9717444Y-14403769D01*
X9717444Y-14403769D02*
X9726968Y-14394246D01*
X9726968Y-14394246D02*
X9736491Y-14375198D01*
X9812682Y-14308531D02*
X9822206Y-14299008D01*
X9822206Y-14299008D02*
X9841253Y-14289484D01*
X9841253Y-14289484D02*
X9888872Y-14289484D01*
X9888872Y-14289484D02*
X9907920Y-14299008D01*
X9907920Y-14299008D02*
X9917444Y-14308531D01*
X9917444Y-14308531D02*
X9926968Y-14327579D01*
X9926968Y-14327579D02*
X9926968Y-14346627D01*
X9926968Y-14346627D02*
X9917444Y-14375198D01*
X9917444Y-14375198D02*
X9803158Y-14489484D01*
X9803158Y-14489484D02*
X9926968Y-14489484D01*
X10022206Y-14489484D02*
X10060301Y-14489484D01*
X10060301Y-14489484D02*
X10079349Y-14479960D01*
X10079349Y-14479960D02*
X10088872Y-14470436D01*
X10088872Y-14470436D02*
X10107920Y-14441865D01*
X10107920Y-14441865D02*
X10117444Y-14403769D01*
X10117444Y-14403769D02*
X10117444Y-14327579D01*
X10117444Y-14327579D02*
X10107920Y-14308531D01*
X10107920Y-14308531D02*
X10098396Y-14299008D01*
X10098396Y-14299008D02*
X10079349Y-14289484D01*
X10079349Y-14289484D02*
X10041253Y-14289484D01*
X10041253Y-14289484D02*
X10022206Y-14299008D01*
X10022206Y-14299008D02*
X10012682Y-14308531D01*
X10012682Y-14308531D02*
X10003158Y-14327579D01*
X10003158Y-14327579D02*
X10003158Y-14375198D01*
X10003158Y-14375198D02*
X10012682Y-14394246D01*
X10012682Y-14394246D02*
X10022206Y-14403769D01*
X10022206Y-14403769D02*
X10041253Y-14413293D01*
X10041253Y-14413293D02*
X10079349Y-14413293D01*
X10079349Y-14413293D02*
X10098396Y-14403769D01*
X10098396Y-14403769D02*
X10107920Y-14394246D01*
X10107920Y-14394246D02*
X10117444Y-14375198D01*
X10193634Y-14289484D02*
X10193634Y-14327579D01*
X10269825Y-14289484D02*
X10269825Y-14327579D01*
X10565063Y-14565674D02*
X10555539Y-14556150D01*
X10555539Y-14556150D02*
X10536491Y-14527579D01*
X10536491Y-14527579D02*
X10526968Y-14508531D01*
X10526968Y-14508531D02*
X10517444Y-14479960D01*
X10517444Y-14479960D02*
X10507920Y-14432341D01*
X10507920Y-14432341D02*
X10507920Y-14394246D01*
X10507920Y-14394246D02*
X10517444Y-14346627D01*
X10517444Y-14346627D02*
X10526968Y-14318055D01*
X10526968Y-14318055D02*
X10536491Y-14299008D01*
X10536491Y-14299008D02*
X10555539Y-14270436D01*
X10555539Y-14270436D02*
X10565063Y-14260912D01*
X10746015Y-14489484D02*
X10631730Y-14489484D01*
X10688872Y-14489484D02*
X10688872Y-14289484D01*
X10688872Y-14289484D02*
X10669825Y-14318055D01*
X10669825Y-14318055D02*
X10650777Y-14337103D01*
X10650777Y-14337103D02*
X10631730Y-14346627D01*
X10984111Y-14489484D02*
X10984111Y-14289484D01*
X11069825Y-14489484D02*
X11069825Y-14384722D01*
X11069825Y-14384722D02*
X11060301Y-14365674D01*
X11060301Y-14365674D02*
X11041253Y-14356150D01*
X11041253Y-14356150D02*
X11012682Y-14356150D01*
X11012682Y-14356150D02*
X10993634Y-14365674D01*
X10993634Y-14365674D02*
X10984111Y-14375198D01*
X11193634Y-14489484D02*
X11174587Y-14479960D01*
X11174587Y-14479960D02*
X11165063Y-14470436D01*
X11165063Y-14470436D02*
X11155539Y-14451388D01*
X11155539Y-14451388D02*
X11155539Y-14394246D01*
X11155539Y-14394246D02*
X11165063Y-14375198D01*
X11165063Y-14375198D02*
X11174587Y-14365674D01*
X11174587Y-14365674D02*
X11193634Y-14356150D01*
X11193634Y-14356150D02*
X11222206Y-14356150D01*
X11222206Y-14356150D02*
X11241253Y-14365674D01*
X11241253Y-14365674D02*
X11250777Y-14375198D01*
X11250777Y-14375198D02*
X11260301Y-14394246D01*
X11260301Y-14394246D02*
X11260301Y-14451388D01*
X11260301Y-14451388D02*
X11250777Y-14470436D01*
X11250777Y-14470436D02*
X11241253Y-14479960D01*
X11241253Y-14479960D02*
X11222206Y-14489484D01*
X11222206Y-14489484D02*
X11193634Y-14489484D01*
X11374587Y-14489484D02*
X11355539Y-14479960D01*
X11355539Y-14479960D02*
X11346015Y-14460912D01*
X11346015Y-14460912D02*
X11346015Y-14289484D01*
X11526968Y-14479960D02*
X11507920Y-14489484D01*
X11507920Y-14489484D02*
X11469825Y-14489484D01*
X11469825Y-14489484D02*
X11450777Y-14479960D01*
X11450777Y-14479960D02*
X11441253Y-14460912D01*
X11441253Y-14460912D02*
X11441253Y-14384722D01*
X11441253Y-14384722D02*
X11450777Y-14365674D01*
X11450777Y-14365674D02*
X11469825Y-14356150D01*
X11469825Y-14356150D02*
X11507920Y-14356150D01*
X11507920Y-14356150D02*
X11526968Y-14365674D01*
X11526968Y-14365674D02*
X11536491Y-14384722D01*
X11536491Y-14384722D02*
X11536491Y-14403769D01*
X11536491Y-14403769D02*
X11441253Y-14422817D01*
X11603158Y-14565674D02*
X11612682Y-14556150D01*
X11612682Y-14556150D02*
X11631730Y-14527579D01*
X11631730Y-14527579D02*
X11641253Y-14508531D01*
X11641253Y-14508531D02*
X11650777Y-14479960D01*
X11650777Y-14479960D02*
X11660301Y-14432341D01*
X11660301Y-14432341D02*
X11660301Y-14394246D01*
X11660301Y-14394246D02*
X11650777Y-14346627D01*
X11650777Y-14346627D02*
X11641253Y-14318055D01*
X11641253Y-14318055D02*
X11631730Y-14299008D01*
X11631730Y-14299008D02*
X11612682Y-14270436D01*
X11612682Y-14270436D02*
X11603158Y-14260912D01*
X6890000Y-14818000D02*
X6990000Y-14718000D01*
X6890000Y-14618000D01*
X6790000Y-14718000D01*
X6890000Y-14818000D01*
X7346015Y-14609484D02*
X7250777Y-14609484D01*
X7250777Y-14609484D02*
X7241253Y-14704722D01*
X7241253Y-14704722D02*
X7250777Y-14695198D01*
X7250777Y-14695198D02*
X7269824Y-14685674D01*
X7269824Y-14685674D02*
X7317443Y-14685674D01*
X7317443Y-14685674D02*
X7336491Y-14695198D01*
X7336491Y-14695198D02*
X7346015Y-14704722D01*
X7346015Y-14704722D02*
X7355539Y-14723769D01*
X7355539Y-14723769D02*
X7355539Y-14771388D01*
X7355539Y-14771388D02*
X7346015Y-14790436D01*
X7346015Y-14790436D02*
X7336491Y-14799960D01*
X7336491Y-14799960D02*
X7317443Y-14809484D01*
X7317443Y-14809484D02*
X7269824Y-14809484D01*
X7269824Y-14809484D02*
X7250777Y-14799960D01*
X7250777Y-14799960D02*
X7241253Y-14790436D01*
X7441253Y-14790436D02*
X7450777Y-14799960D01*
X7450777Y-14799960D02*
X7441253Y-14809484D01*
X7441253Y-14809484D02*
X7431729Y-14799960D01*
X7431729Y-14799960D02*
X7441253Y-14790436D01*
X7441253Y-14790436D02*
X7441253Y-14809484D01*
X7546015Y-14809484D02*
X7584110Y-14809484D01*
X7584110Y-14809484D02*
X7603158Y-14799960D01*
X7603158Y-14799960D02*
X7612682Y-14790436D01*
X7612682Y-14790436D02*
X7631729Y-14761865D01*
X7631729Y-14761865D02*
X7641253Y-14723769D01*
X7641253Y-14723769D02*
X7641253Y-14647579D01*
X7641253Y-14647579D02*
X7631729Y-14628531D01*
X7631729Y-14628531D02*
X7622205Y-14619008D01*
X7622205Y-14619008D02*
X7603158Y-14609484D01*
X7603158Y-14609484D02*
X7565062Y-14609484D01*
X7565062Y-14609484D02*
X7546015Y-14619008D01*
X7546015Y-14619008D02*
X7536491Y-14628531D01*
X7536491Y-14628531D02*
X7526967Y-14647579D01*
X7526967Y-14647579D02*
X7526967Y-14695198D01*
X7526967Y-14695198D02*
X7536491Y-14714246D01*
X7536491Y-14714246D02*
X7546015Y-14723769D01*
X7546015Y-14723769D02*
X7565062Y-14733293D01*
X7565062Y-14733293D02*
X7603158Y-14733293D01*
X7603158Y-14733293D02*
X7622205Y-14723769D01*
X7622205Y-14723769D02*
X7631729Y-14714246D01*
X7631729Y-14714246D02*
X7641253Y-14695198D01*
X7765062Y-14609484D02*
X7784110Y-14609484D01*
X7784110Y-14609484D02*
X7803158Y-14619008D01*
X7803158Y-14619008D02*
X7812682Y-14628531D01*
X7812682Y-14628531D02*
X7822205Y-14647579D01*
X7822205Y-14647579D02*
X7831729Y-14685674D01*
X7831729Y-14685674D02*
X7831729Y-14733293D01*
X7831729Y-14733293D02*
X7822205Y-14771388D01*
X7822205Y-14771388D02*
X7812682Y-14790436D01*
X7812682Y-14790436D02*
X7803158Y-14799960D01*
X7803158Y-14799960D02*
X7784110Y-14809484D01*
X7784110Y-14809484D02*
X7765062Y-14809484D01*
X7765062Y-14809484D02*
X7746015Y-14799960D01*
X7746015Y-14799960D02*
X7736491Y-14790436D01*
X7736491Y-14790436D02*
X7726967Y-14771388D01*
X7726967Y-14771388D02*
X7717443Y-14733293D01*
X7717443Y-14733293D02*
X7717443Y-14685674D01*
X7717443Y-14685674D02*
X7726967Y-14647579D01*
X7726967Y-14647579D02*
X7736491Y-14628531D01*
X7736491Y-14628531D02*
X7746015Y-14619008D01*
X7746015Y-14619008D02*
X7765062Y-14609484D01*
X7955539Y-14609484D02*
X7974586Y-14609484D01*
X7974586Y-14609484D02*
X7993634Y-14619008D01*
X7993634Y-14619008D02*
X8003158Y-14628531D01*
X8003158Y-14628531D02*
X8012682Y-14647579D01*
X8012682Y-14647579D02*
X8022205Y-14685674D01*
X8022205Y-14685674D02*
X8022205Y-14733293D01*
X8022205Y-14733293D02*
X8012682Y-14771388D01*
X8012682Y-14771388D02*
X8003158Y-14790436D01*
X8003158Y-14790436D02*
X7993634Y-14799960D01*
X7993634Y-14799960D02*
X7974586Y-14809484D01*
X7974586Y-14809484D02*
X7955539Y-14809484D01*
X7955539Y-14809484D02*
X7936491Y-14799960D01*
X7936491Y-14799960D02*
X7926967Y-14790436D01*
X7926967Y-14790436D02*
X7917443Y-14771388D01*
X7917443Y-14771388D02*
X7907920Y-14733293D01*
X7907920Y-14733293D02*
X7907920Y-14685674D01*
X7907920Y-14685674D02*
X7917443Y-14647579D01*
X7917443Y-14647579D02*
X7926967Y-14628531D01*
X7926967Y-14628531D02*
X7936491Y-14619008D01*
X7936491Y-14619008D02*
X7955539Y-14609484D01*
X8107920Y-14809484D02*
X8107920Y-14676150D01*
X8107920Y-14695198D02*
X8117443Y-14685674D01*
X8117443Y-14685674D02*
X8136491Y-14676150D01*
X8136491Y-14676150D02*
X8165063Y-14676150D01*
X8165063Y-14676150D02*
X8184110Y-14685674D01*
X8184110Y-14685674D02*
X8193634Y-14704722D01*
X8193634Y-14704722D02*
X8193634Y-14809484D01*
X8193634Y-14704722D02*
X8203158Y-14685674D01*
X8203158Y-14685674D02*
X8222205Y-14676150D01*
X8222205Y-14676150D02*
X8250777Y-14676150D01*
X8250777Y-14676150D02*
X8269824Y-14685674D01*
X8269824Y-14685674D02*
X8279348Y-14704722D01*
X8279348Y-14704722D02*
X8279348Y-14809484D01*
X8374586Y-14809484D02*
X8374586Y-14676150D01*
X8374586Y-14695198D02*
X8384110Y-14685674D01*
X8384110Y-14685674D02*
X8403158Y-14676150D01*
X8403158Y-14676150D02*
X8431729Y-14676150D01*
X8431729Y-14676150D02*
X8450777Y-14685674D01*
X8450777Y-14685674D02*
X8460301Y-14704722D01*
X8460301Y-14704722D02*
X8460301Y-14809484D01*
X8460301Y-14704722D02*
X8469825Y-14685674D01*
X8469825Y-14685674D02*
X8488872Y-14676150D01*
X8488872Y-14676150D02*
X8517444Y-14676150D01*
X8517444Y-14676150D02*
X8536491Y-14685674D01*
X8536491Y-14685674D02*
X8546015Y-14704722D01*
X8546015Y-14704722D02*
X8546015Y-14809484D01*
X8936491Y-14599960D02*
X8765063Y-14857103D01*
X9193634Y-14609484D02*
X9212682Y-14609484D01*
X9212682Y-14609484D02*
X9231729Y-14619008D01*
X9231729Y-14619008D02*
X9241253Y-14628531D01*
X9241253Y-14628531D02*
X9250777Y-14647579D01*
X9250777Y-14647579D02*
X9260301Y-14685674D01*
X9260301Y-14685674D02*
X9260301Y-14733293D01*
X9260301Y-14733293D02*
X9250777Y-14771388D01*
X9250777Y-14771388D02*
X9241253Y-14790436D01*
X9241253Y-14790436D02*
X9231729Y-14799960D01*
X9231729Y-14799960D02*
X9212682Y-14809484D01*
X9212682Y-14809484D02*
X9193634Y-14809484D01*
X9193634Y-14809484D02*
X9174587Y-14799960D01*
X9174587Y-14799960D02*
X9165063Y-14790436D01*
X9165063Y-14790436D02*
X9155539Y-14771388D01*
X9155539Y-14771388D02*
X9146015Y-14733293D01*
X9146015Y-14733293D02*
X9146015Y-14685674D01*
X9146015Y-14685674D02*
X9155539Y-14647579D01*
X9155539Y-14647579D02*
X9165063Y-14628531D01*
X9165063Y-14628531D02*
X9174587Y-14619008D01*
X9174587Y-14619008D02*
X9193634Y-14609484D01*
X9346015Y-14790436D02*
X9355539Y-14799960D01*
X9355539Y-14799960D02*
X9346015Y-14809484D01*
X9346015Y-14809484D02*
X9336491Y-14799960D01*
X9336491Y-14799960D02*
X9346015Y-14790436D01*
X9346015Y-14790436D02*
X9346015Y-14809484D01*
X9431729Y-14628531D02*
X9441253Y-14619008D01*
X9441253Y-14619008D02*
X9460301Y-14609484D01*
X9460301Y-14609484D02*
X9507920Y-14609484D01*
X9507920Y-14609484D02*
X9526968Y-14619008D01*
X9526968Y-14619008D02*
X9536491Y-14628531D01*
X9536491Y-14628531D02*
X9546015Y-14647579D01*
X9546015Y-14647579D02*
X9546015Y-14666627D01*
X9546015Y-14666627D02*
X9536491Y-14695198D01*
X9536491Y-14695198D02*
X9422206Y-14809484D01*
X9422206Y-14809484D02*
X9546015Y-14809484D01*
X9612682Y-14609484D02*
X9736491Y-14609484D01*
X9736491Y-14609484D02*
X9669825Y-14685674D01*
X9669825Y-14685674D02*
X9698396Y-14685674D01*
X9698396Y-14685674D02*
X9717444Y-14695198D01*
X9717444Y-14695198D02*
X9726968Y-14704722D01*
X9726968Y-14704722D02*
X9736491Y-14723769D01*
X9736491Y-14723769D02*
X9736491Y-14771388D01*
X9736491Y-14771388D02*
X9726968Y-14790436D01*
X9726968Y-14790436D02*
X9717444Y-14799960D01*
X9717444Y-14799960D02*
X9698396Y-14809484D01*
X9698396Y-14809484D02*
X9641253Y-14809484D01*
X9641253Y-14809484D02*
X9622206Y-14799960D01*
X9622206Y-14799960D02*
X9612682Y-14790436D01*
X9812682Y-14628531D02*
X9822206Y-14619008D01*
X9822206Y-14619008D02*
X9841253Y-14609484D01*
X9841253Y-14609484D02*
X9888872Y-14609484D01*
X9888872Y-14609484D02*
X9907920Y-14619008D01*
X9907920Y-14619008D02*
X9917444Y-14628531D01*
X9917444Y-14628531D02*
X9926968Y-14647579D01*
X9926968Y-14647579D02*
X9926968Y-14666627D01*
X9926968Y-14666627D02*
X9917444Y-14695198D01*
X9917444Y-14695198D02*
X9803158Y-14809484D01*
X9803158Y-14809484D02*
X9926968Y-14809484D01*
X9993634Y-14609484D02*
X10117444Y-14609484D01*
X10117444Y-14609484D02*
X10050777Y-14685674D01*
X10050777Y-14685674D02*
X10079349Y-14685674D01*
X10079349Y-14685674D02*
X10098396Y-14695198D01*
X10098396Y-14695198D02*
X10107920Y-14704722D01*
X10107920Y-14704722D02*
X10117444Y-14723769D01*
X10117444Y-14723769D02*
X10117444Y-14771388D01*
X10117444Y-14771388D02*
X10107920Y-14790436D01*
X10107920Y-14790436D02*
X10098396Y-14799960D01*
X10098396Y-14799960D02*
X10079349Y-14809484D01*
X10079349Y-14809484D02*
X10022206Y-14809484D01*
X10022206Y-14809484D02*
X10003158Y-14799960D01*
X10003158Y-14799960D02*
X9993634Y-14790436D01*
X10193634Y-14609484D02*
X10193634Y-14647579D01*
X10269825Y-14609484D02*
X10269825Y-14647579D01*
X10565063Y-14885674D02*
X10555539Y-14876150D01*
X10555539Y-14876150D02*
X10536491Y-14847579D01*
X10536491Y-14847579D02*
X10526968Y-14828531D01*
X10526968Y-14828531D02*
X10517444Y-14799960D01*
X10517444Y-14799960D02*
X10507920Y-14752341D01*
X10507920Y-14752341D02*
X10507920Y-14714246D01*
X10507920Y-14714246D02*
X10517444Y-14666627D01*
X10517444Y-14666627D02*
X10526968Y-14638055D01*
X10526968Y-14638055D02*
X10536491Y-14619008D01*
X10536491Y-14619008D02*
X10555539Y-14590436D01*
X10555539Y-14590436D02*
X10565063Y-14580912D01*
X10631730Y-14628531D02*
X10641253Y-14619008D01*
X10641253Y-14619008D02*
X10660301Y-14609484D01*
X10660301Y-14609484D02*
X10707920Y-14609484D01*
X10707920Y-14609484D02*
X10726968Y-14619008D01*
X10726968Y-14619008D02*
X10736491Y-14628531D01*
X10736491Y-14628531D02*
X10746015Y-14647579D01*
X10746015Y-14647579D02*
X10746015Y-14666627D01*
X10746015Y-14666627D02*
X10736491Y-14695198D01*
X10736491Y-14695198D02*
X10622206Y-14809484D01*
X10622206Y-14809484D02*
X10746015Y-14809484D01*
X10984111Y-14809484D02*
X10984111Y-14609484D01*
X11069825Y-14809484D02*
X11069825Y-14704722D01*
X11069825Y-14704722D02*
X11060301Y-14685674D01*
X11060301Y-14685674D02*
X11041253Y-14676150D01*
X11041253Y-14676150D02*
X11012682Y-14676150D01*
X11012682Y-14676150D02*
X10993634Y-14685674D01*
X10993634Y-14685674D02*
X10984111Y-14695198D01*
X11193634Y-14809484D02*
X11174587Y-14799960D01*
X11174587Y-14799960D02*
X11165063Y-14790436D01*
X11165063Y-14790436D02*
X11155539Y-14771388D01*
X11155539Y-14771388D02*
X11155539Y-14714246D01*
X11155539Y-14714246D02*
X11165063Y-14695198D01*
X11165063Y-14695198D02*
X11174587Y-14685674D01*
X11174587Y-14685674D02*
X11193634Y-14676150D01*
X11193634Y-14676150D02*
X11222206Y-14676150D01*
X11222206Y-14676150D02*
X11241253Y-14685674D01*
X11241253Y-14685674D02*
X11250777Y-14695198D01*
X11250777Y-14695198D02*
X11260301Y-14714246D01*
X11260301Y-14714246D02*
X11260301Y-14771388D01*
X11260301Y-14771388D02*
X11250777Y-14790436D01*
X11250777Y-14790436D02*
X11241253Y-14799960D01*
X11241253Y-14799960D02*
X11222206Y-14809484D01*
X11222206Y-14809484D02*
X11193634Y-14809484D01*
X11374587Y-14809484D02*
X11355539Y-14799960D01*
X11355539Y-14799960D02*
X11346015Y-14780912D01*
X11346015Y-14780912D02*
X11346015Y-14609484D01*
X11526968Y-14799960D02*
X11507920Y-14809484D01*
X11507920Y-14809484D02*
X11469825Y-14809484D01*
X11469825Y-14809484D02*
X11450777Y-14799960D01*
X11450777Y-14799960D02*
X11441253Y-14780912D01*
X11441253Y-14780912D02*
X11441253Y-14704722D01*
X11441253Y-14704722D02*
X11450777Y-14685674D01*
X11450777Y-14685674D02*
X11469825Y-14676150D01*
X11469825Y-14676150D02*
X11507920Y-14676150D01*
X11507920Y-14676150D02*
X11526968Y-14685674D01*
X11526968Y-14685674D02*
X11536491Y-14704722D01*
X11536491Y-14704722D02*
X11536491Y-14723769D01*
X11536491Y-14723769D02*
X11441253Y-14742817D01*
X11612682Y-14799960D02*
X11631730Y-14809484D01*
X11631730Y-14809484D02*
X11669825Y-14809484D01*
X11669825Y-14809484D02*
X11688872Y-14799960D01*
X11688872Y-14799960D02*
X11698396Y-14780912D01*
X11698396Y-14780912D02*
X11698396Y-14771388D01*
X11698396Y-14771388D02*
X11688872Y-14752341D01*
X11688872Y-14752341D02*
X11669825Y-14742817D01*
X11669825Y-14742817D02*
X11641253Y-14742817D01*
X11641253Y-14742817D02*
X11622206Y-14733293D01*
X11622206Y-14733293D02*
X11612682Y-14714246D01*
X11612682Y-14714246D02*
X11612682Y-14704722D01*
X11612682Y-14704722D02*
X11622206Y-14685674D01*
X11622206Y-14685674D02*
X11641253Y-14676150D01*
X11641253Y-14676150D02*
X11669825Y-14676150D01*
X11669825Y-14676150D02*
X11688872Y-14685674D01*
X11765063Y-14885674D02*
X11774587Y-14876150D01*
X11774587Y-14876150D02*
X11793634Y-14847579D01*
X11793634Y-14847579D02*
X11803158Y-14828531D01*
X11803158Y-14828531D02*
X11812682Y-14799960D01*
X11812682Y-14799960D02*
X11822206Y-14752341D01*
X11822206Y-14752341D02*
X11822206Y-14714246D01*
X11822206Y-14714246D02*
X11812682Y-14666627D01*
X11812682Y-14666627D02*
X11803158Y-14638055D01*
X11803158Y-14638055D02*
X11793634Y-14619008D01*
X11793634Y-14619008D02*
X11774587Y-14590436D01*
X11774587Y-14590436D02*
X11765063Y-14580912D01*
M02*
