M48
; DRILL file {KiCad 9.0.0} date 2025-04-18T00:29:27+0200
; FORMAT={-:-/ absolute / metric / decimal}
; #@! TF.CreationDate,2025-04-18T00:29:27+02:00
; #@! TF.GenerationSoftware,Kicad,Pcbnew,9.0.0
; #@! TF.FileFunction,Plated,1,2,PTH
FMAT,2
METRIC
; #@! TA.AperFunction,Plated,PTH,ComponentDrill
T1C0.800
; #@! TA.AperFunction,Plated,PTH,ComponentDrill
T2C1.000
; #@! TA.AperFunction,Plated,PTH,ViaDrill
T3C3.000
; #@! TA.AperFunction,Plated,PTH,ViaDrill
T4C4.900
; #@! TA.AperFunction,Plated,PTH,ViaDrill
T5C5.900
%
G90
G05
T1
X195.55Y-61.78
X195.55Y-64.32
X195.55Y-66.86
X208.495Y-111.89
X208.495Y-114.43
X208.495Y-116.97
T2
X73.44Y-81.36
X73.68Y-62.14
X76.29Y-103.83
X77.48Y-111.7
X79.34Y-57.41
X79.34Y-59.95
X79.34Y-62.49
X79.34Y-65.03
X79.34Y-67.57
X79.34Y-70.11
X79.34Y-72.65
X79.34Y-75.19
X79.34Y-77.73
X79.34Y-80.27
X79.34Y-82.81
X79.34Y-85.35
X79.34Y-87.89
X79.34Y-90.43
X79.34Y-92.97
X79.34Y-95.51
X80.02Y-111.7
X82.56Y-111.7
X85.1Y-111.7
X87.64Y-111.7
X90.18Y-111.7
X99.66Y-67.57
X99.66Y-70.11
X99.66Y-72.65
X99.66Y-75.19
X99.66Y-77.73
X99.66Y-80.27
X99.66Y-82.81
X99.66Y-85.35
X99.66Y-87.89
X99.66Y-90.43
X99.66Y-92.97
X99.66Y-95.51
X103.44Y-111.75
X104.57Y-57.9
X104.57Y-60.44
X104.57Y-62.98
X104.57Y-65.52
X104.57Y-68.06
X104.57Y-70.6
X104.57Y-73.14
X104.57Y-75.68
X104.57Y-78.22
X104.57Y-80.76
X104.57Y-83.3
X104.57Y-85.84
X104.57Y-88.38
X104.57Y-90.92
X104.57Y-93.46
X104.57Y-96.0
X105.98Y-111.75
X108.52Y-111.75
X111.06Y-111.75
X113.6Y-111.75
X116.14Y-111.75
X124.89Y-68.06
X124.89Y-70.6
X124.89Y-73.14
X124.89Y-75.68
X124.89Y-78.22
X124.89Y-80.76
X124.89Y-83.3
X124.89Y-85.84
X124.89Y-88.38
X124.89Y-90.92
X124.89Y-93.46
X124.89Y-96.0
X127.31Y-111.96
X129.54Y-57.27
X129.54Y-59.81
X129.54Y-62.35
X129.54Y-64.89
X129.54Y-67.43
X129.54Y-69.97
X129.54Y-72.51
X129.54Y-75.05
X129.54Y-77.59
X129.54Y-80.13
X129.54Y-82.67
X129.54Y-85.21
X129.54Y-87.75
X129.54Y-90.29
X129.54Y-92.83
X129.54Y-95.37
X129.85Y-111.96
X132.39Y-111.96
X134.93Y-111.96
X137.47Y-111.96
X140.01Y-111.96
X142.55Y-111.96
X145.09Y-111.96
X147.63Y-111.96
X149.86Y-67.43
X149.86Y-69.97
X149.86Y-72.51
X149.86Y-75.05
X149.86Y-77.59
X149.86Y-80.13
X149.86Y-82.67
X149.86Y-85.21
X149.86Y-87.75
X149.86Y-90.29
X149.86Y-92.83
X149.86Y-95.37
X154.13Y-58.85
X162.96Y-111.99
X183.8Y-112.35
X190.56Y-75.97
X190.56Y-78.51
X190.56Y-81.05
X190.56Y-83.59
X190.59Y-54.27
X191.22Y-92.7
X191.75Y-63.9
X191.75Y-66.4
X213.595Y-122.21
X213.595Y-124.75
X216.355Y-109.78
X216.395Y-114.45
X218.19Y-121.64
X218.19Y-126.14
X218.895Y-109.78
X218.935Y-114.45
X221.435Y-109.78
X221.475Y-114.45
X223.975Y-109.78
X224.015Y-114.45
X224.69Y-121.64
X224.69Y-126.14
X231.345Y-112.12
X231.345Y-114.66
T3
X74.43Y-55.01
X74.99Y-88.25
X81.88Y-105.39
X192.13Y-105.33
X195.6Y-53.37
X195.7Y-125.79
X207.665Y-102.39
X207.665Y-125.43
X230.715Y-125.43
X230.845Y-102.39
T4
X138.23Y-104.82
T5
X115.75Y-105.73
X151.4Y-105.1
M30
