%TF.GenerationSoftware,KiCad,Pcbnew,9.0.0*%
%TF.CreationDate,2025-04-18T00:29:00+02:00*%
%TF.ProjectId,Omni-X-II-PCB,4f6d6e69-2d58-42d4-9949-2d5043422e6b,rev?*%
%TF.SameCoordinates,Original*%
%TF.FileFunction,Copper,L2,Bot*%
%TF.FilePolarity,Positive*%
%FSLAX46Y46*%
G04 Gerber Fmt 4.6, Leading zero omitted, Abs format (unit mm)*
G04 Created by KiCad (PCBNEW 9.0.0) date 2025-04-18 00:29:00*
%MOMM*%
%LPD*%
G01*
G04 APERTURE LIST*
G04 Aperture macros list*
%AMRoundRect*
0 Rectangle with rounded corners*
0 $1 Rounding radius*
0 $2 $3 $4 $5 $6 $7 $8 $9 X,Y pos of 4 corners*
0 Add a 4 corners polygon primitive as box body*
4,1,4,$2,$3,$4,$5,$6,$7,$8,$9,$2,$3,0*
0 Add four circle primitives for the rounded corners*
1,1,$1+$1,$2,$3*
1,1,$1+$1,$4,$5*
1,1,$1+$1,$6,$7*
1,1,$1+$1,$8,$9*
0 Add four rect primitives between the rounded corners*
20,1,$1+$1,$2,$3,$4,$5,0*
20,1,$1+$1,$4,$5,$6,$7,0*
20,1,$1+$1,$6,$7,$8,$9,0*
20,1,$1+$1,$8,$9,$2,$3,0*%
G04 Aperture macros list end*
%TA.AperFunction,ComponentPad*%
%ADD10R,1.700000X1.700000*%
%TD*%
%TA.AperFunction,ComponentPad*%
%ADD11O,1.500000X2.500000*%
%TD*%
%TA.AperFunction,ComponentPad*%
%ADD12O,1.700000X1.700000*%
%TD*%
%TA.AperFunction,ComponentPad*%
%ADD13RoundRect,0.250000X-0.750000X0.600000X-0.750000X-0.600000X0.750000X-0.600000X0.750000X0.600000X0*%
%TD*%
%TA.AperFunction,ComponentPad*%
%ADD14O,2.500000X1.500000*%
%TD*%
%TA.AperFunction,ComponentPad*%
%ADD15RoundRect,0.250000X-1.050000X-0.550000X1.050000X-0.550000X1.050000X0.550000X-1.050000X0.550000X0*%
%TD*%
%TA.AperFunction,ComponentPad*%
%ADD16O,2.600000X1.600000*%
%TD*%
%TA.AperFunction,ComponentPad*%
%ADD17C,2.000000*%
%TD*%
%TA.AperFunction,ComponentPad*%
%ADD18R,1.500000X1.500000*%
%TD*%
%TA.AperFunction,ComponentPad*%
%ADD19C,1.600000*%
%TD*%
%TA.AperFunction,ViaPad*%
%ADD20C,5.000000*%
%TD*%
%TA.AperFunction,ViaPad*%
%ADD21C,6.000000*%
%TD*%
%TA.AperFunction,Conductor*%
%ADD22C,0.200000*%
%TD*%
G04 APERTURE END LIST*
D10*
%TO.P,X-Shut__FR1,1,Pin_1*%
%TO.N,/23*%
X73680000Y-62140000D03*
%TD*%
%TO.P,J2,1,Pin_1*%
%TO.N,/2*%
X116140000Y-111750000D03*
D11*
%TO.P,J2,2,Pin_2*%
%TO.N,/4*%
X113600000Y-111750000D03*
%TO.P,J2,3,Pin_3*%
%TO.N,/18*%
X111060000Y-111750000D03*
%TO.P,J2,4,Pin_4*%
%TO.N,/17*%
X108520000Y-111750000D03*
D12*
%TO.P,J2,5,Pin_5*%
%TO.N,unconnected-(J2-Pin_5-Pad5)*%
X105980000Y-111750000D03*
%TO.P,J2,6,Pin_6*%
%TO.N,unconnected-(J2-Pin_6-Pad6)*%
X103440000Y-111750000D03*
%TD*%
D13*
%TO.P,J4,1,Pin_1*%
%TO.N,Net-(J4-Pin_1)*%
X191750000Y-63900000D03*
D14*
%TO.P,J4,2,Pin_2*%
%TO.N,/4*%
X191750000Y-66400000D03*
%TD*%
D10*
%TO.P,J1,1,Pin_1*%
%TO.N,/2*%
X90180000Y-111700000D03*
D11*
%TO.P,J1,2,Pin_2*%
%TO.N,/4*%
X87640000Y-111700000D03*
%TO.P,J1,3,Pin_3*%
%TO.N,/18*%
X85100000Y-111700000D03*
%TO.P,J1,4,Pin_4*%
%TO.N,/17*%
X82560000Y-111700000D03*
D12*
%TO.P,J1,5,Pin_5*%
%TO.N,unconnected-(J1-Pin_5-Pad5)*%
X80020000Y-111700000D03*
%TO.P,J1,6,Pin_6*%
%TO.N,unconnected-(J1-Pin_6-Pad6)*%
X77480000Y-111700000D03*
%TD*%
D10*
%TO.P,X-Shut_F1,1,Pin_1*%
%TO.N,/6*%
X73440000Y-81360000D03*
%TD*%
%TO.P,J3,1,Pin_1*%
%TO.N,/2*%
X127310000Y-111960000D03*
D12*
%TO.P,J3,2,Pin_2*%
%TO.N,unconnected-(J3-Pin_2-Pad2)*%
X129850000Y-111960000D03*
D11*
%TO.P,J3,3,Pin_3*%
%TO.N,/4*%
X132390000Y-111960000D03*
%TO.P,J3,4,Pin_4*%
%TO.N,/18*%
X134930000Y-111960000D03*
%TO.P,J3,5,Pin_5*%
%TO.N,/17*%
X137470000Y-111960000D03*
D12*
%TO.P,J3,6,Pin_6*%
%TO.N,unconnected-(J3-Pin_6-Pad6)*%
X140010000Y-111960000D03*
%TO.P,J3,7,Pin_7*%
%TO.N,unconnected-(J3-Pin_7-Pad7)*%
X142550000Y-111960000D03*
%TO.P,J3,8,Pin_8*%
%TO.N,unconnected-(J3-Pin_8-Pad8)*%
X145090000Y-111960000D03*
%TO.P,J3,9,Pin_9*%
%TO.N,unconnected-(J3-Pin_9-Pad9)*%
X147630000Y-111960000D03*
%TD*%
D10*
%TO.P,X-Shut_BL1,1,Pin_1*%
%TO.N,/12*%
X183800000Y-112350000D03*
%TD*%
D15*
%TO.P,A1,1,~{RESET}*%
%TO.N,unconnected-(A1-~{RESET}-Pad1)*%
X129840000Y-57270000D03*
D16*
%TO.P,A1,2,3V3*%
%TO.N,/2*%
X129840000Y-59810000D03*
%TO.P,A1,3,NC*%
%TO.N,unconnected-(A1-NC-Pad3)*%
X129840000Y-62350000D03*
%TO.P,A1,4,GND*%
%TO.N,/4*%
X129840000Y-64890000D03*
%TO.P,A1,5,DAC2/A0*%
%TO.N,/5*%
X129840000Y-67430000D03*
%TO.P,A1,6,DAC1/A1*%
%TO.N,/6*%
X129840000Y-69970000D03*
%TO.P,A1,7,I34/A2*%
%TO.N,/7*%
X129840000Y-72510000D03*
%TO.P,A1,8,I39/A3*%
%TO.N,unconnected-(A1-I39{slash}A3-Pad8)*%
X129840000Y-75050000D03*
%TO.P,A1,9,IO36/A4*%
%TO.N,unconnected-(A1-IO36{slash}A4-Pad9)*%
X129840000Y-77590000D03*
%TO.P,A1,10,IO4/A5*%
%TO.N,/10*%
X129840000Y-80130000D03*
%TO.P,A1,11,SCK/IO5*%
%TO.N,/11*%
X129840000Y-82670000D03*
%TO.P,A1,12,MOSI/IO18*%
%TO.N,/12*%
X129840000Y-85210000D03*
%TO.P,A1,13,MISO/IO19*%
%TO.N,unconnected-(A1-MISO{slash}IO19-Pad13)*%
X129840000Y-87750000D03*
%TO.P,A1,14,RX/IO16*%
%TO.N,unconnected-(A1-RX{slash}IO16-Pad14)*%
X129840000Y-90290000D03*
%TO.P,A1,15,TX/IO17*%
%TO.N,unconnected-(A1-TX{slash}IO17-Pad15)*%
X129840000Y-92830000D03*
%TO.P,A1,16,IO21*%
%TO.N,unconnected-(A1-IO21-Pad16)*%
X129840000Y-95370000D03*
%TO.P,A1,17,SDA/IO23*%
%TO.N,/17*%
X149560000Y-95370000D03*
%TO.P,A1,18,SCL/IO22*%
%TO.N,/18*%
X149560000Y-92830000D03*
%TO.P,A1,19,A6/IO14*%
%TO.N,/14*%
X149560000Y-90290000D03*
%TO.P,A1,20,A7/IO32*%
%TO.N,/20*%
X149560000Y-87750000D03*
%TO.P,A1,21,A8/IO15*%
%TO.N,/15*%
X149560000Y-85210000D03*
%TO.P,A1,22,A9/IO33*%
%TO.N,/22*%
X149560000Y-82670000D03*
%TO.P,A1,23,A10/IO27*%
%TO.N,/23*%
X149560000Y-80130000D03*
%TO.P,A1,24,A11/IO12*%
%TO.N,unconnected-(A1-A11{slash}IO12-Pad24)*%
X149560000Y-77590000D03*
%TO.P,A1,25,A12/IO13*%
%TO.N,unconnected-(A1-A12{slash}IO13-Pad25)*%
X149560000Y-75050000D03*
%TO.P,A1,26,USB*%
%TO.N,unconnected-(A1-USB-Pad26)*%
X149560000Y-72510000D03*
%TO.P,A1,27,EN*%
%TO.N,unconnected-(A1-EN-Pad27)*%
X149560000Y-69970000D03*
%TO.P,A1,28,VBAT*%
%TO.N,/28*%
X149560000Y-67430000D03*
%TD*%
D10*
%TO.P,X-Shut_R1,1,Pin_1*%
%TO.N,/22*%
X154130000Y-58850000D03*
%TD*%
%TO.P,J7,1,Pin_1*%
%TO.N,/2*%
X190560000Y-75970000D03*
D14*
%TO.P,J7,2,Pin_2*%
%TO.N,/4*%
X190560000Y-78510000D03*
%TO.P,J7,3,Pin_3*%
%TO.N,/7*%
X190560000Y-81050000D03*
%TO.P,J7,4,Pin_4*%
%TO.N,unconnected-(J7-Pin_4-Pad4)*%
X190560000Y-83590000D03*
%TD*%
D15*
%TO.P,A2,1,~{RESET}*%
%TO.N,unconnected-(A2-~{RESET}-Pad1)*%
X79640000Y-57410000D03*
D16*
%TO.P,A2,2,3V3*%
%TO.N,/2*%
X79640000Y-59950000D03*
%TO.P,A2,3,AREF*%
%TO.N,unconnected-(A2-AREF-Pad3)*%
X79640000Y-62490000D03*
%TO.P,A2,4,GND*%
%TO.N,/4*%
X79640000Y-65030000D03*
%TO.P,A2,5,A0*%
%TO.N,unconnected-(A2-A0-Pad5)*%
X79640000Y-67570000D03*
%TO.P,A2,6,A1*%
%TO.N,unconnected-(A2-A1-Pad6)*%
X79640000Y-70110000D03*
%TO.P,A2,7,A2*%
%TO.N,unconnected-(A2-A2-Pad7)*%
X79640000Y-72650000D03*
%TO.P,A2,8,A3*%
%TO.N,unconnected-(A2-A3-Pad8)*%
X79640000Y-75190000D03*
%TO.P,A2,9,A4*%
%TO.N,unconnected-(A2-A4-Pad9)*%
X79640000Y-77730000D03*
%TO.P,A2,10,A5*%
%TO.N,unconnected-(A2-A5-Pad10)*%
X79640000Y-80270000D03*
%TO.P,A2,11,SCK*%
%TO.N,unconnected-(A2-SCK-Pad11)*%
X79640000Y-82810000D03*
%TO.P,A2,12,MOSI*%
%TO.N,unconnected-(A2-MOSI-Pad12)*%
X79640000Y-85350000D03*
%TO.P,A2,13,MISO*%
%TO.N,unconnected-(A2-MISO-Pad13)*%
X79640000Y-87890000D03*
%TO.P,A2,14,RX*%
%TO.N,unconnected-(A2-RX-Pad14)*%
X79640000Y-90430000D03*
%TO.P,A2,15,TX*%
%TO.N,unconnected-(A2-TX-Pad15)*%
X79640000Y-92970000D03*
%TO.P,A2,16,SPARE*%
%TO.N,unconnected-(A2-SPARE-Pad16)*%
X79640000Y-95510000D03*
%TO.P,A2,17,SDA*%
%TO.N,/15*%
X99360000Y-95510000D03*
%TO.P,A2,18,SCL*%
%TO.N,/14*%
X99360000Y-92970000D03*
%TO.P,A2,19,D0*%
%TO.N,unconnected-(A2-D0-Pad19)*%
X99360000Y-90430000D03*
%TO.P,A2,20,D1*%
%TO.N,unconnected-(A2-D1-Pad20)*%
X99360000Y-87890000D03*
%TO.P,A2,21,D2*%
%TO.N,unconnected-(A2-D2-Pad21)*%
X99360000Y-85350000D03*
%TO.P,A2,22,D3*%
%TO.N,unconnected-(A2-D3-Pad22)*%
X99360000Y-82810000D03*
%TO.P,A2,23,D4*%
%TO.N,unconnected-(A2-D4-Pad23)*%
X99360000Y-80270000D03*
%TO.P,A2,24,D5*%
%TO.N,unconnected-(A2-D5-Pad24)*%
X99360000Y-77730000D03*
%TO.P,A2,25,D6*%
%TO.N,unconnected-(A2-D6-Pad25)*%
X99360000Y-75190000D03*
%TO.P,A2,26,USB*%
%TO.N,unconnected-(A2-USB-Pad26)*%
X99360000Y-72650000D03*
%TO.P,A2,27,EN*%
%TO.N,unconnected-(A2-EN-Pad27)*%
X99360000Y-70110000D03*
%TO.P,A2,28,VBAT*%
%TO.N,unconnected-(A2-VBAT-Pad28)*%
X99360000Y-67570000D03*
%TD*%
D17*
%TO.P,SW3,1,1*%
%TO.N,Net-(J8-Pin_1)*%
X218190000Y-121640000D03*
%TO.P,SW3,2,2*%
X224690000Y-121640000D03*
%TO.P,SW3,3,K*%
%TO.N,Net-(J8-Pin_2)*%
X218190000Y-126140000D03*
%TO.P,SW3,4,A*%
X224690000Y-126140000D03*
%TD*%
D10*
%TO.P,X-Shut_Back1,1,Pin_1*%
%TO.N,/11*%
X191220000Y-92700000D03*
%TD*%
%TO.P,J6,1,Pin_1*%
%TO.N,/K1*%
X216395000Y-114450000D03*
D11*
%TO.P,J6,2,Pin_2*%
%TO.N,/K2*%
X218935000Y-114450000D03*
%TO.P,J6,3,Pin_3*%
%TO.N,/K3*%
X221475000Y-114450000D03*
%TO.P,J6,4,Pin_4*%
%TO.N,/K4*%
X224015000Y-114450000D03*
%TD*%
D10*
%TO.P,J10,1,Pin_1*%
%TO.N,Net-(J10-Pin_1)*%
X231345000Y-114660000D03*
D14*
%TO.P,J10,2,Pin_2*%
%TO.N,Net-(J10-Pin_2)*%
X231345000Y-112120000D03*
%TD*%
D10*
%TO.P,JX-Shut_FL1,1,Pin_1*%
%TO.N,/10*%
X76290000Y-103830000D03*
%TD*%
D18*
%TO.P,SW1,1,B*%
%TO.N,Net-(J4-Pin_1)*%
X195550000Y-64320000D03*
D19*
%TO.P,SW1,2,C*%
%TO.N,unconnected-(SW1-C-Pad2)*%
X195550000Y-61780000D03*
D14*
%TO.P,SW1,3,A*%
%TO.N,/28*%
X195550000Y-66860000D03*
%TD*%
D18*
%TO.P,SW2,1,B*%
%TO.N,Net-(J10-Pin_1)*%
X208495000Y-114430000D03*
D19*
%TO.P,SW2,2,C*%
%TO.N,unconnected-(SW2-C-Pad2)*%
X208495000Y-116970000D03*
D14*
%TO.P,SW2,3,A*%
%TO.N,Net-(J10-Pin_2)*%
X208495000Y-111890000D03*
%TD*%
D10*
%TO.P,X-Shut_BR1,1,Pin_1*%
%TO.N,/5*%
X190590000Y-54270000D03*
%TD*%
%TO.P,X-Shut_LEFT1,1,Pin_1*%
%TO.N,/20*%
X162960000Y-111990000D03*
%TD*%
D15*
%TO.P,A3,1,~{RESET}*%
%TO.N,unconnected-(A3-~{RESET}-Pad1)*%
X104870000Y-57900000D03*
D16*
%TO.P,A3,2,3V3*%
%TO.N,/2*%
X104870000Y-60440000D03*
%TO.P,A3,3,AREF*%
%TO.N,unconnected-(A3-AREF-Pad3)*%
X104870000Y-62980000D03*
%TO.P,A3,4,GND*%
%TO.N,/4*%
X104870000Y-65520000D03*
%TO.P,A3,5,A0*%
%TO.N,unconnected-(A3-A0-Pad5)*%
X104870000Y-68060000D03*
%TO.P,A3,6,A1*%
%TO.N,unconnected-(A3-A1-Pad6)*%
X104870000Y-70600000D03*
%TO.P,A3,7,A2*%
%TO.N,unconnected-(A3-A2-Pad7)*%
X104870000Y-73140000D03*
%TO.P,A3,8,A3*%
%TO.N,unconnected-(A3-A3-Pad8)*%
X104870000Y-75680000D03*
%TO.P,A3,9,A4*%
%TO.N,unconnected-(A3-A4-Pad9)*%
X104870000Y-78220000D03*
%TO.P,A3,10,A5*%
%TO.N,unconnected-(A3-A5-Pad10)*%
X104870000Y-80760000D03*
%TO.P,A3,11,SCK*%
%TO.N,/11*%
X104870000Y-83300000D03*
%TO.P,A3,12,MOSI*%
%TO.N,/12*%
X104870000Y-85840000D03*
%TO.P,A3,13,MISO*%
%TO.N,unconnected-(A3-MISO-Pad13)*%
X104870000Y-88380000D03*
%TO.P,A3,14,RX*%
%TO.N,unconnected-(A3-RX-Pad14)*%
X104870000Y-90920000D03*
%TO.P,A3,15,TX*%
%TO.N,unconnected-(A3-TX-Pad15)*%
X104870000Y-93460000D03*
%TO.P,A3,16,SPARE*%
%TO.N,unconnected-(A3-SPARE-Pad16)*%
X104870000Y-96000000D03*
%TO.P,A3,17,SDA*%
%TO.N,/15*%
X124590000Y-96000000D03*
%TO.P,A3,18,SCL*%
%TO.N,/14*%
X124590000Y-93460000D03*
%TO.P,A3,19,D0*%
%TO.N,unconnected-(A3-D0-Pad19)*%
X124590000Y-90920000D03*
%TO.P,A3,20,D1*%
%TO.N,unconnected-(A3-D1-Pad20)*%
X124590000Y-88380000D03*
%TO.P,A3,21,D2*%
%TO.N,unconnected-(A3-D2-Pad21)*%
X124590000Y-85840000D03*
%TO.P,A3,22,D3*%
%TO.N,unconnected-(A3-D3-Pad22)*%
X124590000Y-83300000D03*
%TO.P,A3,23,D4*%
%TO.N,unconnected-(A3-D4-Pad23)*%
X124590000Y-80760000D03*
%TO.P,A3,24,D5*%
%TO.N,unconnected-(A3-D5-Pad24)*%
X124590000Y-78220000D03*
%TO.P,A3,25,D6*%
%TO.N,unconnected-(A3-D6-Pad25)*%
X124590000Y-75680000D03*
%TO.P,A3,26,USB*%
%TO.N,unconnected-(A3-USB-Pad26)*%
X124590000Y-73140000D03*
%TO.P,A3,27,EN*%
%TO.N,unconnected-(A3-EN-Pad27)*%
X124590000Y-70600000D03*
%TO.P,A3,28,VBAT*%
%TO.N,unconnected-(A3-VBAT-Pad28)*%
X124590000Y-68060000D03*
%TD*%
D10*
%TO.P,J5,1,Pin_1*%
%TO.N,/K1*%
X216355000Y-109780000D03*
D11*
%TO.P,J5,2,Pin_2*%
%TO.N,/K2*%
X218895000Y-109780000D03*
%TO.P,J5,3,Pin_3*%
%TO.N,/K3*%
X221435000Y-109780000D03*
%TO.P,J5,4,Pin_4*%
%TO.N,/K4*%
X223975000Y-109780000D03*
%TD*%
D10*
%TO.P,J8,1,Pin_1*%
%TO.N,Net-(J8-Pin_1)*%
X213595000Y-122210000D03*
D14*
%TO.P,J8,2,Pin_2*%
%TO.N,Net-(J8-Pin_2)*%
X213595000Y-124750000D03*
%TD*%
D20*
%TO.N,*%
X192130000Y-105330000D03*
X207665000Y-125430000D03*
D21*
X115750000Y-105730000D03*
D20*
X195700000Y-125790000D03*
X230845000Y-102390000D03*
X74430000Y-55010000D03*
X74990000Y-88250000D03*
X138230000Y-104820000D03*
X81880000Y-105390000D03*
X207665000Y-102390000D03*
X230715000Y-125430000D03*
X195600000Y-53370000D03*
D21*
X151400000Y-105100000D03*
%TD*%
D22*
%TO.N,/14*%
X99660000Y-92970000D02*
X100450000Y-92180000D01*
X123610000Y-92180000D02*
X124890000Y-93460000D01*
X126800000Y-91550000D02*
X148600000Y-91550000D01*
X124890000Y-93460000D02*
X126800000Y-91550000D01*
X148600000Y-91550000D02*
X149860000Y-90290000D01*
X100450000Y-92180000D02*
X123610000Y-92180000D01*
%TO.N,/22*%
X149860000Y-82670000D02*
X154130000Y-82670000D01*
X154130000Y-82670000D02*
X154130000Y-58850000D01*
%TO.N,/12*%
X129540000Y-85210000D02*
X138190000Y-85210000D01*
X105890000Y-87160000D02*
X127590000Y-87160000D01*
X160301000Y-88851000D02*
X183800000Y-112350000D01*
X138190000Y-85210000D02*
X141831000Y-88851000D01*
X127590000Y-87160000D02*
X129540000Y-85210000D01*
X104570000Y-85840000D02*
X105890000Y-87160000D01*
X141831000Y-88851000D02*
X160301000Y-88851000D01*
%TO.N,/4*%
X190560000Y-78510000D02*
X188840000Y-76790000D01*
X189409000Y-70261000D02*
X190260000Y-69410000D01*
X113600000Y-111750000D02*
X113600000Y-115060000D01*
X104570000Y-65520000D02*
X105200000Y-64890000D01*
X113600000Y-115060000D02*
X114660000Y-116120000D01*
X188840000Y-72739000D02*
X189409000Y-72170000D01*
X87640000Y-111700000D02*
X87640000Y-116420000D01*
X189409000Y-72170000D02*
X189409000Y-70261000D01*
X79340000Y-65030000D02*
X104080000Y-65030000D01*
X93550000Y-116420000D02*
X102050000Y-107920000D01*
X71780000Y-60430000D02*
X71780000Y-119650000D01*
X191750000Y-69410000D02*
X191750000Y-66400000D01*
X141330000Y-119650000D02*
X142200000Y-119650000D01*
X132390000Y-111960000D02*
X135170000Y-109180000D01*
X190260000Y-69410000D02*
X191750000Y-69410000D01*
X188840000Y-76790000D02*
X188840000Y-72739000D01*
X141330000Y-109540000D02*
X141330000Y-119650000D01*
X195860000Y-119650000D02*
X195860000Y-78621000D01*
X140970000Y-109180000D02*
X141330000Y-109540000D01*
X142200000Y-119650000D02*
X195860000Y-119650000D01*
X104080000Y-65030000D02*
X104570000Y-65520000D01*
X109770000Y-107920000D02*
X113600000Y-111750000D01*
X132400000Y-116080000D02*
X132390000Y-116070000D01*
X132390000Y-116070000D02*
X132390000Y-111960000D01*
X195860000Y-78621000D02*
X189409000Y-72170000D01*
X135170000Y-109180000D02*
X140970000Y-109180000D01*
X71780000Y-119650000D02*
X141330000Y-119650000D01*
X87640000Y-116420000D02*
X93550000Y-116420000D01*
X76640000Y-60430000D02*
X71780000Y-60430000D01*
X114660000Y-116120000D02*
X132360000Y-116120000D01*
X76640000Y-65030000D02*
X76640000Y-60430000D01*
X105200000Y-64890000D02*
X129540000Y-64890000D01*
X132360000Y-116120000D02*
X132400000Y-116080000D01*
X79340000Y-65030000D02*
X76640000Y-65030000D01*
X102050000Y-107920000D02*
X109770000Y-107920000D01*
%TO.N,/20*%
X186010000Y-114500000D02*
X165470000Y-114500000D01*
X165470000Y-114500000D02*
X162960000Y-111990000D01*
X186010000Y-109180000D02*
X186010000Y-114500000D01*
X164580000Y-87750000D02*
X186010000Y-109180000D01*
X149860000Y-87750000D02*
X164580000Y-87750000D01*
%TO.N,/11*%
X141671000Y-86311000D02*
X138030000Y-82670000D01*
X127550000Y-84660000D02*
X129540000Y-82670000D01*
X191220000Y-86311000D02*
X141671000Y-86311000D01*
X104570000Y-83300000D02*
X105930000Y-84660000D01*
X191220000Y-92700000D02*
X191220000Y-86311000D01*
X138030000Y-82670000D02*
X129540000Y-82670000D01*
X105930000Y-84660000D02*
X127550000Y-84660000D01*
%TO.N,/6*%
X73440000Y-81360000D02*
X73440000Y-68880000D01*
X102739000Y-69499000D02*
X129069000Y-69499000D01*
X102120000Y-68880000D02*
X102739000Y-69499000D01*
X73440000Y-68880000D02*
X102120000Y-68880000D01*
X129069000Y-69499000D02*
X129540000Y-69970000D01*
%TO.N,/17*%
X82560000Y-111700000D02*
X82560000Y-118380000D01*
X147670000Y-97560000D02*
X149860000Y-95370000D01*
X112950000Y-117630000D02*
X137490000Y-117630000D01*
X137490000Y-117630000D02*
X137510000Y-117610000D01*
X108520000Y-113200000D02*
X112950000Y-117630000D01*
X82560000Y-111700000D02*
X82560000Y-109340000D01*
X82560000Y-118380000D02*
X94687058Y-118380000D01*
X94687058Y-118380000D02*
X103577058Y-109490000D01*
X108520000Y-111750000D02*
X108900000Y-111750000D01*
X103577058Y-109490000D02*
X106260000Y-109490000D01*
X108520000Y-111750000D02*
X108520000Y-113200000D01*
X137510000Y-117610000D02*
X137470000Y-117570000D01*
X137470000Y-117570000D02*
X137470000Y-111960000D01*
X106260000Y-109490000D02*
X108520000Y-111750000D01*
X82560000Y-109340000D02*
X94340000Y-97560000D01*
X94340000Y-97560000D02*
X147670000Y-97560000D01*
%TO.N,/23*%
X127580000Y-71270000D02*
X127580000Y-76310000D01*
X125990000Y-66590000D02*
X128050000Y-68650000D01*
X103913951Y-66621000D02*
X105826049Y-66621000D01*
X73680000Y-66270000D02*
X103562951Y-66270000D01*
X128050000Y-68650000D02*
X131680000Y-68650000D01*
X131680000Y-68650000D02*
X131680000Y-71270000D01*
X138610000Y-76310000D02*
X142430000Y-80130000D01*
X142430000Y-80130000D02*
X149860000Y-80130000D01*
X105857049Y-66590000D02*
X125990000Y-66590000D01*
X103562951Y-66270000D02*
X103913951Y-66621000D01*
X131680000Y-71270000D02*
X127580000Y-71270000D01*
X105826049Y-66621000D02*
X105857049Y-66590000D01*
X73680000Y-62140000D02*
X73680000Y-66270000D01*
X127580000Y-76310000D02*
X138610000Y-76310000D01*
%TO.N,/10*%
X82350000Y-97770000D02*
X82350000Y-78960000D01*
X129069000Y-79659000D02*
X129540000Y-80130000D01*
X101332000Y-78960000D02*
X102031000Y-79659000D01*
X76290000Y-103830000D02*
X82350000Y-97770000D01*
X102031000Y-79659000D02*
X129069000Y-79659000D01*
X82350000Y-78960000D02*
X101332000Y-78960000D01*
%TO.N,/28*%
X194587415Y-57450000D02*
X197590000Y-60452585D01*
X159500000Y-57450000D02*
X194587415Y-57450000D01*
X149860000Y-55800000D02*
X157850000Y-55800000D01*
X197590000Y-60452585D02*
X197590000Y-64320000D01*
X157850000Y-55800000D02*
X159500000Y-57450000D01*
X149860000Y-67430000D02*
X149860000Y-55800000D01*
X195550000Y-66360000D02*
X195550000Y-66860000D01*
X197590000Y-64320000D02*
X195550000Y-66360000D01*
%TO.N,/2*%
X198399000Y-69970000D02*
X193810000Y-69970000D01*
X194931000Y-80341000D02*
X194931000Y-94969000D01*
X128910000Y-60440000D02*
X129540000Y-59810000D01*
X189030000Y-79700000D02*
X194290000Y-79700000D01*
X194575000Y-79985000D02*
X194931000Y-80341000D01*
X92800000Y-115420000D02*
X100990000Y-107230000D01*
X187490000Y-115810000D02*
X152450000Y-115810000D01*
X152450000Y-115810000D02*
X152320000Y-115810000D01*
X192799000Y-52209787D02*
X192799000Y-54530213D01*
X187490000Y-102410000D02*
X187490000Y-115810000D01*
X194931000Y-94969000D02*
X187490000Y-102410000D01*
X193810000Y-69970000D02*
X193810000Y-65170000D01*
X90730000Y-115420000D02*
X92800000Y-115420000D01*
X116140000Y-111750000D02*
X116140000Y-114890000D01*
X152320000Y-112740000D02*
X152320000Y-115810000D01*
X100990000Y-107230000D02*
X111620000Y-107230000D01*
X193810000Y-65170000D02*
X186340000Y-65170000D01*
X104570000Y-60440000D02*
X128910000Y-60440000D01*
X198399000Y-60130213D02*
X198399000Y-69970000D01*
X129540000Y-59810000D02*
X142310000Y-59810000D01*
X194290000Y-79700000D02*
X194575000Y-79985000D01*
X186340000Y-77010000D02*
X189030000Y-79700000D01*
X125644314Y-107700000D02*
X127240000Y-107700000D01*
X79340000Y-59950000D02*
X79830000Y-60440000D01*
X111620000Y-107230000D02*
X116140000Y-111750000D01*
X147280000Y-107700000D02*
X152320000Y-112740000D01*
X191190213Y-50601000D02*
X192799000Y-52209787D01*
X151519000Y-50601000D02*
X191190213Y-50601000D01*
X118334314Y-115010000D02*
X125644314Y-107700000D01*
X192799000Y-54530213D02*
X198399000Y-60130213D01*
X142310000Y-59810000D02*
X151519000Y-50601000D01*
X90180000Y-114870000D02*
X90730000Y-115420000D01*
X116260000Y-115010000D02*
X118334314Y-115010000D01*
X127310000Y-111960000D02*
X127310000Y-107770000D01*
X127240000Y-107700000D02*
X147280000Y-107700000D01*
X186340000Y-65170000D02*
X186340000Y-77010000D01*
X90180000Y-111700000D02*
X90180000Y-114870000D01*
X116140000Y-114890000D02*
X116260000Y-115010000D01*
X190560000Y-75970000D02*
X194575000Y-79985000D01*
X127310000Y-107770000D02*
X127240000Y-107700000D01*
X79830000Y-60440000D02*
X104570000Y-60440000D01*
%TO.N,/18*%
X111060000Y-114225728D02*
X113624272Y-116790000D01*
X85100000Y-111700000D02*
X85100000Y-117320000D01*
X102800000Y-108700000D02*
X108010000Y-108700000D01*
X151630000Y-101011586D02*
X151630000Y-92830000D01*
X111060000Y-111750000D02*
X111060000Y-114225728D01*
X85100000Y-109590000D02*
X93678414Y-101011586D01*
X85100000Y-117320000D02*
X94180000Y-117320000D01*
X134980000Y-116800000D02*
X134930000Y-116750000D01*
X118770000Y-116790000D02*
X118780000Y-116800000D01*
X85100000Y-111700000D02*
X85100000Y-109590000D01*
X108010000Y-108700000D02*
X111060000Y-111750000D01*
X134930000Y-116750000D02*
X134930000Y-111960000D01*
X151630000Y-92830000D02*
X149860000Y-92830000D01*
X118780000Y-116800000D02*
X134980000Y-116800000D01*
X93678414Y-101011586D02*
X151630000Y-101011586D01*
X113624272Y-116790000D02*
X118770000Y-116790000D01*
X94180000Y-117320000D02*
X102800000Y-108700000D01*
%TO.N,/15*%
X99660000Y-95510000D02*
X96700000Y-95510000D01*
X100660000Y-84110000D02*
X102740000Y-82030000D01*
X128390000Y-81380000D02*
X138600000Y-81380000D01*
X127740000Y-82030000D02*
X128390000Y-81380000D01*
X99660000Y-95510000D02*
X100330000Y-94840000D01*
X142430000Y-85210000D02*
X149860000Y-85210000D01*
X102740000Y-82030000D02*
X127740000Y-82030000D01*
X100330000Y-94840000D02*
X123730000Y-94840000D01*
X138600000Y-81380000D02*
X142430000Y-85210000D01*
X96700000Y-84110000D02*
X100660000Y-84110000D01*
X96700000Y-95510000D02*
X96700000Y-84110000D01*
X123730000Y-94840000D02*
X124890000Y-96000000D01*
%TO.N,/7*%
X180250000Y-81050000D02*
X156090000Y-56890000D01*
X151710000Y-71260000D02*
X146950000Y-71260000D01*
X156090000Y-56890000D02*
X151710000Y-56890000D01*
X151710000Y-56890000D02*
X151710000Y-71260000D01*
X145700000Y-72510000D02*
X129540000Y-72510000D01*
X146950000Y-71260000D02*
X145700000Y-72510000D01*
X190560000Y-81050000D02*
X180250000Y-81050000D01*
%TO.N,/5*%
X136860000Y-67430000D02*
X150020000Y-54270000D01*
X150020000Y-54270000D02*
X190590000Y-54270000D01*
X129540000Y-67430000D02*
X136860000Y-67430000D01*
X190510000Y-54350000D02*
X190590000Y-54270000D01*
%TO.N,Net-(J4-Pin_1)*%
X194810000Y-63900000D02*
X191750000Y-63900000D01*
X191870000Y-63780000D02*
X191750000Y-63900000D01*
X195550000Y-64320000D02*
X195230000Y-64320000D01*
X195230000Y-64320000D02*
X194810000Y-63900000D01*
X195130000Y-63900000D02*
X195550000Y-64320000D01*
%TO.N,/K3*%
X221435000Y-114410000D02*
X221475000Y-114450000D01*
X221435000Y-109780000D02*
X221435000Y-114410000D01*
%TO.N,/K2*%
X218895000Y-114410000D02*
X218935000Y-114450000D01*
X218895000Y-109780000D02*
X218895000Y-114410000D01*
%TO.N,/K4*%
X223975000Y-109780000D02*
X223975000Y-114410000D01*
X223975000Y-114410000D02*
X224015000Y-114450000D01*
%TO.N,/K1*%
X216395000Y-109820000D02*
X216355000Y-109780000D01*
X216395000Y-114450000D02*
X216395000Y-109820000D01*
%TO.N,Net-(J8-Pin_1)*%
X214165000Y-121640000D02*
X213595000Y-122210000D01*
X224690000Y-121640000D02*
X218190000Y-121640000D01*
X218190000Y-121640000D02*
X214165000Y-121640000D01*
%TO.N,Net-(J8-Pin_2)*%
X218190000Y-126140000D02*
X224690000Y-126140000D01*
X213595000Y-124750000D02*
X214985000Y-126140000D01*
X214985000Y-126140000D02*
X218190000Y-126140000D01*
%TO.N,Net-(J10-Pin_2)*%
X228350000Y-109125000D02*
X231345000Y-112120000D01*
X214525000Y-105860000D02*
X228350000Y-105860000D01*
X208495000Y-111890000D02*
X214525000Y-105860000D01*
X228350000Y-105860000D02*
X228350000Y-109125000D01*
%TO.N,Net-(J10-Pin_1)*%
X227355000Y-118650000D02*
X212715000Y-118650000D01*
X212715000Y-118650000D02*
X208495000Y-114430000D01*
X231345000Y-114660000D02*
X227355000Y-118650000D01*
%TO.N,unconnected-(J3-Pin_9-Pad9)*%
X148330000Y-111820000D02*
X147280000Y-111820000D01*
%TD*%
M02*
